<?xml version="1.0" standalone="no"?>
<!DOCTYPE svg PUBLIC "-//W3C//DTD SVG 1.1//EN" "http://www.w3.org/Graphics/SVG/1.1/DTD/svg11.dtd" >
<svg xmlns="http://www.w3.org/2000/svg" xmlns:xlink="http://www.w3.org/1999/xlink" version="1.1">
<metadata>
Created by FontForge 20150824 at Sun Sep 11 21:04:28 2016
 By Everything Fonts
Copyright (c) 2014 by Richard Miller. All rights reserved.
</metadata>
<defs>
<font id="UniformUltra" horiz-adv-x="625" >
  <font-face 
    font-family="UniformUltra"
    font-weight="900"
    font-stretch="normal"
    units-per-em="1000"
    panose-1="0 0 0 0 0 0 0 0 0 0"
    ascent="750"
    descent="-250"
    x-height="522"
    cap-height="700"
    bbox="-190 -224 1221 948"
    underline-thickness="50"
    underline-position="-150"
    unicode-range="U+0020-FB02"
  />
<missing-glyph horiz-adv-x="691" 
d="M20 0v700h651v-700h-651zM381 350l159 158l-36 36l-159 -158l-158 159l-36 -36l158 -159l-159 -159l36 -36l159 159l159 -159l36 36z" />
    <glyph glyph-name="ellipsis" unicode="&#x2e;&#x2e;&#x2e;" horiz-adv-x="1171" 
d="M994 246q55 0 91 -37t36 -92q0 -53 -36.5 -90t-90.5 -37q-53 0 -91 37.5t-38 89.5q0 54 38 91.5t91 37.5zM179 246q55 0 91 -37t36 -92q0 -53 -36.5 -90t-90.5 -37q-53 0 -91 37.5t-38 89.5q0 54 38 91.5t91 37.5zM588 246q53 0 90 -37.5t37 -91.5q0 -53 -37.5 -90
t-89.5 -37q-55 0 -93.5 37t-38.5 90q0 54 38.5 91.5t93.5 37.5z" />
    <glyph glyph-name="ff" unicode="ff" horiz-adv-x="840" 
d="M320 502v-10h115v-167h-115v-325h-215v325h-85v167h85v29q0 88 50.5 138.5t139.5 50.5q44 0 81.5 -6t53.5 -12l15 -5l-23 -154q-22 8 -55 8q-23 0 -35 -11t-12 -28zM705 499v-7h115v-167h-115v-325h-215v501q0 100 53.5 154.5t151.5 54.5q44 0 77.5 -6t45.5 -12l12 -5
l-23 -154q-20 8 -53 8q-49 0 -49 -42z" />
    <glyph glyph-name="ft" unicode="ft" horiz-adv-x="855" 
d="M705 640v-118h120v-167h-120v-133q0 -35 34 -35q14 0 29.5 1.5t24.5 3.5l9 2l23 -178q-67 -26 -152 -26t-134 43.5t-49 122.5v484h215zM320 502v-10h115v-167h-115v-325h-215v325h-85v167h85v29q0 88 50.5 138.5t139.5 50.5q44 0 81.5 -6t53.5 -12l15 -5l-23 -154
q-22 8 -55 8q-23 0 -35 -11t-12 -28z" />
    <glyph glyph-name="rf" unicode="rf" horiz-adv-x="815" 
d="M680 499v-7h115v-167h-115v-325h-215v501q0 100 53.5 154.5t151.5 54.5q44 0 77.5 -6t45.5 -12l12 -5l-23 -154q-20 8 -53 8q-49 0 -49 -42zM40 0v522h191l10 -84q53 94 174 94l-2 -220h-46q-57 0 -84.5 -25.5t-27.5 -85.5v-201h-215z" />
    <glyph glyph-name="rt" unicode="rt" horiz-adv-x="830" 
d="M680 640v-118h120v-167h-120v-133q0 -35 34 -35q14 0 29.5 1.5t24.5 3.5l9 2l23 -178q-67 -26 -152 -26t-134 43.5t-49 122.5v484h215zM40 0v522h191l10 -84q53 94 174 94l-2 -220h-46q-57 0 -84.5 -25.5t-27.5 -85.5v-201h-215z" />
    <glyph glyph-name="tf" unicode="tf" horiz-adv-x="845" 
d="M710 499v-7h115v-167h-115v-325h-215v501q0 100 53.5 154.5t151.5 54.5q44 0 77.5 -6t45.5 -12l12 -5l-23 -154q-20 8 -53 8q-49 0 -49 -42zM320 640v-118h120v-167h-120v-133q0 -35 34 -35q14 0 29.5 1.5t24.5 3.5l9 2l23 -178q-67 -26 -152 -26t-134 43.5t-49 122.5
v199h-85v167h85v118h215z" />
    <glyph glyph-name="tt" unicode="tt" horiz-adv-x="860" 
d="M320 640v-118h120v-167h-120v-133q0 -35 34 -35q14 0 29.5 1.5t24.5 3.5l9 2l23 -178q-67 -26 -152 -26t-134 43.5t-49 122.5v199h-85v167h85v118h215zM710 640v-118h120v-167h-120v-133q0 -35 34 -35q14 0 29.5 1.5t24.5 3.5l9 2l23 -178q-67 -26 -152 -26t-134 43.5
t-49 122.5v484h215z" />
    <glyph glyph-name="rtf" unicode="rtf" horiz-adv-x="1205" 
d="M680 640v-118h120v-167h-120v-133q0 -35 34 -35q14 0 29.5 1.5t24.5 3.5l9 2l23 -178q-67 -26 -152 -26t-134 43.5t-49 122.5v484h215zM40 0v522h191l10 -84q53 94 174 94l-2 -220h-46q-57 0 -84.5 -25.5t-27.5 -85.5v-201h-215zM1070 499v-7h115v-167h-115v-325h-215
v501q0 100 53.5 154.5t151.5 54.5q44 0 77.5 -6t45.5 -12l12 -5l-23 -154q-20 8 -53 8q-49 0 -49 -42z" />
    <glyph glyph-name=".notdef" horiz-adv-x="691" 
d="M20 0v700h651v-700h-651zM381 350l159 158l-36 36l-159 -158l-158 159l-36 -36l158 -159l-159 -159l36 -36l159 159l159 -159l36 36z" />
    <glyph glyph-name=".null" horiz-adv-x="0" 
 />
    <glyph glyph-name="nonmarkingreturn" horiz-adv-x="333" 
 />
    <glyph glyph-name="space" unicode=" " horiz-adv-x="307" 
 />
    <glyph glyph-name="exclam" unicode="!" horiz-adv-x="359" 
d="M180 246q53 0 90.5 -37.5t37.5 -91.5t-37.5 -90.5t-90.5 -36.5q-55 0 -92 36t-37 91q0 54 37 91.5t92 37.5zM96 271l-47 429h261l-47 -429h-167z" />
    <glyph glyph-name="quotedbl" unicode="&#x22;" horiz-adv-x="501" 
d="M451 340h-168v360h168v-360zM218 340h-168v360h168v-360z" />
    <glyph glyph-name="numbersign" unicode="#" 
d="M287 346l-17 -90h70l17 90h-70zM289 0l25 131h-70l-25 -131h-135l26 131h-70v125h95l18 90h-73v125h98l26 129h135l-26 -129h70l26 129h135l-26 -129h67v-125h-92l-18 -90h70v-125h-95l-26 -131h-135z" />
    <glyph glyph-name="dollar" unicode="$" horiz-adv-x="587" 
d="M218 279q-79 41 -116.5 92.5t-37.5 125.5q0 77 50 131t132 70v102h116v-101q38 -6 71.5 -20.5t54.5 -31t36 -32.5t22 -27l6 -10l-152 -107q-4 7 -12 16.5t-31 26t-46 16.5q-11 0 -18.5 -6.5t-7.5 -16.5q0 -16 18 -32t67 -41q178 -91 178 -222q0 -81 -51.5 -136.5
t-134.5 -71.5v-104h-116v99q-45 5 -84 21t-63 35.5t-41.5 38t-25.5 30.5l-7 13l153 107q7 -9 18 -21.5t42.5 -34t57.5 -21.5q29 0 29 24q0 33 -107 88z" />
    <glyph glyph-name="percent" unicode="%" horiz-adv-x="770" 
d="M112 0l410 600h136l-410 -600h-136zM159 450q0 -16 10.5 -27t27.5 -11t27.5 11t10.5 27t-10.5 27t-27.5 11t-27.5 -11t-10.5 -27zM30 448q0 68 49.5 115t119.5 47t117.5 -45t47.5 -113t-49.5 -115t-119.5 -47t-117.5 45t-47.5 113zM535 150q0 -16 10.5 -27t27.5 -11
t27.5 11t10.5 27t-10.5 27t-27.5 11t-27.5 -11t-10.5 -27zM406 148q0 68 49.5 115t119.5 47t117.5 -45t47.5 -113t-49.5 -115t-119.5 -47t-117.5 45t-47.5 113z" />
    <glyph glyph-name="ampersand" unicode="&#x26;" horiz-adv-x="755" 
d="M540 400h215l-174 -207l174 -193h-230l-58 62q-49 -42 -93.5 -57t-110.5 -15q-94 0 -166 59.5t-72 145.5q0 61 27.5 109.5t98.5 92.5q-51 63 -51 137q0 72 61 124t164 52q105 0 160.5 -51.5t55.5 -119.5q0 -101 -110 -180l36 -40zM289 168q34 0 59 19l-91 97
q-31 -26 -31 -58q0 -26 17.5 -42t45.5 -16zM296 528q0 -25 33 -54q38 21 38 51q0 16 -10 26t-27 10q-15 0 -24.5 -9.5t-9.5 -23.5z" />
    <glyph glyph-name="quotesingle" unicode="'" horiz-adv-x="268" 
d="M218 340h-168v360h168v-360z" />
    <glyph glyph-name="parenleft" unicode="(" horiz-adv-x="438" 
d="M423 48l-96 -148q-6 2 -16 6.5t-39.5 22.5t-56 39.5t-59 59t-56 81t-39.5 105.5t-16 131t15.5 132t40.5 107.5t55 82t60 61.5t55 41t41 24l15 7l96 -148q-7 -4 -18.5 -11t-40.5 -33.5t-51 -58t-40.5 -85.5t-18.5 -114q0 -61 17.5 -114.5t42 -86t49.5 -57t43 -34.5z" />
    <glyph glyph-name="parenright" unicode=")" horiz-adv-x="438" 
d="M15 652l96 148q6 -2 16 -6.5t39.5 -22.5t56 -39.5t59 -59t56 -81t39.5 -105.5t16 -131t-15.5 -132t-40.5 -107.5t-55 -82t-60 -61.5t-55 -41t-41 -24l-15 -7l-96 148q7 4 18.5 11t40.5 33.5t51 58t40.5 85.5t18.5 114q0 44 -9.5 84.5t-24 70t-32.5 55t-36.5 42t-33 28.5
t-24.5 17z" />
    <glyph glyph-name="asterisk" unicode="*" horiz-adv-x="502" 
d="M327 700l-14 -127l112 54l47 -144l-123 -24l86 -92l-125 -89l-59 111l-62 -111l-120 89l85 92l-124 24l47 144l113 -54l-15 127h152z" />
    <glyph glyph-name="plus" unicode="+" 
d="M400 620v-182h175v-168h-175v-182h-170v182h-180v168h180v182h170z" />
    <glyph glyph-name="comma" unicode="," horiz-adv-x="336" 
d="M205 -130h-165l30 360h226z" />
    <glyph glyph-name="hyphen" unicode="-" horiz-adv-x="420" 
d="M370 257h-320v190h320v-190z" />
    <glyph glyph-name="period" unicode="." horiz-adv-x="356" 
d="M179 242q53 0 90 -36.5t37 -90.5t-37 -89.5t-90 -35.5q-55 0 -92 35.5t-37 89.5t37 90.5t92 36.5z" />
    <glyph glyph-name="slash" unicode="/" horiz-adv-x="589" 
d="M0 -80l410 860h179l-410 -860h-179z" />
    <glyph glyph-name="zero" unicode="0" 
d="M257 454v-208q0 -28 14.5 -43.5t40.5 -15.5t40.5 15.5t14.5 43.5v208q0 28 -14.5 43.5t-40.5 15.5t-40.5 -15.5t-14.5 -43.5zM42 254v185q0 126 77 198.5t195 72.5q119 0 193.5 -69t74.5 -195v-185q0 -126 -78 -198.5t-197 -72.5q-118 0 -191.5 69t-73.5 195z" />
    <glyph glyph-name="one" unicode="1" horiz-adv-x="530" 
d="M5 516l265 184h180v-700h-215v452l-131 -79z" />
    <glyph glyph-name="two" unicode="2" horiz-adv-x="579" 
d="M49 169l224 209q33 31 44.5 50.5t11.5 41.5q0 20 -14.5 35t-40.5 15q-24 0 -48 -18t-36 -36l-11 -17l-149 101q2 7 7.5 17.5t26.5 38t48.5 48.5t76.5 38.5t108 17.5q107 0 177 -62t70 -153q0 -73 -33.5 -129.5t-106.5 -116.5l-78 -64h213v-185h-490v169z" />
    <glyph glyph-name="three" unicode="3" horiz-adv-x="570" 
d="M169 427h67q59 0 59 50q0 21 -14.5 34t-35.5 13q-23 0 -40.5 -12t-22.5 -24l-6 -11l-151 90q2 6 7 15.5t24.5 34t44.5 43.5t69.5 34.5t97.5 15.5q100 0 171 -53.5t71 -141.5q0 -93 -79 -152q99 -57 99 -165q0 -96 -74 -152t-192 -56q-56 0 -103.5 16t-75 39t-47 46
t-26.5 39l-8 16l155 93q1 -3 3.5 -7.5t11 -15.5t19 -20t28 -16t36.5 -7q27 0 42.5 14.5t15.5 34.5q0 57 -75 57h-71v148z" />
    <glyph glyph-name="four" unicode="4" 
d="M191 293h112v163zM17 296l280 404h210v-407h100v-168h-100v-125h-204v125h-286v171z" />
    <glyph glyph-name="five" unicode="5" horiz-adv-x="605" 
d="M70 268v432h460v-185h-268v-62q32 20 84 20q100 0 159.5 -65.5t59.5 -158.5q0 -116 -74 -187.5t-197 -71.5q-52 0 -97 15.5t-72.5 38t-47.5 45t-29 37.5l-8 16l151 109q4 -7 11.5 -17.5t33 -28.5t53.5 -18q30 0 46.5 16.5t16.5 42.5q0 23 -15.5 38t-41.5 15
q-17 0 -31 -7.5t-19 -15.5l-5 -8h-170z" />
    <glyph glyph-name="six" unicode="6" 
d="M108 462l157 238h238l-159 -233q11 2 21 2q90 0 155 -61.5t65 -152.5q0 -118 -80.5 -191.5t-195.5 -73.5q-110 0 -189.5 72.5t-79.5 185.5q0 112 68 214zM250 250q0 -28 17 -45.5t45 -17.5t45.5 17.5t17.5 45.5t-17.5 46t-45.5 18t-45 -18t-17 -46z" />
    <glyph glyph-name="seven" unicode="7" horiz-adv-x="545" 
d="M40 0l236 509h-249v191h490v-150l-244 -550h-233z" />
    <glyph glyph-name="eight" unicode="8" 
d="M312 440q20 0 33 12.5t13 33.5t-13 33.5t-33 12.5t-33 -12.5t-13 -33.5t13 -33.5t33 -12.5zM316 710q110 0 177 -55t67 -147q0 -68 -58 -131q83 -72 83 -159q0 -99 -78.5 -163.5t-197.5 -64.5q-121 0 -195 61t-74 160q0 86 79 160q-55 58 -55 130q0 91 71 150t181 59z
M312 170q27 0 45.5 18.5t18.5 45.5q0 29 -18.5 47t-45.5 18t-45.5 -18t-18.5 -47q0 -27 18.5 -45.5t45.5 -18.5z" />
    <glyph glyph-name="nine" unicode="9" 
d="M517 238l-157 -238h-238l159 233q-11 -2 -21 -2q-90 0 -155 61.5t-65 152.5q0 118 80.5 191.5t195.5 73.5q110 0 189.5 -72.5t79.5 -185.5q0 -112 -68 -214zM375 450q0 28 -17 45.5t-45 17.5t-45.5 -17.5t-17.5 -45.5t17.5 -46t45.5 -18t45 18t17 46z" />
    <glyph glyph-name="colon" unicode=":" horiz-adv-x="356" 
d="M179 528q53 0 90 -36.5t37 -90.5t-37 -89.5t-90 -35.5q-55 0 -92 35.5t-37 89.5t37 90.5t92 36.5zM179 242q53 0 90 -36.5t37 -90.5t-37 -89.5t-90 -35.5q-55 0 -92 35.5t-37 89.5t37 90.5t92 36.5z" />
    <glyph glyph-name="semicolon" unicode=";" horiz-adv-x="356" 
d="M205 -130h-165l30 360h226zM179 528q53 0 90 -36.5t37 -90.5t-37 -89.5t-90 -35.5q-55 0 -92 35.5t-37 89.5t37 90.5t92 36.5z" />
    <glyph glyph-name="less" unicode="&#x3c;" 
d="M575 474l-341 -115l341 -117v-191l-525 214v180l525 211v-182z" />
    <glyph glyph-name="equal" unicode="=" 
d="M575 375h-525v168h525v-168zM575 149h-525v166h525v-166z" />
    <glyph glyph-name="greater" unicode="&#x3e;" 
d="M50 235l341 115l-341 117v191l525 -214v-180l-525 -211v182z" />
    <glyph glyph-name="question" unicode="?" horiz-adv-x="540" 
d="M286 474q0 14 -9.5 24t-26.5 10q-23 0 -41 -15t-25 -29l-6 -15l-160 101q2 7 6.5 17.5t23.5 38t45 48.5t74 38.5t106 17.5q98 0 167.5 -59.5t69.5 -140.5q0 -40 -13 -72t-33.5 -53t-41.5 -38t-40 -36.5t-27 -39.5h-190q0 41 19 75t41.5 51.5t41.5 38t19 38.5zM257 246
q53 0 90 -37.5t37 -91.5t-37 -90.5t-90 -36.5q-55 0 -92 36t-37 91q0 54 37 91.5t92 37.5z" />
    <glyph glyph-name="at" unicode="@" horiz-adv-x="971" 
d="M550 -16l37 -112q-40 -17 -104 -17q-195 0 -321.5 121.5t-126.5 300.5q0 183 129.5 308t323.5 125q195 0 321.5 -121.5t126.5 -306.5q0 -81 -30 -153t-90.5 -118.5t-137.5 -46.5q-64 0 -106.5 40t-41.5 106q-43 -35 -105 -35q-89 0 -139.5 66t-37.5 165q12 87 72 137
t138 50q63 0 103 -38l13 30h129l22 -23l-48 -333q-2 -17 6.5 -27t25.5 -10q32 0 62 52.5t30 125.5q0 150 -85 232.5t-232 82.5q-135 0 -224.5 -87.5t-89.5 -216.5q0 -131 89.5 -218.5t224.5 -87.5q19 0 35.5 2t23.5 5zM477 335q-22 0 -36 -12t-16 -32q-2 -24 10.5 -39.5
t36.5 -15.5q46 0 52 45q3 22 -10 38t-37 16z" />
    <glyph glyph-name="A" unicode="A" horiz-adv-x="740" 
d="M364 439l-53 -172h105zM482 700l268 -700h-252l-29 96h-212l-29 -96h-238l266 700h226z" />
    <glyph glyph-name="B" unicode="B" horiz-adv-x="690" 
d="M289 435h60q58 0 58 46q0 47 -58 47h-60v-93zM60 700h342q107 0 170.5 -51t63.5 -134q0 -94 -85 -151q54 -23 84 -66.5t30 -99.5q0 -85 -68.5 -141.5t-174.5 -56.5h-362v700zM289 277v-108h87q31 0 47 15.5t16 38.5t-16 38.5t-47 15.5h-87z" />
    <glyph glyph-name="C" unicode="C" horiz-adv-x="701" 
d="M35 345q0 153 108 259t268 106q41 0 78.5 -6.5t65 -17t50.5 -23.5t38.5 -25.5t26.5 -23t16 -16.5l4 -7l-166 -146q-4 6 -12 14.5t-37.5 22.5t-65.5 14q-65 0 -105 -41t-40 -106t40 -106.5t105 -41.5q24 0 46 6.5t36 16t24.5 18.5t14.5 16l5 6l161 -139q-3 -5 -10 -14.5
t-32.5 -32.5t-56 -41t-82.5 -32.5t-111 -14.5q-160 0 -264.5 101.5t-104.5 253.5z" />
    <glyph glyph-name="D" unicode="D" horiz-adv-x="760" 
d="M289 503v-306h50q70 0 115 42.5t45 110.5t-45 110.5t-115 42.5h-50zM60 700h276q168 0 278.5 -98.5t110.5 -248.5t-114 -251.5t-282 -101.5h-269v700z" />
    <glyph glyph-name="E" unicode="E" horiz-adv-x="650" 
d="M615 0h-555v700h545v-197h-316v-67h266v-166h-266v-73h326v-197z" />
    <glyph glyph-name="F" unicode="F" horiz-adv-x="610" 
d="M545 235h-256v-235h-229v700h535v-197h-306v-93h256v-175z" />
    <glyph glyph-name="G" unicode="G" horiz-adv-x="786" 
d="M393 407h352q6 -28 6 -62q0 -151 -93.5 -253t-253.5 -102q-159 0 -264 103t-105 255t108.5 257t267.5 105q56 0 105.5 -11.5t80 -28.5t53 -34t32.5 -28l9 -12l-154 -156q-5 6 -15 16t-44 26t-72 16q-63 0 -104 -43.5t-41 -110.5t41 -110.5t105 -43.5q42 0 72 17t39 33
l10 17h-135v150z" />
    <glyph glyph-name="H" unicode="H" horiz-adv-x="770" 
d="M484 0v255h-195v-255h-229v700h229v-241h195v241h226v-700h-226z" />
    <glyph glyph-name="I" unicode="I" horiz-adv-x="363" 
d="M65 0v700h233v-700h-233z" />
    <glyph glyph-name="J" unicode="J" horiz-adv-x="514" 
d="M232 303v397h232v-415q0 -134 -79.5 -214.5t-209.5 -80.5q-51 0 -95 8.5t-62 17.5l-18 9l53 196q31 -15 84 -15q45 0 70 26.5t25 70.5z" />
    <glyph glyph-name="K" unicode="K" horiz-adv-x="754" 
d="M492 0l-203 329v-329h-229v700h229v-307l183 307h267l-232 -326l252 -374h-267z" />
    <glyph glyph-name="L" unicode="L" horiz-adv-x="590" 
d="M585 0h-525v700h229v-496h296v-204z" />
    <glyph glyph-name="M" unicode="M" horiz-adv-x="890" 
d="M388 95l-111 229v-324h-217v700h233l158 -326l156 326h223v-700h-219v324l-111 -229h-112z" />
    <glyph glyph-name="N" unicode="N" horiz-adv-x="790" 
d="M507 0l-226 358v-358h-221v700h234l213 -340v340h223v-700h-223z" />
    <glyph glyph-name="O" unicode="O" horiz-adv-x="815" 
d="M411 710q159 0 264 -102.5t105 -254.5t-108.5 -257.5t-267.5 -105.5q-160 0 -264.5 102t-104.5 254q0 153 108 258.5t268 105.5zM262 350q0 -63 42 -106.5t103 -43.5t103 43.5t42 106.5t-42 106.5t-103 43.5t-103 -43.5t-42 -106.5z" />
    <glyph glyph-name="P" unicode="P" horiz-adv-x="695" 
d="M289 512v-144h70q37 0 58.5 19.5t21.5 52.5t-21.5 52.5t-58.5 19.5h-70zM60 0v700h323q130 0 206 -68.5t76 -184.5q0 -115 -80.5 -188t-208.5 -73h-87v-186h-229z" />
    <glyph glyph-name="Q" unicode="Q" horiz-adv-x="815" 
d="M411 710q159 0 264 -103t105 -255q0 -177 -145 -287l124 -185h-254l-71 111q-9 -1 -30 -1q-160 0 -264.5 101.5t-104.5 253.5q0 153 108 259t268 106zM262 350q0 -63 42 -106.5t103 -43.5t103 43.5t42 106.5t-42 106.5t-103 43.5t-103 -43.5t-42 -106.5z" />
    <glyph glyph-name="R" unicode="R" horiz-adv-x="710" 
d="M363 512h-74v-132h74q36 0 56 17.5t20 48.5t-20 48.5t-56 17.5zM60 0v700h335q120 0 195 -66.5t75 -174.5q0 -137 -114 -209l144 -250h-261l-107 209h-38v-209h-229z" />
    <glyph glyph-name="S" unicode="S" horiz-adv-x="605" 
d="M382 441q188 -86 188 -223q0 -95 -77.5 -161.5t-195.5 -66.5q-52 0 -101 12t-81.5 28.5t-57 33.5t-35.5 29l-12 12l132 143q9 -9 23.5 -21.5t57 -33.5t79.5 -21q15 0 24.5 7t9.5 17q0 16 -23 33.5t-95 47.5q-164 71 -164 214q0 97 72.5 158t190.5 61q45 0 88 -10.5
t72 -25t52 -29t34 -25.5l11 -10l-132 -141q-6 7 -17.5 16.5t-43.5 26t-62 16.5q-33 0 -33 -22q0 -14 16.5 -25t79.5 -40z" />
    <glyph glyph-name="T" unicode="T" horiz-adv-x="590" 
d="M585 501h-176v-501h-226v501h-178v199h580v-199z" />
    <glyph glyph-name="U" unicode="U" horiz-adv-x="740" 
d="M466 700h224v-404q0 -139 -88.5 -222.5t-233.5 -83.5q-148 0 -233 80t-85 219v411h231v-402q0 -46 24 -73t68 -27t68.5 27t24.5 73v402z" />
    <glyph glyph-name="V" unicode="V" horiz-adv-x="730" 
d="M251 0l-261 700h258l123 -403l123 403h246l-263 -700h-226z" />
    <glyph glyph-name="W" unicode="W" horiz-adv-x="1025" 
d="M222 0l-232 700h250l101 -354l95 354h163l97 -354l99 354h240l-234 -700h-195l-94 324l-90 -324h-200z" />
    <glyph glyph-name="X" unicode="X" horiz-adv-x="760" 
d="M497 0l-125 186l-121 -186h-261l257 354l-250 346h278l112 -173l113 173h263l-251 -344l258 -356h-273z" />
    <glyph glyph-name="Y" unicode="Y" horiz-adv-x="710" 
d="M241 0v240l-251 460h261l110 -241l108 241h251l-253 -460v-240h-226z" />
    <glyph glyph-name="Z" unicode="Z" horiz-adv-x="700" 
d="M660 0h-620v169l315 340h-295v191h600v-167l-315 -340h315v-193z" />
    <glyph glyph-name="bracketleft" unicode="[" horiz-adv-x="435" 
d="M410 -80h-350v860h350v-179h-141v-504h141v-177z" />
    <glyph glyph-name="backslash" unicode="\" horiz-adv-x="589" 
d="M179 780l410 -860h-179l-410 860h179z" />
    <glyph glyph-name="bracketright" unicode="]" horiz-adv-x="435" 
d="M375 -80h-350v177h141v504h-141v179h350v-860z" />
    <glyph glyph-name="asciicircum" unicode="^" horiz-adv-x="610" 
d="M376 320l-71 196l-68 -196h-202l185 380h169l186 -380h-199z" />
    <glyph glyph-name="underscore" unicode="_" horiz-adv-x="600" 
d="M600 -182h-600v132h600v-132z" />
    <glyph glyph-name="grave" unicode="`" horiz-adv-x="370" 
d="M275 740l55 -174h-166l-114 174h225z" />
    <glyph glyph-name="a" unicode="a" horiz-adv-x="580" 
d="M220 311q59 0 100 -17v2q0 24 -24 40.5t-60 16.5q-27 0 -54 -7t-40 -14l-14 -7l-83 137q10 8 29 19.5t81.5 31t129.5 19.5q114 0 182 -64.5t68 -175.5v-292h-169l-13 32q-59 -42 -142 -42q-91 0 -143.5 42.5t-52.5 114.5t57 118t148 46zM230 156q0 -17 13 -28t34 -11
t34.5 11t13.5 28t-13.5 28t-34.5 11t-34 -11t-13 -28z" />
    <glyph glyph-name="b" unicode="b" horiz-adv-x="643" 
d="M40 0v700h215v-206q50 38 115 38q103 0 175.5 -76t72.5 -191q0 -117 -74 -196t-181 -79q-75 0 -129 52l-13 -42h-181zM250 261q0 -33 21.5 -54.5t54.5 -21.5t55 21.5t22 54.5t-22 55t-55 22t-54.5 -22t-21.5 -55z" />
    <glyph glyph-name="c" unicode="c" horiz-adv-x="526" 
d="M381 222l145 -136q-3 -4 -8.5 -10.5t-25.5 -23t-43 -29t-60 -23t-77 -10.5q-125 0 -206 76.5t-81 191.5t84.5 194.5t209.5 79.5q62 0 113.5 -22t71.5 -44l21 -21l-146 -142q-20 32 -65 32q-32 0 -53 -21t-21 -53t21 -53t53 -21q22 0 38.5 8.5t22.5 17.5z" />
    <glyph glyph-name="d" unicode="d" horiz-adv-x="643" 
d="M603 700v-700h-181l-14 49q-59 -59 -135 -59q-103 0 -175.5 76t-72.5 191q0 117 74 196t181 79q61 0 108 -31v199h215zM393 261q0 33 -21.5 55t-54.5 22t-55 -22t-22 -55t22 -54.5t55 -21.5t54.5 21.5t21.5 54.5z" />
    <glyph glyph-name="e" unicode="e" horiz-adv-x="608" 
d="M569 218h-329q9 -20 33.5 -34.5t57.5 -14.5q27 0 51 9t34 18l11 9l121 -127q-3 -4 -8.5 -9.5t-26.5 -21t-46 -27t-66.5 -21t-88.5 -9.5q-125 0 -206 77t-81 193q0 115 83.5 193.5t207.5 78.5q112 0 189.5 -70t77.5 -167q0 -22 -3.5 -41t-7.5 -28zM311 384
q-28 0 -46.5 -17.5t-21.5 -42.5h135q-2 25 -20.5 42.5t-46.5 17.5z" />
    <glyph glyph-name="f" unicode="f" horiz-adv-x="455" 
d="M320 502v-10h115v-167h-115v-325h-215v325h-85v167h85v29q0 88 50.5 138.5t139.5 50.5q44 0 81.5 -6t53.5 -12l15 -5l-23 -154q-22 8 -55 8q-23 0 -35 -11t-12 -28z" />
    <glyph glyph-name="g" unicode="g" horiz-adv-x="643" 
d="M20 -87l80 151q9 -6 25.5 -15.5t63 -25t89.5 -15.5q110 0 110 72v4q-42 -29 -112 -29q-106 0 -178.5 68.5t-72.5 165.5q0 106 70.5 174.5t185.5 68.5q38 0 73 -13t55 -31l13 34h181v-385q0 -140 -81 -223.5t-224 -83.5q-77 0 -146.5 21t-100.5 41zM240 288
q0 -30 21.5 -49t54.5 -19t55 19t22 49t-22 49.5t-55 19.5t-54.5 -19t-21.5 -50z" />
    <glyph glyph-name="h" unicode="h" horiz-adv-x="615" 
d="M40 0v700h215v-226q55 58 134 58q84 0 137.5 -52.5t53.5 -139.5v-340h-215v275q0 60 -53 60q-27 0 -42 -15.5t-15 -44.5v-275h-215z" />
    <glyph glyph-name="i" unicode="i" horiz-adv-x="307" 
d="M45 0v522h217v-522h-217zM24 660q0 50 37 83t92 33t92.5 -33t37.5 -83q0 -49 -37 -82t-93 -33t-92.5 33t-36.5 82z" />
    <glyph glyph-name="j" unicode="j" horiz-adv-x="307" 
d="M45 522h217v-440q0 -124 -59 -188t-173 -64q-19 0 -41.5 2t-34.5 4l-13 2l22 178q15 -3 33 -3q49 0 49 53v456zM24 660q0 50 37 83t92 33t92.5 -33t37.5 -83q0 -49 -37 -82t-93 -33t-92.5 33t-36.5 82z" />
    <glyph glyph-name="k" unicode="k" horiz-adv-x="656" 
d="M60 0v700h215v-399l122 221h244l-159 -234l179 -288h-249l-137 249v-249h-215z" />
    <glyph glyph-name="l" unicode="l" horiz-adv-x="307" 
d="M45 0v700h217v-700h-217z" />
    <glyph glyph-name="m" unicode="m" horiz-adv-x="920" 
d="M40 0v522h193l6 -60q54 70 145 70q110 0 162 -84q24 38 65 61t88 23q82 0 134 -53t52 -139v-340h-215v280q0 55 -48 55q-24 0 -38 -14.5t-14 -40.5v-280h-215v280q0 55 -48 55q-24 0 -38 -14.5t-14 -40.5v-280h-215z" />
    <glyph glyph-name="n" unicode="n" horiz-adv-x="615" 
d="M255 275v-275h-215v522h193l7 -59q56 69 149 69q84 0 137.5 -52.5t53.5 -139.5v-340h-215v275q0 60 -53 60q-27 0 -42 -15.5t-15 -44.5z" />
    <glyph glyph-name="o" unicode="o" horiz-adv-x="631" 
d="M319 532q125 0 206 -76t81 -191t-84.5 -195t-209.5 -80t-206 76.5t-81 191.5t84.5 194.5t209.5 79.5zM239 261q0 -33 21.5 -54.5t54.5 -21.5t55 21.5t22 54.5t-22 55t-55 22t-54.5 -22t-21.5 -55z" />
    <glyph glyph-name="p" unicode="p" horiz-adv-x="643" 
d="M40 -160v682h181l14 -49q57 59 135 59q103 0 175.5 -76t72.5 -191q0 -117 -74 -196t-181 -79q-61 0 -108 28v-178h-215zM250 261q0 -33 21.5 -54.5t54.5 -21.5t55 21.5t22 54.5t-22 55t-55 22t-54.5 -22t-21.5 -55z" />
    <glyph glyph-name="q" unicode="q" horiz-adv-x="643" 
d="M603 522v-682h-215v185q-54 -35 -115 -35q-103 0 -175.5 76t-72.5 191q0 117 74 196t181 79q72 0 126 -52l16 42h181zM393 261q0 33 -21.5 55t-54.5 22t-55 -22t-22 -55t22 -54.5t55 -21.5t54.5 21.5t21.5 54.5z" />
    <glyph glyph-name="r" unicode="r" horiz-adv-x="440" 
d="M40 0v522h191l10 -84q53 94 174 94l-2 -220h-46q-57 0 -84.5 -25.5t-27.5 -85.5v-201h-215z" />
    <glyph glyph-name="s" unicode="s" horiz-adv-x="493" 
d="M314 331q72 -26 113 -69.5t41 -96.5q0 -81 -60 -128t-167 -47q-65 0 -124 21.5t-85 42.5l-27 21l85 124q9 -7 23.5 -17t53 -26.5t69.5 -16.5q19 0 19 12q0 15 -81 45q-141 52 -141 169q0 70 58.5 118.5t159.5 48.5q56 0 111 -19t82 -37l26 -19l-82 -127q-70 53 -128 53
q-19 0 -19 -11q0 -15 73 -41z" />
    <glyph glyph-name="t" unicode="t" horiz-adv-x="470" 
d="M320 640v-118h120v-167h-120v-133q0 -35 34 -35q14 0 29.5 1.5t24.5 3.5l9 2l23 -178q-67 -26 -152 -26t-134 43.5t-49 122.5v199h-85v167h85v118h215z" />
    <glyph glyph-name="u" unicode="u" horiz-adv-x="615" 
d="M360 247v275h215v-522h-193l-7 59q-56 -69 -149 -69q-84 0 -137.5 52.5t-53.5 139.5v340h215v-275q0 -60 53 -60q27 0 42 15.5t15 44.5z" />
    <glyph glyph-name="v" unicode="v" horiz-adv-x="566" 
d="M179 0l-194 522h239l67 -247l65 247h225l-194 -522h-208z" />
    <glyph glyph-name="w" unicode="w" horiz-adv-x="815" 
d="M151 0l-166 522h231l57 -245l60 245h161l56 -239l58 239h222l-166 -522h-203l-53 204l-54 -204h-203z" />
    <glyph glyph-name="x" unicode="x" horiz-adv-x="611" 
d="M616 522l-182 -251l192 -271h-249l-75 123l-80 -123h-237l192 264l-182 258h249l65 -111l70 111h237z" />
    <glyph glyph-name="y" unicode="y" horiz-adv-x="566" 
d="M171 22l-186 500h239l67 -270l65 270h225l-193 -527q-31 -86 -85.5 -125.5t-141.5 -39.5q-46 0 -90 11.5t-65 22.5l-21 12l63 167q46 -25 98 -25z" />
    <glyph glyph-name="z" unicode="z" horiz-adv-x="555" 
d="M30 156l203 191h-188v175h480v-154l-201 -188h201v-180h-495v156z" />
    <glyph glyph-name="braceleft" unicode="{" horiz-adv-x="475" 
d="M329 220v-89q0 -40 40 -40h81v-171h-136q-101 0 -147.5 46t-46.5 146v127q0 15 -8 24.5t-23 9.5h-64v154h64q31 0 31 31v128q0 101 46.5 147.5t147.5 46.5h136v-174h-81q-40 0 -40 -40v-88q0 -125 -100 -128q100 -6 100 -130z" />
    <glyph glyph-name="bar" unicode="|" horiz-adv-x="345" 
d="M90 -100v900h165v-900h-165z" />
    <glyph glyph-name="braceright" unicode="}" horiz-adv-x="475" 
d="M146 480v89q0 40 -40 40h-81v171h136q101 0 147.5 -46t46.5 -146v-127q0 -15 8 -24.5t23 -9.5h64v-154h-64q-31 0 -31 -31v-128q0 -101 -46.5 -147.5t-147.5 -46.5h-136v174h81q40 0 40 40v88q0 125 100 128q-100 6 -100 130z" />
    <glyph glyph-name="asciitilde" unicode="~" 
d="M194 210l-154 19q0 5 0.5 13.5t4 33t9.5 46.5t19 49t30.5 46.5t46 33t63.5 13.5q36 0 66 -13t47 -28t36 -28t35 -13q15 0 23.5 17.5t9.5 34.5l1 18l154 -19q0 -5 -0.5 -13.5t-4 -33t-9.5 -46.5t-19 -49t-30.5 -46.5t-46 -33t-63.5 -13.5q-36 0 -66 13t-47 28t-36 28
t-35 13q-15 0 -23.5 -17.5t-9.5 -34.5z" />
    <glyph glyph-name="exclamdown" unicode="&#xa1;" horiz-adv-x="359" 
d="M179 454q-53 0 -90.5 37.5t-37.5 91.5t37.5 90.5t90.5 36.5q55 0 92 -36t37 -91q0 -54 -37 -91.5t-92 -37.5zM263 429l47 -429h-261l47 429h167z" />
    <glyph glyph-name="cent" unicode="&#xa2;" horiz-adv-x="561" 
d="M391 399l145 -136q-6 -8 -18 -20.5t-53 -37t-87 -33.5v-97h-116v97q-102 18 -164.5 90.5t-62.5 172.5q0 99 63 172.5t164 94.5v98h116v-95q47 -7 86.5 -28t55.5 -38l15 -17l-146 -142q-20 32 -65 32q-32 0 -53 -21t-21 -53t21 -53t53 -21q22 0 38.5 9t22.5 17z" />
    <glyph glyph-name="sterling" unicode="&#xa3;" horiz-adv-x="614" 
d="M575 0h-475v281h-75v115h75v53q0 122 76 191.5t189 69.5q44 0 83 -12.5t63.5 -30t43 -34.5t26.5 -29l8 -13l-167 -113q-1 4 -4.5 10t-17.5 15.5t-33 9.5q-24 0 -38 -15t-14 -39v-63h175v-115h-175v-96h260v-185z" />
    <glyph glyph-name="currency" unicode="&#xa4;" horiz-adv-x="684" 
d="M341 277q32 0 53 20.5t21 52.5t-21 52.5t-53 20.5t-52 -20.5t-20 -52.5t20 -52.5t52 -20.5zM132 484l-97 94l77 77l99 -96q69 36 134 36q64 0 127 -34l100 94l77 -77l-96 -90q42 -62 42 -134q0 -70 -43 -139l97 -93l-77 -77l-101 98q-56 -38 -132 -38q-75 0 -130 34
l-97 -94l-77 77l96 91q-42 59 -42 135q0 75 43 136z" />
    <glyph glyph-name="yen" unicode="&#xa5;" horiz-adv-x="670" 
d="M220 0v172h-195v104h195v15l-14 31h-181v104h123l-143 274h266l70 -208l75 208h249l-143 -274h123v-104h-181l-14 -31v-15h195v-104h-195v-172h-230z" />
    <glyph glyph-name="brokenbar" unicode="&#xa6;" horiz-adv-x="345" 
d="M255 800v-355h-165v355h165zM90 -100v355h165v-355h-165z" />
    <glyph glyph-name="section" unicode="&#xa7;" horiz-adv-x="670" 
d="M635 267q0 -95 -99 -148q18 -45 18 -91q0 -90 -68 -144t-176 -54q-42 0 -80.5 10.5t-64 25t-44.5 29t-28 25.5l-9 10l121 122q46 -50 93 -50q27 0 27 18q0 23 -86 53q-112 40 -158 89t-46 111q0 96 98 148q-18 45 -18 91q0 90 68 144t176 54q42 0 80.5 -10.5t64 -25
t44.5 -29t28 -25.5l9 -10l-121 -122q-46 50 -93 50q-27 0 -27 -18q0 -23 86 -53q112 -40 158.5 -89t46.5 -111zM420 213q7 7 7 19q0 19 -27 37t-99 39q-29 8 -49 20q-7 -6 -7 -19q0 -40 126 -76q28 -7 49 -20z" />
    <glyph glyph-name="dieresis" unicode="&#xa8;" horiz-adv-x="510" 
d="M133 768q45 0 74.5 -29.5t29.5 -74.5t-30 -75t-75 -30t-74.5 29.5t-29.5 74.5t30 75t75 30zM376 768q45 0 74.5 -29.5t29.5 -74.5t-30 -75t-75 -30t-74.5 29.5t-29.5 74.5t30 75t75 30z" />
    <glyph glyph-name="copyright" unicode="&#xa9;" horiz-adv-x="826" 
d="M492 303l87 -79q-6 -8 -17 -20t-52.5 -32t-91.5 -20q-87 0 -142.5 56t-55.5 140t57 142t144 58q48 0 86.5 -17t53.5 -33l15 -17l-87 -80q-19 30 -64 30q-35 0 -57 -23.5t-22 -57.5q0 -35 22 -58t57 -23q20 0 36.5 8.5t23.5 16.5zM415 710q154 0 257.5 -103t103.5 -255
t-105.5 -257t-259.5 -105t-257.5 103t-103.5 255t105.5 257t259.5 105zM413 93q106 0 179.5 74.5t73.5 182.5q0 107 -73.5 181t-179.5 74t-179.5 -74t-73.5 -181q0 -108 73.5 -182.5t179.5 -74.5z" />
    <glyph glyph-name="ordfeminine" unicode="&#xaa;" horiz-adv-x="396" 
d="M165 569q31 0 54 -9v6q0 36 -41 36q-18 0 -35.5 -5t-26.5 -9l-9 -5l-48 78q6 5 18 12t50 19t78 12q69 0 110 -38t41 -104v-176h-101l-11 19q-37 -25 -84 -25q-57 0 -88.5 25t-31.5 67q0 44 33.5 70.5t91.5 26.5zM50 269v77h306v-77h-306zM168 480q0 -12 8 -18.5t20 -6.5
t20 6.5t8 18.5t-8 18.5t-20 6.5t-20 -6.5t-8 -18.5z" />
    <glyph glyph-name="guillemotleft" unicode="&#xab;" horiz-adv-x="803" 
d="M718 500l-123 -148l123 -145l-111 -118l-233 226v70l233 229zM394 500l-123 -148l123 -145l-111 -118l-233 226v70l233 229z" />
    <glyph glyph-name="logicalnot" unicode="&#xac;" 
d="M395 160v141h-345v165h525v-306h-180z" />
    <glyph glyph-name="registered" unicode="&#xae;" horiz-adv-x="536" 
d="M274 545h-28v-45h28q25 0 25 22q0 23 -25 23zM269 710q92 0 154.5 -62t62.5 -153t-63.5 -154t-155.5 -63t-154.5 62t-62.5 153t63.5 154t155.5 63zM268 335q63 0 109 46.5t46 112.5q0 65 -46 110.5t-109 45.5q-64 0 -109.5 -45.5t-45.5 -110.5q0 -66 45.5 -112.5
t109.5 -46.5zM185 389v210h98q35 0 57 -20t22 -52q0 -47 -37 -64l46 -74h-72l-37 63h-16v-63h-61z" />
    <glyph glyph-name="macron" unicode="&#xaf;" horiz-adv-x="460" 
d="M50 600v120h360v-120h-360z" />
    <glyph glyph-name="degree" unicode="&#xb0;" horiz-adv-x="459" 
d="M231 448q30 0 50.5 21t20.5 54t-20.5 54t-50.5 21q-31 0 -51.5 -21t-20.5 -54t20.5 -54t51.5 -21zM232 710q80 0 133.5 -53.5t53.5 -133.5q0 -78 -55 -132.5t-134 -54.5q-80 0 -135 53.5t-55 131.5q0 80 56 134.5t136 54.5z" />
    <glyph glyph-name="plusminus" unicode="&#xb1;" 
d="M400 689v-151h175v-168h-175v-156h-173v156h-177v168h177v151h173zM575 14h-525v168h525v-168z" />
    <glyph glyph-name="twosuperior" unicode="&#xb2;" horiz-adv-x="356" 
d="M33 387l126 116q39 36 39 58q0 10 -7.5 17t-20.5 7q-14 0 -27 -10t-19 -20l-6 -10l-98 65q2 4 5 10.5t16.5 23t30.5 29t47 23t66 10.5q69 0 110 -38t41 -94q0 -43 -20.5 -76t-66.5 -68l-43 -32h127v-118h-300v107z" />
    <glyph glyph-name="threesuperior" unicode="&#xb3;" horiz-adv-x="364" 
d="M123 537h42q16 0 24.5 8t8.5 19q0 12 -8.5 19.5t-20.5 7.5t-21.5 -6.5t-13.5 -13.5l-3 -7l-96 50l5 10t15.5 22t28 28t43 22t58.5 10q64 0 105.5 -31.5t41.5 -85.5q0 -56 -52 -90q64 -34 64 -98q0 -60 -44.5 -93.5t-120.5 -33.5q-33 0 -62 10t-46 25t-29 29.5t-17 24.5
l-5 10l99 54q2 -4 6 -10.5t18.5 -17t32.5 -10.5q16 0 25 8.5t9 19.5q0 30 -41 30h-46v90z" />
    <glyph glyph-name="acute" unicode="&#xb4;" horiz-adv-x="370" 
d="M40 566l55 174h225q-19 -29 -57.5 -87t-56.5 -87h-166z" />
    <glyph glyph-name="mu" unicode="&#xb5;" horiz-adv-x="620" 
d="M40 -160v682h215v-275q0 -60 53 -60q27 0 42 15.5t15 44.5v275h215v-522h-188l-12 62q-48 -72 -113 -72l-12 1v-151h-215z" />
    <glyph glyph-name="mu" unicode="&#x3bc;" horiz-adv-x="620" 
d="M40 -160v682h215v-275q0 -60 53 -60q27 0 42 15.5t15 44.5v275h215v-522h-188l-12 62q-48 -72 -113 -72l-12 1v-151h-215z" />
    <glyph glyph-name="paragraph" unicode="&#xb6;" horiz-adv-x="843" 
d="M308 0v240h-25q-111 0 -182 63t-71 164q0 99 75 166t185 67h473v-700h-190v526h-75v-526h-190z" />
    <glyph glyph-name="periodcentered" unicode="&#xb7;" horiz-adv-x="356" 
d="M179 473q53 0 90 -36.5t37 -90.5t-37 -89.5t-90 -35.5q-55 0 -92 35.5t-37 89.5t37 90.5t92 36.5z" />
    <glyph glyph-name="cedilla" unicode="&#xb8;" horiz-adv-x="355" 
d="M169 0l58 84q4 -1 10.5 -3.5t22.5 -13t28.5 -23t23 -35.5t10.5 -49q0 -70 -52.5 -112.5t-121.5 -42.5q-28 0 -54.5 6.5t-39.5 12.5l-12 6l40 120q15 -10 42 -10q21 0 35.5 10.5t14.5 31.5q0 6 -1 10.5t-3 5.5z" />
    <glyph glyph-name="onesuperior" unicode="&#xb9;" horiz-adv-x="323" 
d="M10 589l157 111h116v-420h-138v261l-69 -41z" />
    <glyph glyph-name="ordmasculine" unicode="&#xba;" horiz-adv-x="434" 
d="M219 704q77 0 126 -45.5t49 -114.5t-50.5 -116.5t-128.5 -47.5q-75 0 -125 46t-50 114q0 69 51.5 116.5t127.5 47.5zM50 269v77h334v-77h-334zM179 543q0 -17 11 -28t28 -11t28.5 11t11.5 28t-11.5 28.5t-28.5 11.5t-28 -11.5t-11 -28.5z" />
    <glyph glyph-name="guillemotright" unicode="&#xbb;" horiz-adv-x="803" 
d="M409 200l123 148l-123 145l111 118l233 -226v-70l-233 -229zM85 200l123 148l-123 145l111 118l233 -226v-70l-233 -229z" />
    <glyph glyph-name="onequarter" unicode="&#xbc;" horiz-adv-x="848" 
d="M130 0l478 700h132l-473 -700h-137zM10 589l157 111h116v-420h-138v261l-69 -41zM576 179h68v97zM465 187l167 233h138v-241h58v-104h-58v-75h-126v75h-179v112z" />
    <glyph glyph-name="onehalf" unicode="&#xbd;" horiz-adv-x="890" 
d="M130 0l478 700h132l-473 -700h-137zM10 589l157 111h116v-420h-138v261l-69 -41zM547 107l126 116q39 36 39 58q0 10 -7.5 17t-20.5 7q-14 0 -27 -10t-19 -20l-6 -10l-98 65q2 4 5 10.5t16.5 23t30.5 29t47 23t66 10.5q69 0 110 -38t41 -94q0 -43 -20.5 -76t-66.5 -68
l-43 -32h127v-118h-300v107z" />
    <glyph glyph-name="threequarters" unicode="&#xbe;" horiz-adv-x="868" 
d="M150 0l478 700h132l-473 -700h-137zM596 179h68v97zM485 187l167 233h138v-241h58v-104h-58v-75h-126v75h-179v112zM123 537h42q16 0 24.5 8t8.5 19q0 12 -8.5 19.5t-20.5 7.5t-21.5 -6.5t-13.5 -13.5l-3 -7l-96 50l5 10t15.5 22t28 28t43 22t58.5 10q64 0 105.5 -31.5
t41.5 -85.5q0 -56 -52 -90q64 -34 64 -98q0 -60 -44.5 -93.5t-120.5 -33.5q-33 0 -62 10t-46 25t-29 29.5t-17 24.5l-5 10l99 54q2 -4 6 -10.5t18.5 -17t32.5 -10.5q16 0 25 8.5t9 19.5q0 30 -41 30h-46v90z" />
    <glyph glyph-name="questiondown" unicode="&#xbf;" horiz-adv-x="540" 
d="M254 226q0 -14 9.5 -24t26.5 -10q23 0 41 15t25 29l6 15l160 -101q-2 -7 -6.5 -17.5t-23.5 -38t-45 -48.5t-74 -38.5t-106 -17.5q-98 0 -167.5 59.5t-69.5 140.5q0 40 13 72t33.5 53t41.5 38t40 36.5t27 39.5h190q0 -41 -19 -75t-41.5 -51.5t-41.5 -38t-19 -38.5z
M283 454q-53 0 -90 37.5t-37 91.5t37 90.5t90 36.5q55 0 92 -36t37 -91q0 -54 -37 -91.5t-92 -37.5z" />
    <glyph glyph-name="Agrave" unicode="&#xc0;" horiz-adv-x="740" 
d="M364 439l-53 -172h105zM482 700l268 -700h-252l-29 96h-212l-29 -96h-238l266 700h226zM395 920l55 -174h-166l-114 174h225z" />
    <glyph glyph-name="Aacute" unicode="&#xc1;" horiz-adv-x="740" 
d="M364 439l-53 -172h105zM482 700l268 -700h-252l-29 96h-212l-29 -96h-238l266 700h226zM290 746l55 174h225q-18 -29 -56.5 -87t-57.5 -87h-166z" />
    <glyph glyph-name="Acircumflex" unicode="&#xc2;" horiz-adv-x="740" 
d="M364 439l-53 -172h105zM482 700l268 -700h-252l-29 96h-212l-29 -96h-238l266 700h226zM145 746l130 174h190l130 -174h-184l-46 52l-48 -52h-172z" />
    <glyph glyph-name="Atilde" unicode="&#xc3;" horiz-adv-x="740" 
d="M364 439l-53 -172h105zM482 700l268 -700h-252l-29 96h-212l-29 -96h-238l266 700h226zM278 755l-96 12q0 6 1 17t8 38t18.5 48t36 38t56.5 17t56.5 -13.5t41.5 -27t32 -13.5q10 0 17 11t9 22l1 11l96 -12q0 -6 -1 -17t-8 -38t-18.5 -48t-36 -38t-56.5 -17t-56.5 13.5
t-41.5 27t-32 13.5q-10 0 -17 -11t-8 -22z" />
    <glyph glyph-name="Adieresis" unicode="&#xc4;" horiz-adv-x="740" 
d="M364 439l-53 -172h105zM482 700l268 -700h-252l-29 96h-212l-29 -96h-238l266 700h226zM248 948q45 0 74.5 -29.5t29.5 -74.5t-30 -75t-75 -30t-74.5 29.5t-29.5 74.5t30 75t75 30zM491 948q45 0 74.5 -29.5t29.5 -74.5t-30 -75t-75 -30t-74.5 29.5t-29.5 74.5t30 75
t75 30z" />
    <glyph glyph-name="Aring" unicode="&#xc5;" horiz-adv-x="740" 
d="M364 439l-53 -172h105zM482 700l268 -700h-252l-29 96h-212l-29 -96h-238l266 700h226zM370 947q50 0 81.5 -30t31.5 -76q0 -47 -31.5 -77.5t-81.5 -30.5t-81 30.5t-31 77.5q0 46 31 76t81 30zM370 804q17 0 27 10t10 25t-10 25.5t-27 10.5t-26.5 -10.5t-9.5 -25.5
t9.5 -25t26.5 -10z" />
    <glyph glyph-name="AE" unicode="&#xc6;" horiz-adv-x="1075" 
d="M364 267h121v247zM1030 503h-316v-67h266v-166h-266v-73h326v-197h-555v96h-205l-48 -96h-252l385 700h665v-197z" />
    <glyph glyph-name="Ccedilla" unicode="&#xc7;" horiz-adv-x="701" 
d="M35 345q0 153 108 259t268 106q41 0 78.5 -6.5t65 -17t50.5 -23.5t38.5 -25.5t26.5 -23t16 -16.5l4 -7l-166 -146q-4 6 -12 14.5t-37.5 22.5t-65.5 14q-65 0 -105 -41t-40 -106t40 -106.5t105 -41.5q24 0 46 6.5t36 16t24.5 18.5t14.5 16l5 6l161 -139q-3 -4 -8 -11
t-24.5 -26t-42 -35t-61 -32.5t-81.5 -23.5q6 -16 6 -37q0 -70 -52.5 -112.5t-121.5 -42.5q-28 0 -54.5 6.5t-38.5 12.5l-13 6l40 120q15 -10 42 -10q21 0 35.5 10.5t14.5 31.5q0 5 -3 14q-134 21 -216.5 117.5t-82.5 231.5z" />
    <glyph glyph-name="Egrave" unicode="&#xc8;" horiz-adv-x="650" 
d="M615 0h-555v700h545v-197h-316v-67h266v-166h-266v-73h326v-197zM375 920l55 -174h-166l-114 174h225z" />
    <glyph glyph-name="Eacute" unicode="&#xc9;" horiz-adv-x="650" 
d="M615 0h-555v700h545v-197h-316v-67h266v-166h-266v-73h326v-197zM250 746l55 174h225q-18 -29 -56.5 -87t-57.5 -87h-166z" />
    <glyph glyph-name="Ecircumflex" unicode="&#xca;" horiz-adv-x="650" 
d="M615 0h-555v700h545v-197h-316v-67h266v-166h-266v-73h326v-197zM105 746l130 174h190l130 -174h-184l-46 52l-48 -52h-172z" />
    <glyph glyph-name="Edieresis" unicode="&#xcb;" horiz-adv-x="650" 
d="M615 0h-555v700h545v-197h-316v-67h266v-166h-266v-73h326v-197zM208 948q45 0 74.5 -29.5t29.5 -74.5t-30 -75t-75 -30t-74.5 29.5t-29.5 74.5t30 75t75 30zM451 948q45 0 74.5 -29.5t29.5 -74.5t-30 -75t-75 -30t-74.5 29.5t-29.5 74.5t30 75t75 30z" />
    <glyph glyph-name="Igrave" unicode="&#xcc;" horiz-adv-x="363" 
d="M65 0v700h233v-700h-233zM210 920l55 -174h-166l-114 174h225z" />
    <glyph glyph-name="Iacute" unicode="&#xcd;" horiz-adv-x="363" 
d="M65 0v700h233v-700h-233zM98 746l55 174h225q-18 -29 -57 -87t-57 -87h-166z" />
    <glyph glyph-name="Icircumflex" unicode="&#xce;" horiz-adv-x="363" 
d="M65 0v700h233v-700h-233zM-44 746l130 174h190l130 -174h-184l-46 52l-48 -52h-172z" />
    <glyph glyph-name="Idieresis" unicode="&#xcf;" horiz-adv-x="363" 
d="M65 0v700h233v-700h-233zM60 948q45 0 74.5 -29.5t29.5 -74.5t-30 -75t-75 -30t-74.5 29.5t-29.5 74.5t30 75t75 30zM303 948q45 0 74.5 -29.5t29.5 -74.5t-30 -75t-75 -30t-74.5 29.5t-29.5 74.5t30 75t75 30z" />
    <glyph glyph-name="Eth" unicode="&#xd0;" horiz-adv-x="801" 
d="M440 295h-110v-98h50q70 0 115 42.5t45 110.5t-45 110.5t-115 42.5h-50v-93h110v-115zM101 0v295h-71v115h71v290h276q168 0 278.5 -99t110.5 -249q0 -149 -114 -250.5t-282 -101.5h-269z" />
    <glyph glyph-name="Ntilde" unicode="&#xd1;" horiz-adv-x="790" 
d="M507 0l-226 358v-358h-221v700h234l213 -340v340h223v-700h-223zM303 755l-96 12q0 6 1 17t8 38t18.5 48t36 38t56.5 17t56.5 -13.5t41.5 -27t32 -13.5q10 0 17 11t8 22l2 11l96 -12q0 -6 -1 -17t-8 -38t-18.5 -48t-36 -38t-56.5 -17t-56.5 13.5t-41.5 27t-32 13.5
q-10 0 -17 -11t-9 -22z" />
    <glyph glyph-name="Ograve" unicode="&#xd2;" horiz-adv-x="815" 
d="M411 710q159 0 264 -102.5t105 -254.5t-108.5 -257.5t-267.5 -105.5q-160 0 -264.5 102t-104.5 254q0 153 108 258.5t268 105.5zM262 350q0 -63 42 -106.5t103 -43.5t103 43.5t42 106.5t-42 106.5t-103 43.5t-103 -43.5t-42 -106.5zM436 920l55 -174h-166l-114 174h225z
" />
    <glyph glyph-name="Oacute" unicode="&#xd3;" horiz-adv-x="815" 
d="M411 710q159 0 264 -102.5t105 -254.5t-108.5 -257.5t-267.5 -105.5q-160 0 -264.5 102t-104.5 254q0 153 108 258.5t268 105.5zM262 350q0 -63 42 -106.5t103 -43.5t103 43.5t42 106.5t-42 106.5t-103 43.5t-103 -43.5t-42 -106.5zM321 746l55 174h225
q-18 -29 -56.5 -87t-57.5 -87h-166z" />
    <glyph glyph-name="Ocircumflex" unicode="&#xd4;" horiz-adv-x="815" 
d="M411 710q159 0 264 -102.5t105 -254.5t-108.5 -257.5t-267.5 -105.5q-160 0 -264.5 102t-104.5 254q0 153 108 258.5t268 105.5zM262 350q0 -63 42 -106.5t103 -43.5t103 43.5t42 106.5t-42 106.5t-103 43.5t-103 -43.5t-42 -106.5zM181 746l130 174h190l130 -174h-184
l-46 52l-48 -52h-172z" />
    <glyph glyph-name="Otilde" unicode="&#xd5;" horiz-adv-x="815" 
d="M411 710q159 0 264 -102.5t105 -254.5t-108.5 -257.5t-267.5 -105.5q-160 0 -264.5 102t-104.5 254q0 153 108 258.5t268 105.5zM262 350q0 -63 42 -106.5t103 -43.5t103 43.5t42 106.5t-42 106.5t-103 43.5t-103 -43.5t-42 -106.5zM317 755l-96 12q0 6 1 17t8 38
t18.5 48t36 38t56.5 17t56.5 -13.5t41.5 -27t32 -13.5q10 0 17 11t8 22l2 11l96 -12q0 -6 -1 -17t-8 -38t-18.5 -48t-36 -38t-56.5 -17t-56.5 13.5t-41.5 27t-32 13.5q-10 0 -17 -11t-9 -22z" />
    <glyph glyph-name="Odieresis" unicode="&#xd6;" horiz-adv-x="815" 
d="M411 710q159 0 264 -102.5t105 -254.5t-108.5 -257.5t-267.5 -105.5q-160 0 -264.5 102t-104.5 254q0 153 108 258.5t268 105.5zM262 350q0 -63 42 -106.5t103 -43.5t103 43.5t42 106.5t-42 106.5t-103 43.5t-103 -43.5t-42 -106.5zM286 948q45 0 74.5 -29.5t29.5 -74.5
t-30 -75t-75 -30t-74.5 29.5t-29.5 74.5t30 75t75 30zM529 948q45 0 74.5 -29.5t29.5 -74.5t-30 -75t-75 -30t-74.5 29.5t-29.5 74.5t30 75t75 30z" />
    <glyph glyph-name="multiply" unicode="&#xd7;" 
d="M470 77l-159 156l-154 -156l-119 117l158 153l-158 156l119 119l154 -158l159 158l117 -119l-159 -156l159 -153z" />
    <glyph glyph-name="Oslash" unicode="&#xd8;" horiz-adv-x="815" 
d="M411 710q102 0 187 -47l56 67h137l-108 -131q97 -100 97 -246q0 -152 -108.5 -257.5t-267.5 -105.5q-103 0 -187 45l-54 -65h-142l109 131q-95 100 -95 245q0 153 108 258.5t268 105.5zM256 350q0 -42 18 -77l185 223q-27 10 -52 10q-64 0 -107.5 -45t-43.5 -111z
M558 350q0 38 -18 76l-185 -223q24 -9 52 -9q64 0 107.5 45t43.5 111z" />
    <glyph glyph-name="Ugrave" unicode="&#xd9;" horiz-adv-x="740" 
d="M466 700h224v-404q0 -139 -88.5 -222.5t-233.5 -83.5q-148 0 -233 80t-85 219v411h231v-402q0 -46 24 -73t68 -27t68.5 27t24.5 73v402zM405 920l55 -174h-166l-114 174h225z" />
    <glyph glyph-name="Uacute" unicode="&#xda;" horiz-adv-x="740" 
d="M466 700h224v-404q0 -139 -88.5 -222.5t-233.5 -83.5q-148 0 -233 80t-85 219v411h231v-402q0 -46 24 -73t68 -27t68.5 27t24.5 73v402zM295 746l55 174h225q-18 -29 -56.5 -87t-57.5 -87h-166z" />
    <glyph glyph-name="Ucircumflex" unicode="&#xdb;" horiz-adv-x="740" 
d="M148 746l130 174h190l130 -174h-184l-46 52l-48 -52h-172zM466 700h224v-404q0 -139 -88.5 -222.5t-233.5 -83.5q-148 0 -233 80t-85 219v411h231v-402q0 -46 24 -73t68 -27t68.5 27t24.5 73v402z" />
    <glyph glyph-name="Udieresis" unicode="&#xdc;" horiz-adv-x="740" 
d="M466 700h224v-404q0 -139 -88.5 -222.5t-233.5 -83.5q-148 0 -233 80t-85 219v411h231v-402q0 -46 24 -73t68 -27t68.5 27t24.5 73v402zM253 948q45 0 74.5 -29.5t29.5 -74.5t-30 -75t-75 -30t-74.5 29.5t-29.5 74.5t30 75t75 30zM496 948q45 0 74.5 -29.5t29.5 -74.5
t-30 -75t-75 -30t-74.5 29.5t-29.5 74.5t30 75t75 30z" />
    <glyph glyph-name="Yacute" unicode="&#xdd;" horiz-adv-x="710" 
d="M241 0v240l-251 460h261l110 -241l108 241h251l-253 -460v-240h-226zM280 746l55 174h225q-18 -29 -56.5 -87t-57.5 -87h-166z" />
    <glyph glyph-name="Thorn" unicode="&#xde;" horiz-adv-x="690" 
d="M289 415v-126h68q72 0 72 63q0 29 -19 46t-53 17h-68zM60 -6v700h229v-94h97q123 0 196 -67.5t73 -178.5t-76.5 -180.5t-199.5 -69.5h-90v-110h-229z" />
    <glyph glyph-name="germandbls" unicode="&#xdf;" 
d="M255 476v-476h-215v476q0 105 73 169.5t191 64.5t189.5 -57t71.5 -148q0 -79 -54 -129q94 -60 94 -166q0 -96 -74 -158t-188 -62q-18 0 -34 1.5t-23 2.5l-6 2l15 176q11 -2 27 -2q32 0 50 16t18 42t-17.5 41t-49.5 15h-28v154h9q21 0 33.5 13.5t12.5 33.5t-12.5 33.5
t-33.5 13.5q-49 0 -49 -56z" />
    <glyph glyph-name="agrave" unicode="&#xe0;" horiz-adv-x="580" 
d="M220 311q59 0 100 -17v2q0 24 -24 40.5t-60 16.5q-27 0 -54 -7t-40 -14l-14 -7l-83 137q10 8 29 19.5t81.5 31t129.5 19.5q114 0 182 -64.5t68 -175.5v-292h-169l-13 32q-59 -42 -142 -42q-91 0 -143.5 42.5t-52.5 114.5t57 118t148 46zM230 156q0 -17 13 -28t34 -11
t34.5 11t13.5 28t-13.5 28t-34.5 11t-34 -11t-13 -28zM336 740l55 -174h-166l-114 174h225z" />
    <glyph glyph-name="aacute" unicode="&#xe1;" horiz-adv-x="580" 
d="M220 311q59 0 100 -17v2q0 24 -24 40.5t-60 16.5q-27 0 -54 -7t-40 -14l-14 -7l-83 137q10 8 29 19.5t81.5 31t129.5 19.5q114 0 182 -64.5t68 -175.5v-292h-169l-13 32q-59 -42 -142 -42q-91 0 -143.5 42.5t-52.5 114.5t57 118t148 46zM230 156q0 -17 13 -28t34 -11
t34.5 11t13.5 28t-13.5 28t-34.5 11t-34 -11t-13 -28zM202 566l55 174h225q-18 -29 -56.5 -87t-57.5 -87h-166z" />
    <glyph glyph-name="acircumflex" unicode="&#xe2;" horiz-adv-x="580" 
d="M220 311q59 0 100 -17v2q0 24 -24 40.5t-60 16.5q-27 0 -54 -7t-40 -14l-14 -7l-83 137q10 8 29 19.5t81.5 31t129.5 19.5q114 0 182 -64.5t68 -175.5v-292h-169l-13 32q-59 -42 -142 -42q-91 0 -143.5 42.5t-52.5 114.5t57 118t148 46zM230 156q0 -17 13 -28t34 -11
t34.5 11t13.5 28t-13.5 28t-34.5 11t-34 -11t-13 -28zM67 566l130 174h190l130 -174h-184l-46 52l-48 -52h-172z" />
    <glyph glyph-name="atilde" unicode="&#xe3;" horiz-adv-x="580" 
d="M220 311q59 0 100 -17v2q0 24 -24 40.5t-60 16.5q-27 0 -54 -7t-40 -14l-14 -7l-83 137q10 8 29 19.5t81.5 31t129.5 19.5q114 0 182 -64.5t68 -175.5v-292h-169l-13 32q-59 -42 -142 -42q-91 0 -143.5 42.5t-52.5 114.5t57 118t148 46zM230 156q0 -17 13 -28t34 -11
t34.5 11t13.5 28t-13.5 28t-34.5 11t-34 -11t-13 -28zM206 575l-96 12q0 6 1 17t8 38t18.5 48t36 38t56.5 17t56.5 -13.5t41.5 -27t32 -13.5q10 0 17 11t9 22l1 11l96 -12q0 -6 -1 -17t-8 -38t-18.5 -48t-36 -38t-56.5 -17t-56.5 13.5t-41.5 27t-32 13.5q-10 0 -17 -11
t-8 -22z" />
    <glyph glyph-name="adieresis" unicode="&#xe4;" horiz-adv-x="580" 
d="M220 311q59 0 100 -17v2q0 24 -24 40.5t-60 16.5q-27 0 -54 -7t-40 -14l-14 -7l-83 137q10 8 29 19.5t81.5 31t129.5 19.5q114 0 182 -64.5t68 -175.5v-292h-169l-13 32q-59 -42 -142 -42q-91 0 -143.5 42.5t-52.5 114.5t57 118t148 46zM230 156q0 -17 13 -28t34 -11
t34.5 11t13.5 28t-13.5 28t-34.5 11t-34 -11t-13 -28zM175 768q45 0 74.5 -29.5t29.5 -74.5t-30 -75t-75 -30t-74.5 29.5t-29.5 74.5t30 75t75 30zM418 768q45 0 74.5 -29.5t29.5 -74.5t-30 -75t-75 -30t-74.5 29.5t-29.5 74.5t30 75t75 30z" />
    <glyph glyph-name="aring" unicode="&#xe5;" horiz-adv-x="580" 
d="M220 311q59 0 100 -17v2q0 24 -24 40.5t-60 16.5q-27 0 -54 -7t-40 -14l-14 -7l-83 137q10 8 29 19.5t81.5 31t129.5 19.5q114 0 182 -64.5t68 -175.5v-292h-169l-13 32q-59 -42 -142 -42q-91 0 -143.5 42.5t-52.5 114.5t57 118t148 46zM230 156q0 -17 13 -28t34 -11
t34.5 11t13.5 28t-13.5 28t-34.5 11t-34 -11t-13 -28zM297 767q50 0 81.5 -30t31.5 -76q0 -47 -31.5 -77.5t-81.5 -30.5t-81 30.5t-31 77.5q0 46 31 76t81 30zM297 624q17 0 27 10t10 25t-10 25.5t-27 10.5t-26.5 -10.5t-9.5 -25.5t9.5 -25t26.5 -10z" />
    <glyph glyph-name="ae" unicode="&#xe6;" horiz-adv-x="903" 
d="M220 311q59 0 100 -17v1q0 25 -23.5 41.5t-60.5 16.5q-27 0 -54 -7t-40 -14l-14 -7l-83 137q10 8 29 19.5t82.5 31t131.5 19.5q90 0 154 -51q70 51 169 51q112 0 189.5 -70t77.5 -167q0 -22 -3.5 -41t-6.5 -28l-4 -8h-329q9 -20 33.5 -34.5t57.5 -14.5q27 0 51 9t35 18
l10 9l121 -127q-3 -4 -8.5 -9.5t-26.5 -21t-46 -27t-66.5 -21t-88.5 -9.5q-117 0 -180 60q-76 -60 -185 -60q-106 0 -166.5 43.5t-60.5 115.5t57 117t148 45zM230 156q0 -17 13 -28t34 -11t34.5 11t13.5 28t-13.5 28t-34.5 11t-34 -11t-13 -28zM606 384q-28 0 -46.5 -17.5
t-21.5 -42.5h135q-2 25 -20.5 42.5t-46.5 17.5z" />
    <glyph glyph-name="ccedilla" unicode="&#xe7;" horiz-adv-x="526" 
d="M381 222l145 -136q-6 -7 -16.5 -18t-47.5 -34.5t-78 -34.5q6 -18 6 -39q0 -70 -52.5 -112.5t-121.5 -42.5q-28 0 -54.5 6.5t-39.5 12.5l-12 6l40 120q15 -10 42 -10q21 0 35.5 10.5t14.5 31.5q0 10 -3 16q-97 21 -155.5 92t-58.5 168q0 115 84.5 194.5t209.5 79.5
q62 0 113.5 -22t71.5 -44l21 -21l-146 -142q-20 32 -65 32q-32 0 -53 -21t-21 -53t21 -53t53 -21q22 0 38.5 8.5t22.5 17.5z" />
    <glyph glyph-name="egrave" unicode="&#xe8;" horiz-adv-x="608" 
d="M569 218h-329q9 -20 33.5 -34.5t57.5 -14.5q27 0 51 9t34 18l11 9l121 -127q-3 -4 -8.5 -9.5t-26.5 -21t-46 -27t-66.5 -21t-88.5 -9.5q-125 0 -206 77t-81 193q0 115 83.5 193.5t207.5 78.5q112 0 189.5 -70t77.5 -167q0 -22 -3.5 -41t-7.5 -28zM311 384
q-28 0 -46.5 -17.5t-21.5 -42.5h135q-2 25 -20.5 42.5t-46.5 17.5zM345 740l55 -174h-166l-114 174h225z" />
    <glyph glyph-name="eacute" unicode="&#xe9;" horiz-adv-x="608" 
d="M569 218h-329q9 -20 33.5 -34.5t57.5 -14.5q27 0 51 9t34 18l11 9l121 -127q-3 -4 -8.5 -9.5t-26.5 -21t-46 -27t-66.5 -21t-88.5 -9.5q-125 0 -206 77t-81 193q0 115 83.5 193.5t207.5 78.5q112 0 189.5 -70t77.5 -167q0 -22 -3.5 -41t-7.5 -28zM311 384
q-28 0 -46.5 -17.5t-21.5 -42.5h135q-2 25 -20.5 42.5t-46.5 17.5zM250 566l55 174h225q-18 -29 -56.5 -87t-57.5 -87h-166z" />
    <glyph glyph-name="ecircumflex" unicode="&#xea;" horiz-adv-x="608" 
d="M569 218h-329q9 -20 33.5 -34.5t57.5 -14.5q27 0 51 9t34 18l11 9l121 -127q-3 -4 -8.5 -9.5t-26.5 -21t-46 -27t-66.5 -21t-88.5 -9.5q-125 0 -206 77t-81 193q0 115 83.5 193.5t207.5 78.5q112 0 189.5 -70t77.5 -167q0 -22 -3.5 -41t-7.5 -28zM311 384
q-28 0 -46.5 -17.5t-21.5 -42.5h135q-2 25 -20.5 42.5t-46.5 17.5zM88 566l130 174h190l130 -174h-184l-46 52l-48 -52h-172z" />
    <glyph glyph-name="edieresis" unicode="&#xeb;" horiz-adv-x="608" 
d="M569 218h-329q9 -20 33.5 -34.5t57.5 -14.5q27 0 51 9t34 18l11 9l121 -127q-3 -4 -8.5 -9.5t-26.5 -21t-46 -27t-66.5 -21t-88.5 -9.5q-125 0 -206 77t-81 193q0 115 83.5 193.5t207.5 78.5q112 0 189.5 -70t77.5 -167q0 -22 -3.5 -41t-7.5 -28zM311 384
q-28 0 -46.5 -17.5t-21.5 -42.5h135q-2 25 -20.5 42.5t-46.5 17.5zM193 768q45 0 74.5 -29.5t29.5 -74.5t-30 -75t-75 -30t-74.5 29.5t-29.5 74.5t30 75t75 30zM436 768q45 0 74.5 -29.5t29.5 -74.5t-30 -75t-75 -30t-74.5 29.5t-29.5 74.5t30 75t75 30z" />
    <glyph glyph-name="igrave" unicode="&#xec;" horiz-adv-x="307" 
d="M185 740l55 -174h-166l-114 174h225zM45 0v522h217v-522h-217z" />
    <glyph glyph-name="iacute" unicode="&#xed;" horiz-adv-x="307" 
d="M67 566l55 174h225q-18 -29 -56.5 -87t-57.5 -87h-166zM45 0v522h217v-522h-217z" />
    <glyph glyph-name="icircumflex" unicode="&#xee;" horiz-adv-x="307" 
d="M45 0v522h217v-522h-217zM-71 566l130 174h190l130 -174h-184l-46 52l-48 -52h-172z" />
    <glyph glyph-name="idieresis" unicode="&#xef;" horiz-adv-x="307" 
d="M33 768q45 0 74.5 -29.5t29.5 -74.5t-30 -75t-75 -30t-74.5 29.5t-29.5 74.5t30 75t75 30zM276 768q45 0 74.5 -29.5t29.5 -74.5t-30 -75t-75 -30t-74.5 29.5t-29.5 74.5t30 75t75 30zM45 0v522h217v-522h-217z" />
    <glyph glyph-name="eth" unicode="&#xf0;" horiz-adv-x="631" 
d="M269 501q14 0 24 -4l-39 48l-140 -31v101l72 19l-52 66h240l13 -24l179 39v-101l-113 -25l63 -88q90 -124 90 -242q0 -115 -89 -192t-205 -77q-123 0 -205 72.5t-82 198.5q0 102 74 171t170 69zM239 261q0 -33 21.5 -54.5t54.5 -21.5t55 21.5t22 54.5t-22 55t-55 22
t-54.5 -22t-21.5 -55z" />
    <glyph glyph-name="ntilde" unicode="&#xf1;" horiz-adv-x="615" 
d="M255 275v-275h-215v522h193l7 -59q56 69 149 69q84 0 137.5 -52.5t53.5 -139.5v-340h-215v275q0 60 -53 60q-27 0 -42 -15.5t-15 -44.5zM216 575l-96 12q0 6 1 17t8 38t18.5 48t36 38t56.5 17t56.5 -13.5t41.5 -27t32 -13.5q10 0 17 11t9 22l1 11l96 -12q0 -6 -1 -17
t-8 -38t-18.5 -48t-36 -38t-56.5 -17t-56.5 13.5t-41.5 27t-32 13.5q-10 0 -17 -11t-8 -22z" />
    <glyph glyph-name="ograve" unicode="&#xf2;" horiz-adv-x="631" 
d="M319 532q125 0 206 -76t81 -191t-84.5 -195t-209.5 -80t-206 76.5t-81 191.5t84.5 194.5t209.5 79.5zM239 261q0 -33 21.5 -54.5t54.5 -21.5t55 21.5t22 54.5t-22 55t-55 22t-54.5 -22t-21.5 -55zM345 740l55 -174h-166l-114 174h225z" />
    <glyph glyph-name="oacute" unicode="&#xf3;" horiz-adv-x="631" 
d="M319 532q125 0 206 -76t81 -191t-84.5 -195t-209.5 -80t-206 76.5t-81 191.5t84.5 194.5t209.5 79.5zM239 261q0 -33 21.5 -54.5t54.5 -21.5t55 21.5t22 54.5t-22 55t-55 22t-54.5 -22t-21.5 -55zM230 566l55 174h225q-18 -29 -56.5 -87t-57.5 -87h-166z" />
    <glyph glyph-name="ocircumflex" unicode="&#xf4;" horiz-adv-x="631" 
d="M319 532q125 0 206 -76t81 -191t-84.5 -195t-209.5 -80t-206 76.5t-81 191.5t84.5 194.5t209.5 79.5zM239 261q0 -33 21.5 -54.5t54.5 -21.5t55 21.5t22 54.5t-22 55t-55 22t-54.5 -22t-21.5 -55zM93 566l130 174h190l130 -174h-184l-46 52l-48 -52h-172z" />
    <glyph glyph-name="otilde" unicode="&#xf5;" horiz-adv-x="631" 
d="M319 532q125 0 206 -76t81 -191t-84.5 -195t-209.5 -80t-206 76.5t-81 191.5t84.5 194.5t209.5 79.5zM239 261q0 -33 21.5 -54.5t54.5 -21.5t55 21.5t22 54.5t-22 55t-55 22t-54.5 -22t-21.5 -55zM225 575l-96 12q0 6 1 17t8 38t18.5 48t36 38t56.5 17t56.5 -13.5
t41.5 -27t32 -13.5q10 0 17 11t8 22l2 11l96 -12q0 -6 -1 -17t-8 -38t-18.5 -48t-36 -38t-56.5 -17t-56.5 13.5t-41.5 27t-32 13.5q-10 0 -17 -11t-9 -22z" />
    <glyph glyph-name="odieresis" unicode="&#xf6;" horiz-adv-x="631" 
d="M319 532q125 0 206 -76t81 -191t-84.5 -195t-209.5 -80t-206 76.5t-81 191.5t84.5 194.5t209.5 79.5zM239 261q0 -33 21.5 -54.5t54.5 -21.5t55 21.5t22 54.5t-22 55t-55 22t-54.5 -22t-21.5 -55zM195 768q45 0 74.5 -29.5t29.5 -74.5t-30 -75t-75 -30t-74.5 29.5
t-29.5 74.5t30 75t75 30zM438 768q45 0 74.5 -29.5t29.5 -74.5t-30 -75t-75 -30t-74.5 29.5t-29.5 74.5t30 75t75 30z" />
    <glyph glyph-name="divide" unicode="&#xf7;" 
d="M311 691q48 0 81.5 -33.5t33.5 -81.5t-33.5 -81.5t-81.5 -33.5t-81.5 33.5t-33.5 81.5t33.5 81.5t81.5 33.5zM575 262h-525v182h525v-182zM311 245q48 0 81.5 -33.5t33.5 -81.5t-33.5 -81.5t-81.5 -33.5t-81.5 33.5t-33.5 81.5t33.5 81.5t81.5 33.5z" />
    <glyph glyph-name="oslash" unicode="&#xf8;" horiz-adv-x="631" 
d="M319 532q65 0 123 -24l36 47h123l-75 -100q80 -75 80 -190t-84.5 -195t-209.5 -80q-61 0 -122 23l-32 -43h-128l74 97q-79 76 -79 191t84.5 194.5t209.5 79.5zM210 261q0 -25 9 -44l112 147q-5 1 -16 1q-45 0 -75 -29.5t-30 -74.5zM420 261q0 23 -9 43l-110 -146h14
q45 0 75 29t30 74z" />
    <glyph glyph-name="ugrave" unicode="&#xf9;" horiz-adv-x="615" 
d="M360 247v275h215v-522h-193l-7 59q-56 -69 -149 -69q-84 0 -137.5 52.5t-53.5 139.5v340h215v-275q0 -60 53 -60q27 0 42 15.5t15 44.5zM337 740l55 -174h-166l-114 174h225z" />
    <glyph glyph-name="uacute" unicode="&#xfa;" horiz-adv-x="615" 
d="M360 247v275h215v-522h-193l-7 59q-56 -69 -149 -69q-84 0 -137.5 52.5t-53.5 139.5v340h215v-275q0 -60 53 -60q27 0 42 15.5t15 44.5zM232 566l55 174h225q-19 -29 -57.5 -87t-56.5 -87h-166z" />
    <glyph glyph-name="ucircumflex" unicode="&#xfb;" horiz-adv-x="615" 
d="M360 247v275h215v-522h-193l-7 59q-56 -69 -149 -69q-84 0 -137.5 52.5t-53.5 139.5v340h215v-275q0 -60 53 -60q27 0 42 15.5t15 44.5zM82 566l130 174h190l130 -174h-184l-46 52l-48 -52h-172z" />
    <glyph glyph-name="udieresis" unicode="&#xfc;" horiz-adv-x="615" 
d="M360 247v275h215v-522h-193l-7 59q-56 -69 -149 -69q-84 0 -137.5 52.5t-53.5 139.5v340h215v-275q0 -60 53 -60q27 0 42 15.5t15 44.5zM185 768q45 0 74.5 -29.5t29.5 -74.5t-30 -75t-75 -30t-74.5 29.5t-29.5 74.5t30 75t75 30zM428 768q45 0 74.5 -29.5t29.5 -74.5
t-30 -75t-75 -30t-74.5 29.5t-29.5 74.5t30 75t75 30z" />
    <glyph glyph-name="yacute" unicode="&#xfd;" horiz-adv-x="566" 
d="M171 22l-186 500h239l67 -270l65 270h225l-193 -527q-31 -86 -85.5 -125.5t-141.5 -39.5q-46 0 -90 11.5t-65 22.5l-21 12l63 167q46 -25 98 -25zM208 566l55 174h225l-57 -87l-57 -87h-166z" />
    <glyph glyph-name="thorn" unicode="&#xfe;" horiz-adv-x="643" 
d="M40 -160v860h215v-206q50 38 115 38q103 0 175.5 -76t72.5 -191q0 -117 -74 -196t-181 -79q-62 0 -108 34v-184h-215zM250 261q0 -33 21.5 -54.5t54.5 -21.5t55 21.5t22 54.5t-22 55t-55 22t-54.5 -22t-21.5 -55z" />
    <glyph glyph-name="ydieresis" unicode="&#xff;" horiz-adv-x="566" 
d="M171 22l-186 500h239l67 -270l65 270h225l-193 -527q-31 -86 -85.5 -125.5t-141.5 -39.5q-46 0 -90 11.5t-65 22.5l-21 12l63 167q46 -25 98 -25zM170 768q45 0 74.5 -29.5t29.5 -74.5t-30 -75t-75 -30t-74.5 29.5t-29.5 74.5t30 75t75 30zM413 768q45 0 74.5 -29.5
t29.5 -74.5t-30 -75t-75 -30t-74.5 29.5t-29.5 74.5t30 75t75 30z" />
    <glyph glyph-name="Amacron" unicode="&#x100;" horiz-adv-x="740" 
d="M364 439l-53 -172h105zM482 700l268 -700h-252l-29 96h-212l-29 -96h-238l266 700h226zM190 778v120h360v-120h-360z" />
    <glyph glyph-name="amacron" unicode="&#x101;" horiz-adv-x="580" 
d="M220 311q59 0 100 -17v2q0 24 -24 40.5t-60 16.5q-27 0 -54 -7t-40 -14l-14 -7l-83 137q10 8 29 19.5t81.5 31t129.5 19.5q114 0 182 -64.5t68 -175.5v-292h-169l-13 32q-59 -42 -142 -42q-91 0 -143.5 42.5t-52.5 114.5t57 118t148 46zM230 156q0 -17 13 -28t34 -11
t34.5 11t13.5 28t-13.5 28t-34.5 11t-34 -11t-13 -28zM116 600v120h360v-120h-360z" />
    <glyph glyph-name="Abreve" unicode="&#x102;" horiz-adv-x="740" 
d="M364 439l-53 -172h105zM482 700l268 -700h-252l-29 96h-212l-29 -96h-238l266 700h226zM189 920h139v-15q0 -17 10.5 -28.5t30.5 -11.5q40 0 40 40v15h142v-5q0 -76 -50.5 -122.5t-130.5 -46.5t-130.5 46.5t-50.5 122.5v5z" />
    <glyph glyph-name="abreve" unicode="&#x103;" horiz-adv-x="580" 
d="M220 311q59 0 100 -17v2q0 24 -24 40.5t-60 16.5q-27 0 -54 -7t-40 -14l-14 -7l-83 137q10 8 29 19.5t81.5 31t129.5 19.5q114 0 182 -64.5t68 -175.5v-292h-169l-13 32q-59 -42 -142 -42q-91 0 -143.5 42.5t-52.5 114.5t57 118t148 46zM230 156q0 -17 13 -28t34 -11
t34.5 11t13.5 28t-13.5 28t-34.5 11t-34 -11t-13 -28zM115 740h139v-15q0 -17 10.5 -28.5t30.5 -11.5q40 0 40 40v15h142v-5q0 -76 -50.5 -122.5t-130.5 -46.5t-130.5 46.5t-50.5 122.5v5z" />
    <glyph glyph-name="Aogonek" unicode="&#x104;" horiz-adv-x="740" 
d="M482 700l268 -700h-121q-1 0 -4 -2t-6 -8t-3 -14q0 -12 9.5 -20t26.5 -8q10 0 20 2t14 4l5 2l39 -112q-39 -31 -102 -31q-62 0 -105 37.5t-43 103.5q0 35 14 58l-25 84h-212l-29 -96h-238l266 700h226zM364 439l-53 -172h105z" />
    <glyph glyph-name="aogonek" unicode="&#x105;" horiz-adv-x="580" 
d="M220 311q59 0 100 -17v2q0 24 -24 40.5t-60 16.5q-27 0 -54 -7t-40 -14l-14 -7l-83 137q10 8 29 19.5t81.5 31t129.5 19.5q114 0 182 -64.5t68 -175.5v-292h-50q-14 -7 -14 -24q0 -12 9.5 -20t26.5 -8q10 0 20 2t15 4l4 2l39 -112q-39 -31 -102 -31q-62 0 -105 37.5
t-43 103.5q0 38 21 70l-3 8q-59 -42 -142 -42q-91 0 -143.5 42.5t-52.5 114.5t57 118t148 46zM230 156q0 -17 13 -28t34 -11t34.5 11t13.5 28t-13.5 28t-34.5 11t-34 -11t-13 -28z" />
    <glyph glyph-name="Cacute" unicode="&#x106;" horiz-adv-x="701" 
d="M35 345q0 153 108 259t268 106q41 0 78.5 -6.5t65 -17t50.5 -23.5t38.5 -25.5t26.5 -23t16 -16.5l4 -7l-166 -146q-4 6 -12 14.5t-37.5 22.5t-65.5 14q-65 0 -105 -41t-40 -106t40 -106.5t105 -41.5q24 0 46 6.5t36 16t24.5 18.5t14.5 16l5 6l161 -139q-3 -5 -10 -14.5
t-32.5 -32.5t-56 -41t-82.5 -32.5t-111 -14.5q-160 0 -264.5 101.5t-104.5 253.5zM315 746l55 174h225q-18 -29 -56.5 -87t-57.5 -87h-166z" />
    <glyph glyph-name="cacute" unicode="&#x107;" horiz-adv-x="526" 
d="M381 222l145 -136q-3 -4 -8.5 -10.5t-25.5 -23t-43 -29t-60 -23t-77 -10.5q-125 0 -206 76.5t-81 191.5t84.5 194.5t209.5 79.5q62 0 113.5 -22t71.5 -44l21 -21l-146 -142q-20 32 -65 32q-32 0 -53 -21t-21 -53t21 -53t53 -21q22 0 38.5 8.5t22.5 17.5zM225 566l55 174
h225q-19 -29 -57.5 -87t-56.5 -87h-166z" />
    <glyph glyph-name="Ccircumflex" unicode="&#x108;" horiz-adv-x="701" 
d="M35 345q0 153 108 259t268 106q41 0 78.5 -6.5t65 -17t50.5 -23.5t38.5 -25.5t26.5 -23t16 -16.5l4 -7l-166 -146q-4 6 -12 14.5t-37.5 22.5t-65.5 14q-65 0 -105 -41t-40 -106t40 -106.5t105 -41.5q24 0 46 6.5t36 16t24.5 18.5t14.5 16l5 6l161 -139q-3 -5 -10 -14.5
t-32.5 -32.5t-56 -41t-82.5 -32.5t-111 -14.5q-160 0 -264.5 101.5t-104.5 253.5zM180 746l130 174h190l130 -174h-184l-46 52l-48 -52h-172z" />
    <glyph glyph-name="ccircumflex" unicode="&#x109;" horiz-adv-x="526" 
d="M381 222l145 -136q-3 -4 -8.5 -10.5t-25.5 -23t-43 -29t-60 -23t-77 -10.5q-125 0 -206 76.5t-81 191.5t84.5 194.5t209.5 79.5q62 0 113.5 -22t71.5 -44l21 -21l-146 -142q-20 32 -65 32q-32 0 -53 -21t-21 -53t21 -53t53 -21q22 0 38.5 8.5t22.5 17.5zM93 566l130 174
h190l130 -174h-184l-46 52l-48 -52h-172z" />
    <glyph glyph-name="Cdotaccent" unicode="&#x10a;" horiz-adv-x="701" 
d="M35 345q0 153 108 259t268 106q41 0 78.5 -6.5t65 -17t50.5 -23.5t38.5 -25.5t26.5 -23t16 -16.5l4 -7l-166 -146q-4 6 -12 14.5t-37.5 22.5t-65.5 14q-65 0 -105 -41t-40 -106t40 -106.5t105 -41.5q24 0 46 6.5t36 16t24.5 18.5t14.5 16l5 6l161 -139q-3 -5 -10 -14.5
t-32.5 -32.5t-56 -41t-82.5 -32.5t-111 -14.5q-160 0 -264.5 101.5t-104.5 253.5zM305 837q0 43 30 72t74 29t74.5 -29t30.5 -72t-30 -71.5t-75 -28.5q-44 0 -74 28.5t-30 71.5z" />
    <glyph glyph-name="cdotaccent" unicode="&#x10b;" horiz-adv-x="526" 
d="M381 222l145 -136q-3 -4 -8.5 -10.5t-25.5 -23t-43 -29t-60 -23t-77 -10.5q-125 0 -206 76.5t-81 191.5t84.5 194.5t209.5 79.5q62 0 113.5 -22t71.5 -44l21 -21l-146 -142q-20 32 -65 32q-32 0 -53 -21t-21 -53t21 -53t53 -21q22 0 38.5 8.5t22.5 17.5zM205 659
q0 43 30 72t74 29t74.5 -29t30.5 -72t-30 -71.5t-75 -28.5q-44 0 -74 28.5t-30 71.5z" />
    <glyph glyph-name="Ccaron" unicode="&#x10c;" horiz-adv-x="701" 
d="M35 345q0 153 108 259t268 106q41 0 78.5 -6.5t65 -17t50.5 -23.5t38.5 -25.5t26.5 -23t16 -16.5l4 -7l-166 -146q-4 6 -12 14.5t-37.5 22.5t-65.5 14q-65 0 -105 -41t-40 -106t40 -106.5t105 -41.5q24 0 46 6.5t36 16t24.5 18.5t14.5 16l5 6l161 -139q-3 -5 -10 -14.5
t-32.5 -32.5t-56 -41t-82.5 -32.5t-111 -14.5q-160 0 -264.5 101.5t-104.5 253.5zM630 920l-130 -174h-190l-130 174h184l46 -52l48 52h172z" />
    <glyph glyph-name="ccaron" unicode="&#x10d;" horiz-adv-x="526" 
d="M381 222l145 -136q-3 -4 -8.5 -10.5t-25.5 -23t-43 -29t-60 -23t-77 -10.5q-125 0 -206 76.5t-81 191.5t84.5 194.5t209.5 79.5q62 0 113.5 -22t71.5 -44l21 -21l-146 -142q-20 32 -65 32q-32 0 -53 -21t-21 -53t21 -53t53 -21q22 0 38.5 8.5t22.5 17.5zM533 740
l-130 -174h-190l-130 174h184l46 -52l48 52h172z" />
    <glyph glyph-name="Dcaron" unicode="&#x10e;" horiz-adv-x="760" 
d="M289 503v-306h50q70 0 115 42.5t45 110.5t-45 110.5t-115 42.5h-50zM60 700h276q168 0 278.5 -98.5t110.5 -248.5t-114 -251.5t-282 -101.5h-269v700zM605 920l-130 -174h-190l-130 174h184l46 -52l48 52h172z" />
    <glyph glyph-name="dcaron" unicode="&#x10f;" horiz-adv-x="881" 
d="M796 416h-155l26 284h214zM603 700v-700h-181l-14 49q-59 -59 -135 -59q-103 0 -175.5 76t-72.5 191q0 117 74 196t181 79q61 0 108 -31v199h215zM393 261q0 33 -21.5 55t-54.5 22t-55 -22t-22 -55t22 -54.5t55 -21.5t54.5 21.5t21.5 54.5z" />
    <glyph glyph-name="Dcroat" unicode="&#x110;" horiz-adv-x="801" 
d="M440 295h-110v-98h50q70 0 115 42.5t45 110.5t-45 110.5t-115 42.5h-50v-93h110v-115zM101 0v295h-71v115h71v290h276q168 0 278.5 -99t110.5 -249q0 -149 -114 -250.5t-282 -101.5h-269z" />
    <glyph glyph-name="dcroat" unicode="&#x111;" horiz-adv-x="692" 
d="M603 700v-31h69v-115h-69v-554h-181l-14 49q-59 -59 -135 -59q-103 0 -175.5 76t-72.5 191q0 117 74 196t181 79q61 0 108 -31v53h-93v115h93v31h215zM393 261q0 33 -21.5 55t-54.5 22t-55 -22t-22 -55t22 -54.5t55 -21.5t54.5 21.5t21.5 54.5z" />
    <glyph glyph-name="Emacron" unicode="&#x112;" horiz-adv-x="650" 
d="M615 0h-555v700h545v-197h-316v-67h266v-166h-266v-73h326v-197zM165 778v120h360v-120h-360z" />
    <glyph glyph-name="emacron" unicode="&#x113;" horiz-adv-x="608" 
d="M569 218h-329q9 -20 33.5 -34.5t57.5 -14.5q27 0 51 9t34 18l11 9l121 -127q-3 -4 -8.5 -9.5t-26.5 -21t-46 -27t-66.5 -21t-88.5 -9.5q-125 0 -206 77t-81 193q0 115 83.5 193.5t207.5 78.5q112 0 189.5 -70t77.5 -167q0 -22 -3.5 -41t-7.5 -28zM311 384
q-28 0 -46.5 -17.5t-21.5 -42.5h135q-2 25 -20.5 42.5t-46.5 17.5zM135 600v120h360v-120h-360z" />
    <glyph glyph-name="Ebreve" unicode="&#x114;" horiz-adv-x="650" 
d="M615 0h-555v700h545v-197h-316v-67h266v-166h-266v-73h326v-197zM164 920h139v-15q0 -17 10.5 -28.5t30.5 -11.5q40 0 40 40v15h142v-5q0 -76 -50.5 -122.5t-130.5 -46.5t-130.5 46.5t-50.5 122.5v5z" />
    <glyph glyph-name="ebreve" unicode="&#x115;" horiz-adv-x="608" 
d="M569 218h-329q9 -20 33.5 -34.5t57.5 -14.5q27 0 51 9t34 18l11 9l121 -127q-3 -4 -8.5 -9.5t-26.5 -21t-46 -27t-66.5 -21t-88.5 -9.5q-125 0 -206 77t-81 193q0 115 83.5 193.5t207.5 78.5q112 0 189.5 -70t77.5 -167q0 -22 -3.5 -41t-7.5 -28zM311 384
q-28 0 -46.5 -17.5t-21.5 -42.5h135q-2 25 -20.5 42.5t-46.5 17.5zM134 740h139v-15q0 -17 10.5 -28.5t30.5 -11.5q40 0 40 40v15h142v-5q0 -76 -50.5 -122.5t-130.5 -46.5t-130.5 46.5t-50.5 122.5v5z" />
    <glyph glyph-name="Edotaccent" unicode="&#x116;" horiz-adv-x="650" 
d="M615 0h-555v700h545v-197h-316v-67h266v-166h-266v-73h326v-197zM240 837q0 43 30 72t74 29t74.5 -29t30.5 -72t-30 -71.5t-75 -28.5q-44 0 -74 28.5t-30 71.5z" />
    <glyph glyph-name="edotaccent" unicode="&#x117;" horiz-adv-x="608" 
d="M569 218h-329q9 -20 33.5 -34.5t57.5 -14.5q27 0 51 9t34 18l11 9l121 -127q-3 -4 -8.5 -9.5t-26.5 -21t-46 -27t-66.5 -21t-88.5 -9.5q-125 0 -206 77t-81 193q0 115 83.5 193.5t207.5 78.5q112 0 189.5 -70t77.5 -167q0 -22 -3.5 -41t-7.5 -28zM311 384
q-28 0 -46.5 -17.5t-21.5 -42.5h135q-2 25 -20.5 42.5t-46.5 17.5zM210 659q0 43 30 72t74 29t74.5 -29t30.5 -72t-30 -71.5t-75 -28.5q-44 0 -74 28.5t-30 71.5z" />
    <glyph glyph-name="Eogonek" unicode="&#x118;" horiz-adv-x="650" 
d="M615 0h-95q-14 -7 -14 -24q0 -12 9.5 -20t26.5 -8q10 0 20 2t14 4l5 2l39 -112q-39 -31 -102 -31q-62 0 -105 37.5t-43 103.5q0 25 8 46h-318v700h545v-197h-316v-67h266v-166h-266v-73h326v-197z" />
    <glyph glyph-name="eogonek" unicode="&#x119;" horiz-adv-x="608" 
d="M569 218h-329q9 -20 33.5 -34.5t57.5 -14.5q27 0 51 9t34 18l11 9l121 -127q-5 -7 -16 -17t-51 -32t-87 -31q-10 -8 -10 -22q0 -12 9.5 -20t26.5 -8q10 0 20 2t14 4l5 2l39 -112q-39 -31 -102 -31q-62 0 -105 37.5t-43 103.5q0 23 6 41q-103 17 -166 90.5t-63 174.5
q0 115 83.5 193.5t207.5 78.5q112 0 189.5 -70t77.5 -167q0 -22 -3.5 -41t-7.5 -28zM311 384q-28 0 -46.5 -17.5t-21.5 -42.5h135q-2 25 -20.5 42.5t-46.5 17.5z" />
    <glyph glyph-name="Ecaron" unicode="&#x11a;" horiz-adv-x="650" 
d="M615 0h-555v700h545v-197h-316v-67h266v-166h-266v-73h326v-197zM570 920l-130 -174h-190l-130 174h184l46 -52l48 52h172z" />
    <glyph glyph-name="ecaron" unicode="&#x11b;" horiz-adv-x="608" 
d="M569 218h-329q9 -20 33.5 -34.5t57.5 -14.5q27 0 51 9t34 18l11 9l121 -127q-3 -4 -8.5 -9.5t-26.5 -21t-46 -27t-66.5 -21t-88.5 -9.5q-125 0 -206 77t-81 193q0 115 83.5 193.5t207.5 78.5q112 0 189.5 -70t77.5 -167q0 -22 -3.5 -41t-7.5 -28zM311 384
q-28 0 -46.5 -17.5t-21.5 -42.5h135q-2 25 -20.5 42.5t-46.5 17.5zM540 740l-130 -174h-190l-130 174h184l46 -52l48 52h172z" />
    <glyph glyph-name="Gcircumflex" unicode="&#x11c;" horiz-adv-x="786" 
d="M393 407h352q6 -28 6 -62q0 -151 -93.5 -253t-253.5 -102q-159 0 -264 103t-105 255t108.5 257t267.5 105q56 0 105.5 -11.5t80 -28.5t53 -34t32.5 -28l9 -12l-154 -156q-5 6 -15 16t-44 26t-72 16q-63 0 -104 -43.5t-41 -110.5t41 -110.5t105 -43.5q42 0 72 17t39 33
l10 17h-135v150zM174 746l130 174h190l130 -174h-184l-46 52l-48 -52h-172z" />
    <glyph glyph-name="gcircumflex" unicode="&#x11d;" horiz-adv-x="643" 
d="M20 -87l80 151q9 -6 25.5 -15.5t63 -25t89.5 -15.5q110 0 110 72v4q-42 -29 -112 -29q-106 0 -178.5 68.5t-72.5 165.5q0 106 70.5 174.5t185.5 68.5q38 0 73 -13t55 -31l13 34h181v-385q0 -140 -81 -223.5t-224 -83.5q-77 0 -146.5 21t-100.5 41zM240 288
q0 -30 21.5 -49t54.5 -19t55 19t22 49t-22 49.5t-55 19.5t-54.5 -19t-21.5 -50zM105 566l130 174h190l130 -174h-184l-46 52l-48 -52h-172z" />
    <glyph glyph-name="Gbreve" unicode="&#x11e;" horiz-adv-x="786" 
d="M393 407h352q6 -28 6 -62q0 -151 -93.5 -253t-253.5 -102q-159 0 -264 103t-105 255t108.5 257t267.5 105q56 0 105.5 -11.5t80 -28.5t53 -34t32.5 -28l9 -12l-154 -156q-5 6 -15 16t-44 26t-72 16q-63 0 -104 -43.5t-41 -110.5t41 -110.5t105 -43.5q42 0 72 17t39 33
l10 17h-135v150zM218 920h139v-15q0 -17 10.5 -28.5t30.5 -11.5q40 0 40 40v15h142v-5q0 -76 -50.5 -122.5t-130.5 -46.5t-130.5 46.5t-50.5 122.5v5z" />
    <glyph glyph-name="gbreve" unicode="&#x11f;" horiz-adv-x="643" 
d="M20 -87l80 151q9 -6 25.5 -15.5t63 -25t89.5 -15.5q110 0 110 72v4q-42 -29 -112 -29q-106 0 -178.5 68.5t-72.5 165.5q0 106 70.5 174.5t185.5 68.5q38 0 73 -13t55 -31l13 34h181v-385q0 -140 -81 -223.5t-224 -83.5q-77 0 -146.5 21t-100.5 41zM240 288
q0 -30 21.5 -49t54.5 -19t55 19t22 49t-22 49.5t-55 19.5t-54.5 -19t-21.5 -50zM149 740h139v-15q0 -17 10.5 -28.5t30.5 -11.5q40 0 40 40v15h142v-5q0 -76 -50.5 -122.5t-130.5 -46.5t-130.5 46.5t-50.5 122.5v5z" />
    <glyph glyph-name="Gdotaccent" unicode="&#x120;" horiz-adv-x="786" 
d="M393 407h352q6 -28 6 -62q0 -151 -93.5 -253t-253.5 -102q-159 0 -264 103t-105 255t108.5 257t267.5 105q56 0 105.5 -11.5t80 -28.5t53 -34t32.5 -28l9 -12l-154 -156q-5 6 -15 16t-44 26t-72 16q-63 0 -104 -43.5t-41 -110.5t41 -110.5t105 -43.5q42 0 72 17t39 33
l10 17h-135v150zM294 837q0 43 30 72t74 29t74.5 -29t30.5 -72t-30 -71.5t-75 -28.5q-44 0 -74 28.5t-30 71.5z" />
    <glyph glyph-name="gdotaccent" unicode="&#x121;" horiz-adv-x="643" 
d="M20 -87l80 151q9 -6 25.5 -15.5t63 -25t89.5 -15.5q110 0 110 72v4q-42 -29 -112 -29q-106 0 -178.5 68.5t-72.5 165.5q0 106 70.5 174.5t185.5 68.5q38 0 73 -13t55 -31l13 34h181v-385q0 -140 -81 -223.5t-224 -83.5q-77 0 -146.5 21t-100.5 41zM240 288
q0 -30 21.5 -49t54.5 -19t55 19t22 49t-22 49.5t-55 19.5t-54.5 -19t-21.5 -50zM225 659q0 43 30 72t74 29t74.5 -29t30.5 -72t-30 -71.5t-75 -28.5q-44 0 -74 28.5t-30 71.5z" />
    <glyph glyph-name="Gcommaaccent" unicode="&#x122;" horiz-adv-x="786" 
d="M393 407h352q6 -28 6 -62q0 -151 -93.5 -253t-253.5 -102q-159 0 -264 103t-105 255t108.5 257t267.5 105q56 0 105.5 -11.5t80 -28.5t53 -34t32.5 -28l9 -12l-154 -156q-5 6 -15 16t-44 26t-72 16q-63 0 -104 -43.5t-41 -110.5t41 -110.5t105 -43.5q42 0 72 17t39 33
l10 17h-135v150zM230 -224l55 174h225q-18 -29 -56.5 -87t-57.5 -87h-166z" />
    <glyph glyph-name="gcommaaccent" unicode="&#x123;" horiz-adv-x="643" 
d="M20 -87l80 151q9 -6 25.5 -15.5t63 -25t89.5 -15.5q110 0 110 72v4q-42 -29 -112 -29q-106 0 -178.5 68.5t-72.5 165.5q0 106 70.5 174.5t185.5 68.5q38 0 73 -13t55 -31l13 34h181v-385q0 -140 -81 -223.5t-224 -83.5q-77 0 -146.5 21t-100.5 41zM240 288
q0 -30 21.5 -49t54.5 -19t55 19t22 49t-22 49.5t-55 19.5t-54.5 -19t-21.5 -50zM463 740l-55 -174h-225q18 29 56.5 87t57.5 87h166z" />
    <glyph glyph-name="Hcircumflex" unicode="&#x124;" horiz-adv-x="770" 
d="M484 0v255h-195v-255h-229v700h229v-241h195v241h226v-700h-226zM160 746l130 174h190l130 -174h-184l-46 52l-48 -52h-172z" />
    <glyph glyph-name="hcircumflex" unicode="&#x125;" horiz-adv-x="615" 
d="M40 0v700h215v-226q55 58 134 58q84 0 137.5 -52.5t53.5 -139.5v-340h-215v275q0 60 -53 60q-27 0 -42 -15.5t-15 -44.5v-275h-215zM82 746l130 174h190l130 -174h-184l-46 52l-48 -52h-172z" />
    <glyph glyph-name="Hbar" unicode="&#x126;" horiz-adv-x="852" 
d="M330 517v-58h195v58h-195zM101 0v517h-71v120h71v63h229v-63h195v63h226v-63h71v-120h-71v-517h-226v255h-195v-255h-229z" />
    <glyph glyph-name="hbar" unicode="&#x127;" horiz-adv-x="664" 
d="M89 0v554h-69v115h69v31h215v-31h93v-115h-93v-80q55 58 134 58q84 0 137.5 -52.5t53.5 -139.5v-340h-215v275q0 60 -53 60q-27 0 -42 -15.5t-15 -44.5v-275h-215z" />
    <glyph glyph-name="Itilde" unicode="&#x128;" horiz-adv-x="363" 
d="M65 0v700h233v-700h-233zM91 755l-96 12q0 6 1 17t8 38t18.5 48t36 38t56.5 17t56.5 -13.5t41.5 -27t32 -13.5q10 0 17 11t8 22l2 11l96 -12q0 -6 -1 -17t-8 -38t-18.5 -48t-36 -38t-56.5 -17t-56.5 13.5t-41.5 27t-32 13.5q-10 0 -17 -11t-9 -22z" />
    <glyph glyph-name="itilde" unicode="&#x129;" horiz-adv-x="307" 
d="M63 575l-96 12q0 6 1 17t8 38t18.5 48t36 38t56.5 17t56.5 -13.5t41.5 -27t32 -13.5q10 0 17 11t8 22l2 11l96 -12q0 -6 -1 -17t-8 -38t-18.5 -48t-36 -38t-56.5 -17t-56.5 13.5t-41.5 27t-32 13.5q-10 0 -17 -11t-9 -22zM45 0v522h217v-522h-217z" />
    <glyph glyph-name="Imacron" unicode="&#x12a;" horiz-adv-x="363" 
d="M65 0v700h233v-700h-233zM2 778v120h360v-120h-360z" />
    <glyph glyph-name="imacron" unicode="&#x12b;" horiz-adv-x="307" 
d="M-26 600v120h360v-120h-360zM45 0v522h217v-522h-217z" />
    <glyph glyph-name="Ibreve" unicode="&#x12c;" horiz-adv-x="363" 
d="M65 0v700h233v-700h-233zM1 920h139v-15q0 -17 10.5 -28.5t30.5 -11.5q40 0 40 40v15h142v-5q0 -76 -50.5 -122.5t-130.5 -46.5t-130.5 46.5t-50.5 122.5v5z" />
    <glyph glyph-name="ibreve" unicode="&#x12d;" horiz-adv-x="307" 
d="M-27 740h139v-15q0 -17 10.5 -28.5t30.5 -11.5q40 0 40 40v15h142v-5q0 -76 -50.5 -122.5t-130.5 -46.5t-130.5 46.5t-50.5 122.5v5zM45 0v522h217v-522h-217z" />
    <glyph glyph-name="Iogonek" unicode="&#x12e;" horiz-adv-x="363" 
d="M298 0h-101q-1 0 -4 -2t-6 -8t-3 -14q0 -12 9.5 -20t26.5 -8q10 0 20 2t14 4l5 2l39 -112q-39 -31 -102 -31q-62 0 -105 37.5t-43 103.5q0 34 17 63v683h233v-700z" />
    <glyph glyph-name="iogonek" unicode="&#x12f;" horiz-adv-x="307" 
d="M262 0h-96q-1 0 -4 -2t-6 -8t-3 -14q0 -12 9.5 -20t26.5 -8q10 0 20 2t15 4l4 2l39 -112q-39 -31 -102 -31q-62 0 -105 37.5t-43 103.5q0 45 28 78v490h217v-522zM24 660q0 50 37 83t92 33t92.5 -33t37.5 -83q0 -49 -37 -82t-93 -33t-92.5 33t-36.5 82z" />
    <glyph glyph-name="Idotaccent" unicode="&#x130;" horiz-adv-x="363" 
d="M65 0v700h233v-700h-233zM76 837q0 43 30 72t74 29t74.5 -29t30.5 -72t-30 -71.5t-75 -28.5q-44 0 -74 28.5t-30 71.5z" />
    <glyph glyph-name="dotlessi" unicode="&#x131;" horiz-adv-x="307" 
d="M45 0v522h217v-522h-217z" />
    <glyph glyph-name="IJ" unicode="&#x132;" horiz-adv-x="877" 
d="M65 0v700h233v-700h-233zM595 303v397h232v-415q0 -134 -79.5 -214.5t-209.5 -80.5q-51 0 -95 8.5t-62 17.5l-18 9l53 196q31 -15 84 -15q45 0 70 26.5t25 70.5z" />
    <glyph glyph-name="ij" unicode="&#x133;" horiz-adv-x="614" 
d="M352 522h217v-440q0 -124 -59 -188t-173 -64q-19 0 -39.5 2t-31.5 4l-10 1l22 178q7 -2 25 -2q49 0 49 53v456zM331 660q0 50 37 83t92 33t92.5 -33t37.5 -83q0 -49 -37 -82t-93 -33t-92.5 33t-36.5 82zM45 0v522h217v-522h-217zM24 660q0 50 37 83t92 33t92.5 -33
t37.5 -83q0 -49 -37 -82t-93 -33t-92.5 33t-36.5 82z" />
    <glyph glyph-name="Jcircumflex" unicode="&#x134;" horiz-adv-x="514" 
d="M232 303v397h232v-415q0 -134 -79.5 -214.5t-209.5 -80.5q-51 0 -95 8.5t-62 17.5l-18 9l53 196q31 -15 84 -15q45 0 70 26.5t25 70.5zM128 746l130 174h190l130 -174h-184l-46 52l-48 -52h-172z" />
    <glyph glyph-name="jcircumflex" unicode="&#x135;" horiz-adv-x="307" 
d="M45 522h217v-440q0 -124 -59 -188t-173 -64q-19 0 -41.5 2t-34.5 4l-13 1l22 177q15 -1 33 -1q49 0 49 53v456zM-71 566l130 174h190l130 -174h-184l-46 52l-48 -52h-172z" />
    <glyph glyph-name="Kcommaaccent" unicode="&#x136;" horiz-adv-x="754" 
d="M492 0l-203 329v-329h-229v700h229v-307l183 307h267l-232 -326l252 -374h-267zM220 -224l55 174h225q-19 -29 -57.5 -87t-56.5 -87h-166z" />
    <glyph glyph-name="kcommaaccent" unicode="&#x137;" horiz-adv-x="656" 
d="M60 0v700h215v-399l122 221h244l-159 -234l179 -288h-249l-137 249v-249h-215zM185 -224l55 174h225q-18 -29 -56.5 -87t-57.5 -87h-166z" />
    <glyph glyph-name="Lacute" unicode="&#x139;" horiz-adv-x="590" 
d="M585 0h-525v700h229v-496h296v-204zM85 746l55 174h225q-18 -29 -56.5 -87t-57.5 -87h-166z" />
    <glyph glyph-name="lacute" unicode="&#x13a;" horiz-adv-x="307" 
d="M45 0v700h217v-700h-217zM67 746l55 174h225q-18 -29 -56.5 -87t-57.5 -87h-166z" />
    <glyph glyph-name="Lcommaaccent" unicode="&#x13b;" horiz-adv-x="590" 
d="M585 0h-525v700h229v-496h296v-204zM150 -224l55 174h225q-18 -29 -57 -87t-57 -87h-166z" />
    <glyph glyph-name="lcommaaccent" unicode="&#x13c;" horiz-adv-x="307" 
d="M45 0v700h217v-700h-217zM-15 -224l55 174h225q-18 -29 -56.5 -87t-57.5 -87h-166z" />
    <glyph glyph-name="Lcaron" unicode="&#x13d;" horiz-adv-x="590" 
d="M490 416h-155l29 284h214zM585 0h-525v700h229v-496h296v-204z" />
    <glyph glyph-name="lcaron" unicode="&#x13e;" horiz-adv-x="545" 
d="M457 416h-155l26 284h217zM45 0v700h217v-700h-217z" />
    <glyph glyph-name="Ldot" unicode="&#x13f;" horiz-adv-x="590" 
d="M454 519q46 0 78 -32t32 -78q0 -45 -32 -77t-78 -32t-77.5 32t-31.5 77q0 46 31.5 78t77.5 32zM585 0h-525v700h229v-496h296v-204z" />
    <glyph glyph-name="ldot" unicode="&#x140;" horiz-adv-x="564" 
d="M45 0v700h217v-700h-217zM427 473q53 0 90 -36.5t37 -90.5t-37 -89.5t-90 -35.5q-55 0 -92 35.5t-37 89.5t37 90.5t92 36.5z" />
    <glyph glyph-name="Lslash" unicode="&#x141;" horiz-adv-x="631" 
d="M626 0h-525v294l-71 -10v116l71 9v291h229v-259l201 27v-118l-201 -26v-120h296v-204z" />
    <glyph glyph-name="lslash" unicode="&#x142;" horiz-adv-x="416" 
d="M97 0v296l-67 -13v113l67 15v289h217v-243l72 16v-118l-72 -15v-340h-217z" />
    <glyph glyph-name="Nacute" unicode="&#x143;" horiz-adv-x="790" 
d="M507 0l-226 358v-358h-221v700h234l213 -340v340h223v-700h-223zM315 746l55 174h225q-18 -29 -56.5 -87t-57.5 -87h-166z" />
    <glyph glyph-name="nacute" unicode="&#x144;" horiz-adv-x="615" 
d="M255 275v-275h-215v522h193l7 -59q56 69 149 69q84 0 137.5 -52.5t53.5 -139.5v-340h-215v275q0 60 -53 60q-27 0 -42 -15.5t-15 -44.5zM222 566l55 174h225q-18 -29 -56.5 -87t-57.5 -87h-166z" />
    <glyph glyph-name="Ncommaaccent" unicode="&#x145;" horiz-adv-x="790" 
d="M507 0l-226 358v-358h-221v700h234l213 -340v340h223v-700h-223zM250 -224l55 174h225q-18 -29 -56.5 -87t-57.5 -87h-166z" />
    <glyph glyph-name="ncommaaccent" unicode="&#x146;" horiz-adv-x="615" 
d="M255 275v-275h-215v522h193l7 -59q56 69 149 69q84 0 137.5 -52.5t53.5 -139.5v-340h-215v275q0 60 -53 60q-27 0 -42 -15.5t-15 -44.5zM155 -224l55 174h225q-19 -29 -57.5 -87t-56.5 -87h-166z" />
    <glyph glyph-name="Ncaron" unicode="&#x147;" horiz-adv-x="790" 
d="M507 0l-226 358v-358h-221v700h234l213 -340v340h223v-700h-223zM620 920l-130 -174h-190l-130 174h184l46 -52l48 52h172z" />
    <glyph glyph-name="ncaron" unicode="&#x148;" horiz-adv-x="615" 
d="M255 275v-275h-215v522h193l7 -59q56 69 149 69q84 0 137.5 -52.5t53.5 -139.5v-340h-215v275q0 60 -53 60q-27 0 -42 -15.5t-15 -44.5zM536 740l-130 -174h-190l-130 174h184l46 -52l48 52h172z" />
    <glyph glyph-name="Eng" unicode="&#x14a;" horiz-adv-x="790" 
d="M294 700l213 -340v340h223v-636q0 -109 -59.5 -171.5t-162.5 -62.5q-37 0 -66.5 6t-41.5 12l-11 6l40 163q22 -7 50 -7l20 3l-218 345v-358h-221v700h234z" />
    <glyph glyph-name="eng" unicode="&#x14b;" horiz-adv-x="615" 
d="M255 275v-275h-215v522h193l7 -59q56 69 149 69q84 0 137.5 -52.5t53.5 -139.5v-255q0 -126 -60.5 -190.5t-176.5 -64.5q-18 0 -34.5 2t-24.5 4l-7 3l15 179q8 -2 23 -2q25 0 37.5 11.5t12.5 40.5v207q0 60 -53 60q-27 0 -42 -15.5t-15 -44.5z" />
    <glyph glyph-name="Omacron" unicode="&#x14c;" horiz-adv-x="815" 
d="M411 710q159 0 264 -102.5t105 -254.5t-108.5 -257.5t-267.5 -105.5q-160 0 -264.5 102t-104.5 254q0 153 108 258.5t268 105.5zM262 350q0 -63 42 -106.5t103 -43.5t103 43.5t42 106.5t-42 106.5t-103 43.5t-103 -43.5t-42 -106.5zM226 778v120h360v-120h-360z" />
    <glyph glyph-name="omacron" unicode="&#x14d;" horiz-adv-x="631" 
d="M319 532q125 0 206 -76t81 -191t-84.5 -195t-209.5 -80t-206 76.5t-81 191.5t84.5 194.5t209.5 79.5zM239 261q0 -33 21.5 -54.5t54.5 -21.5t55 21.5t22 54.5t-22 55t-55 22t-54.5 -22t-21.5 -55zM135 600v120h360v-120h-360z" />
    <glyph glyph-name="Obreve" unicode="&#x14e;" horiz-adv-x="815" 
d="M411 710q159 0 264 -102.5t105 -254.5t-108.5 -257.5t-267.5 -105.5q-160 0 -264.5 102t-104.5 254q0 153 108 258.5t268 105.5zM262 350q0 -63 42 -106.5t103 -43.5t103 43.5t42 106.5t-42 106.5t-103 43.5t-103 -43.5t-42 -106.5zM225 920h139v-15q0 -17 10.5 -28.5
t30.5 -11.5q40 0 40 40v15h142v-5q0 -76 -50.5 -122.5t-130.5 -46.5t-130.5 46.5t-50.5 122.5v5z" />
    <glyph glyph-name="obreve" unicode="&#x14f;" horiz-adv-x="631" 
d="M319 532q125 0 206 -76t81 -191t-84.5 -195t-209.5 -80t-206 76.5t-81 191.5t84.5 194.5t209.5 79.5zM239 261q0 -33 21.5 -54.5t54.5 -21.5t55 21.5t22 54.5t-22 55t-55 22t-54.5 -22t-21.5 -55zM134 740h139v-15q0 -17 10.5 -28.5t30.5 -11.5q40 0 40 40v15h142v-5
q0 -76 -50.5 -122.5t-130.5 -46.5t-130.5 46.5t-50.5 122.5v5z" />
    <glyph glyph-name="Ohungarumlaut" unicode="&#x150;" horiz-adv-x="815" 
d="M411 710q159 0 264 -102.5t105 -254.5t-108.5 -257.5t-267.5 -105.5q-160 0 -264.5 102t-104.5 254q0 153 108 258.5t268 105.5zM262 350q0 -63 42 -106.5t103 -43.5t103 43.5t42 106.5t-42 106.5t-103 43.5t-103 -43.5t-42 -106.5zM455 746l45 174h220l-105 -174h-160z
M215 746l46 174h220l-106 -174h-160z" />
    <glyph glyph-name="ohungarumlaut" unicode="&#x151;" horiz-adv-x="631" 
d="M319 532q125 0 206 -76t81 -191t-84.5 -195t-209.5 -80t-206 76.5t-81 191.5t84.5 194.5t209.5 79.5zM239 261q0 -33 21.5 -54.5t54.5 -21.5t55 21.5t22 54.5t-22 55t-55 22t-54.5 -22t-21.5 -55zM353 566l45 174h220l-105 -174h-160zM113 566l46 174h220l-106 -174h-160
z" />
    <glyph glyph-name="OE" unicode="&#x152;" horiz-adv-x="1041" 
d="M1006 0h-582q-168 0 -278.5 98.5t-110.5 248.5t114 251.5t282 101.5h565v-197h-316v-67h266v-166h-266v-73h326v-197zM451 197v306h-30q-70 0 -115 -42.5t-45 -110.5t45 -110.5t115 -42.5h30z" />
    <glyph glyph-name="oe" unicode="&#x153;" horiz-adv-x="975" 
d="M936 218h-329q9 -20 33.5 -34.5t57.5 -14.5q27 0 51 9t35 18l10 9l121 -127q-3 -4 -8.5 -9.5t-26.5 -21t-46 -27t-66.5 -21t-88.5 -9.5q-112 0 -183 66q-74 -66 -184 -66q-125 0 -206 76.5t-81 191.5t84.5 194.5t209.5 79.5q112 0 182 -65q73 65 182 65q112 0 189.5 -70
t77.5 -167q0 -22 -3.5 -41t-6.5 -28zM239 261q0 -33 21.5 -54.5t54.5 -21.5t55 21.5t22 54.5t-22 55t-55 22t-54.5 -22t-21.5 -55zM678 384q-28 0 -46.5 -17.5t-21.5 -42.5h135q-2 25 -20.5 42.5t-46.5 17.5z" />
    <glyph glyph-name="Racute" unicode="&#x154;" horiz-adv-x="710" 
d="M363 512h-74v-132h74q36 0 56 17.5t20 48.5t-20 48.5t-56 17.5zM60 0v700h335q120 0 195 -66.5t75 -174.5q0 -137 -114 -209l144 -250h-261l-107 209h-38v-209h-229zM271 746l55 174h225q-18 -29 -56.5 -87t-57.5 -87h-166z" />
    <glyph glyph-name="racute" unicode="&#x155;" horiz-adv-x="440" 
d="M40 0v522h191l10 -84q53 94 174 94l-2 -220h-46q-57 0 -84.5 -25.5t-27.5 -85.5v-201h-215zM140 566l55 174h225q-19 -29 -57.5 -87t-56.5 -87h-166z" />
    <glyph glyph-name="Rcommaaccent" unicode="&#x156;" horiz-adv-x="710" 
d="M363 512h-74v-132h74q36 0 56 17.5t20 48.5t-20 48.5t-56 17.5zM60 0v700h335q120 0 195 -66.5t75 -174.5q0 -137 -114 -209l144 -250h-261l-107 209h-38v-209h-229zM205 -224l55 174h225l-57 -87l-57 -87h-166z" />
    <glyph glyph-name="rcommaaccent" unicode="&#x157;" horiz-adv-x="440" 
d="M40 0v522h191l10 -84q53 94 174 94l-2 -220h-46q-57 0 -84.5 -25.5t-27.5 -85.5v-201h-215zM-20 -224l55 174h225q-18 -29 -56.5 -87t-57.5 -87h-166z" />
    <glyph glyph-name="Rcaron" unicode="&#x158;" horiz-adv-x="710" 
d="M363 512h-74v-132h74q36 0 56 17.5t20 48.5t-20 48.5t-56 17.5zM60 0v700h335q120 0 195 -66.5t75 -174.5q0 -137 -114 -209l144 -250h-261l-107 209h-38v-209h-229zM571 920l-130 -174h-190l-130 174h184l46 -52l48 52h172z" />
    <glyph glyph-name="rcaron" unicode="&#x159;" horiz-adv-x="440" 
d="M40 0v522h191l10 -84q53 94 174 94l-2 -220h-46q-57 0 -84.5 -25.5t-27.5 -85.5v-201h-215zM444 740l-130 -174h-190l-130 174h184l46 -52l48 52h172z" />
    <glyph glyph-name="Sacute" unicode="&#x15a;" horiz-adv-x="605" 
d="M382 441q188 -86 188 -223q0 -95 -77.5 -161.5t-195.5 -66.5q-52 0 -101 12t-81.5 28.5t-57 33.5t-35.5 29l-12 12l132 143q9 -9 23.5 -21.5t57 -33.5t79.5 -21q15 0 24.5 7t9.5 17q0 16 -23 33.5t-95 47.5q-164 71 -164 214q0 97 72.5 158t190.5 61q45 0 88 -10.5
t72 -25t52 -29t34 -25.5l11 -10l-132 -141q-6 7 -17.5 16.5t-43.5 26t-62 16.5q-33 0 -33 -22q0 -14 16.5 -25t79.5 -40zM227 746l55 174h225q-18 -29 -56.5 -87t-57.5 -87h-166z" />
    <glyph glyph-name="sacute" unicode="&#x15b;" horiz-adv-x="493" 
d="M314 331q72 -26 113 -69.5t41 -96.5q0 -81 -60 -128t-167 -47q-65 0 -124 21.5t-85 42.5l-27 21l85 124q9 -7 23.5 -17t53 -26.5t69.5 -16.5q19 0 19 12q0 15 -81 45q-141 52 -141 169q0 70 58.5 118.5t159.5 48.5q56 0 111 -19t82 -37l26 -19l-82 -127q-70 53 -128 53
q-19 0 -19 -11q0 -15 73 -41zM155 566l55 174h225q-19 -29 -57.5 -87t-56.5 -87h-166z" />
    <glyph glyph-name="Scircumflex" unicode="&#x15c;" horiz-adv-x="605" 
d="M382 441q188 -86 188 -223q0 -95 -77.5 -161.5t-195.5 -66.5q-52 0 -101 12t-81.5 28.5t-57 33.5t-35.5 29l-12 12l132 143q9 -9 23.5 -21.5t57 -33.5t79.5 -21q15 0 24.5 7t9.5 17q0 16 -23 33.5t-95 47.5q-164 71 -164 214q0 97 72.5 158t190.5 61q45 0 88 -10.5
t72 -25t52 -29t34 -25.5l11 -10l-132 -141q-6 7 -17.5 16.5t-43.5 26t-62 16.5q-33 0 -33 -22q0 -14 16.5 -25t79.5 -40zM92 746l130 174h190l130 -174h-184l-46 52l-48 -52h-172z" />
    <glyph glyph-name="scircumflex" unicode="&#x15d;" horiz-adv-x="493" 
d="M314 331q72 -26 113 -69.5t41 -96.5q0 -81 -60 -128t-167 -47q-65 0 -124 21.5t-85 42.5l-27 21l85 124q9 -7 23.5 -17t53 -26.5t69.5 -16.5q19 0 19 12q0 15 -81 45q-141 52 -141 169q0 70 58.5 118.5t159.5 48.5q56 0 111 -19t82 -37l26 -19l-82 -127q-70 53 -128 53
q-19 0 -19 -11q0 -15 73 -41zM27 566l130 174h190l130 -174h-184l-46 52l-48 -52h-172z" />
    <glyph glyph-name="Scedilla" unicode="&#x15e;" horiz-adv-x="605" 
d="M382 441q188 -86 188 -223q0 -79 -55.5 -140t-145.5 -80q6 -18 6 -38q0 -70 -52.5 -112.5t-121.5 -42.5q-28 0 -54.5 6.5t-38.5 12.5l-13 6l40 120q15 -10 42 -10q21 0 35.5 10.5t14.5 31.5q0 10 -3 14q-62 10 -115.5 37.5t-76.5 49.5l-22 22l132 143q9 -9 23.5 -21.5
t57 -33.5t79.5 -21q15 0 24.5 7t9.5 17q0 16 -23 33.5t-95 47.5q-164 71 -164 214q0 97 72.5 158t190.5 61q45 0 88 -10.5t72 -25t52 -29t34 -25.5l11 -10l-132 -141q-6 7 -17.5 16.5t-43.5 26t-62 16.5q-33 0 -33 -22q0 -14 16.5 -25t79.5 -40z" />
    <glyph glyph-name="scedilla" unicode="&#x15f;" horiz-adv-x="493" 
d="M314 331q72 -26 113 -69.5t41 -96.5q0 -63 -38 -106.5t-107 -59.5q6 -18 6 -39q0 -70 -52.5 -112.5t-121.5 -42.5q-28 0 -54.5 6.5t-38.5 12.5l-13 6l40 120q15 -10 42 -10q21 0 35.5 10.5t14.5 31.5q0 7 -2 13q-48 8 -91.5 28t-63.5 36l-19 16l85 124q9 -7 23.5 -17
t53 -26.5t69.5 -16.5q19 0 19 12q0 15 -81 45q-141 52 -141 169q0 70 58.5 118.5t159.5 48.5q56 0 111 -19t82 -37l26 -19l-82 -127q-70 53 -128 53q-19 0 -19 -11q0 -15 73 -41z" />
    <glyph glyph-name="Scaron" unicode="&#x160;" horiz-adv-x="605" 
d="M382 441q188 -86 188 -223q0 -95 -77.5 -161.5t-195.5 -66.5q-52 0 -101 12t-81.5 28.5t-57 33.5t-35.5 29l-12 12l132 143q9 -9 23.5 -21.5t57 -33.5t79.5 -21q15 0 24.5 7t9.5 17q0 16 -23 33.5t-95 47.5q-164 71 -164 214q0 97 72.5 158t190.5 61q45 0 88 -10.5
t72 -25t52 -29t34 -25.5l11 -10l-132 -141q-6 7 -17.5 16.5t-43.5 26t-62 16.5q-33 0 -33 -22q0 -14 16.5 -25t79.5 -40zM535 920l-130 -174h-190l-130 174h184l46 -52l48 52h172z" />
    <glyph glyph-name="scaron" unicode="&#x161;" horiz-adv-x="495" 
d="M314 331q72 -26 113 -69.5t41 -96.5q0 -81 -60 -128t-167 -47q-65 0 -124 21.5t-85 42.5l-27 21l85 124q9 -7 23.5 -17t53 -26.5t69.5 -16.5q19 0 19 12q0 15 -81 45q-141 52 -141 169q0 70 58.5 118.5t159.5 48.5q56 0 111 -19t82 -37l26 -19l-82 -127q-70 53 -128 53
q-19 0 -19 -11q0 -15 73 -41zM480 740l-130 -174h-190l-130 174h184l46 -52l48 52h172z" />
    <glyph glyph-name="Tcommaaccent" unicode="&#x162;" horiz-adv-x="590" 
d="M585 501h-176v-501h-226v501h-178v199h580v-199zM128 -224l55 174h225q-18 -29 -57 -87t-57 -87h-166z" />
    <glyph glyph-name="tcommaaccent" unicode="&#x163;" horiz-adv-x="470" 
d="M320 640v-118h120v-167h-120v-133q0 -35 34 -35q14 0 29.5 1.5t24.5 3.5l9 2l23 -178q-67 -26 -152 -26t-134 43.5t-49 122.5v199h-85v167h85v118h215zM118 -224l55 174h225q-19 -29 -57.5 -87t-56.5 -87h-166z" />
    <glyph glyph-name="Tcaron" unicode="&#x164;" horiz-adv-x="590" 
d="M585 501h-176v-501h-226v501h-178v199h580v-199zM520 920l-130 -174h-190l-130 174h184l46 -52l48 52h172z" />
    <glyph glyph-name="tcaron" unicode="&#x165;" horiz-adv-x="530" 
d="M320 640v-118h120v-167h-120v-133q0 -35 34 -35q14 0 29.5 1.5t24.5 3.5l9 2l23 -178q-67 -26 -152 -26t-134 43.5t-49 122.5v199h-85v167h85v118h215zM505 570h-155l30 220h210z" />
    <glyph glyph-name="Tbar" unicode="&#x166;" horiz-adv-x="590" 
d="M585 501h-176v-112h157v-115h-157v-274h-226v274h-159v115h159v112h-178v199h580v-199z" />
    <glyph glyph-name="tbar" unicode="&#x167;" horiz-adv-x="470" 
d="M320 640v-118h120v-160h-120v-33h120v-117h-120v-3q0 -28 31 -28q14 0 30.5 2.5t26.5 4.5l9 2l23 -172q-64 -28 -152 -28q-85 0 -134 44t-49 124v54h-85v117h85v33h-85v160h85v118h215z" />
    <glyph glyph-name="Utilde" unicode="&#x168;" horiz-adv-x="740" 
d="M466 700h224v-404q0 -139 -88.5 -222.5t-233.5 -83.5q-148 0 -233 80t-85 219v411h231v-402q0 -46 24 -73t68 -27t68.5 27t24.5 73v402zM283 755l-96 12q0 6 1 17t8 38t18.5 48t36 38t56.5 17t56.5 -13.5t41.5 -27t32 -13.5q10 0 17 11t8 22l2 11l96 -12q0 -6 -1 -17
t-8 -38t-18.5 -48t-36 -38t-56.5 -17t-56.5 13.5t-41.5 27t-32 13.5q-10 0 -17 -11t-9 -22z" />
    <glyph glyph-name="utilde" unicode="&#x169;" horiz-adv-x="615" 
d="M360 247v275h215v-522h-193l-7 59q-56 -69 -149 -69q-84 0 -137.5 52.5t-53.5 139.5v340h215v-275q0 -60 53 -60q27 0 42 15.5t15 44.5zM218 575l-96 12q0 6 1 17t8 38t18.5 48t36 38t56.5 17t56.5 -13.5t41.5 -27t32 -13.5q10 0 17 11t9 22l1 11l96 -12q0 -6 -1 -17
t-8 -38t-18.5 -48t-36 -38t-56.5 -17t-56.5 13.5t-41.5 27t-32 13.5q-10 0 -17 -11t-8 -22z" />
    <glyph glyph-name="Umacron" unicode="&#x16a;" horiz-adv-x="740" 
d="M466 700h224v-404q0 -139 -88.5 -222.5t-233.5 -83.5q-148 0 -233 80t-85 219v411h231v-402q0 -46 24 -73t68 -27t68.5 27t24.5 73v402zM193 778v120h360v-120h-360z" />
    <glyph glyph-name="umacron" unicode="&#x16b;" horiz-adv-x="615" 
d="M360 247v275h215v-522h-193l-7 59q-56 -69 -149 -69q-84 0 -137.5 52.5t-53.5 139.5v340h215v-275q0 -60 53 -60q27 0 42 15.5t15 44.5zM127 600v120h360v-120h-360z" />
    <glyph glyph-name="Ubreve" unicode="&#x16c;" horiz-adv-x="740" 
d="M466 700h224v-404q0 -139 -88.5 -222.5t-233.5 -83.5q-148 0 -233 80t-85 219v411h231v-402q0 -46 24 -73t68 -27t68.5 27t24.5 73v402zM191 920h139v-15q0 -17 10.5 -28.5t30.5 -11.5q40 0 40 40v15h142v-5q0 -76 -50.5 -122.5t-130.5 -46.5t-130.5 46.5t-50.5 122.5v5z
" />
    <glyph glyph-name="ubreve" unicode="&#x16d;" horiz-adv-x="615" 
d="M360 247v275h215v-522h-193l-7 59q-56 -69 -149 -69q-84 0 -137.5 52.5t-53.5 139.5v340h215v-275q0 -60 53 -60q27 0 42 15.5t15 44.5zM126 740h139v-15q0 -17 10.5 -28.5t30.5 -11.5q40 0 40 40v15h142v-5q0 -76 -50.5 -122.5t-130.5 -46.5t-130.5 46.5t-50.5 122.5v5z
" />
    <glyph glyph-name="Uring" unicode="&#x16e;" horiz-adv-x="740" 
d="M466 700h224v-404q0 -139 -88.5 -222.5t-233.5 -83.5q-148 0 -233 80t-85 219v411h231v-402q0 -46 24 -73t68 -27t68.5 27t24.5 73v402zM374 945q50 0 81.5 -30t31.5 -76q0 -47 -31.5 -77.5t-81.5 -30.5t-81 30.5t-31 77.5q0 46 31 76t81 30zM374 802q17 0 27 10t10 25
t-10 25.5t-27 10.5t-26.5 -10.5t-9.5 -25.5t9.5 -25t26.5 -10z" />
    <glyph glyph-name="uring" unicode="&#x16f;" horiz-adv-x="615" 
d="M360 247v275h215v-522h-193l-7 59q-56 -69 -149 -69q-84 0 -137.5 52.5t-53.5 139.5v340h215v-275q0 -60 53 -60q27 0 42 15.5t15 44.5zM305 767q50 0 81.5 -30t31.5 -76q0 -47 -31.5 -77.5t-81.5 -30.5t-81 30.5t-31 77.5q0 46 31 76t81 30zM305 624q17 0 27 10t10 25
t-10 25.5t-27 10.5t-26.5 -10.5t-9.5 -25.5t9.5 -25t26.5 -10z" />
    <glyph glyph-name="Uhungarumlaut" unicode="&#x170;" horiz-adv-x="740" 
d="M466 700h224v-404q0 -139 -88.5 -222.5t-233.5 -83.5q-148 0 -233 80t-85 219v411h231v-402q0 -46 24 -73t68 -27t68.5 27t24.5 73v402zM409 746l45 174h220l-105 -174h-160zM169 746l46 174h220l-106 -174h-160z" />
    <glyph glyph-name="uhungarumlaut" unicode="&#x171;" horiz-adv-x="615" 
d="M360 247v275h215v-522h-193l-7 59q-56 -69 -149 -69q-84 0 -137.5 52.5t-53.5 139.5v340h215v-275q0 -60 53 -60q27 0 42 15.5t15 44.5zM349 566l45 174h220l-105 -174h-160zM109 566l46 174h220l-106 -174h-160z" />
    <glyph glyph-name="Uogonek" unicode="&#x172;" horiz-adv-x="740" 
d="M466 700h224v-404q0 -117 -64 -196t-174 -101q-11 -8 -11 -23q0 -12 9.5 -20t26.5 -8q10 0 20 2t15 4l4 2l39 -112q-39 -31 -102 -31q-62 0 -105 37.5t-43 103.5q0 22 6 40q-123 14 -192 92t-69 203v411h231v-402q0 -46 24 -73t68 -27t68.5 27t24.5 73v402z" />
    <glyph glyph-name="uogonek" unicode="&#x173;" horiz-adv-x="615" 
d="M360 247v275h215v-522h-70q-14 -7 -14 -24q0 -12 9.5 -20t26.5 -8q10 0 20 2t15 4l4 2l39 -112q-39 -31 -102 -31q-62 0 -105 37.5t-43 103.5q0 42 24 73l-4 32q-56 -69 -149 -69q-84 0 -137.5 52.5t-53.5 139.5v340h215v-275q0 -60 53 -60q27 0 42 15.5t15 44.5z" />
    <glyph glyph-name="Wcircumflex" unicode="&#x174;" horiz-adv-x="1025" 
d="M222 0l-232 700h250l101 -354l95 354h163l97 -354l99 354h240l-234 -700h-195l-94 324l-90 -324h-200zM291 746l130 174h190l130 -174h-184l-46 52l-48 -52h-172z" />
    <glyph glyph-name="wcircumflex" unicode="&#x175;" horiz-adv-x="815" 
d="M151 0l-166 522h231l57 -245l60 245h161l56 -239l58 239h222l-166 -522h-203l-53 204l-54 -204h-203zM182 566l130 174h190l130 -174h-184l-46 52l-48 -52h-172z" />
    <glyph glyph-name="Ycircumflex" unicode="&#x176;" horiz-adv-x="710" 
d="M241 0v240l-251 460h261l110 -241l108 241h251l-253 -460v-240h-226zM136 746l130 174h190l130 -174h-184l-46 52l-48 -52h-172z" />
    <glyph glyph-name="ycircumflex" unicode="&#x177;" horiz-adv-x="566" 
d="M171 22l-186 500h239l67 -270l65 270h225l-193 -527q-31 -86 -85.5 -125.5t-141.5 -39.5q-46 0 -90 11.5t-65 22.5l-21 12l63 167q46 -25 98 -25zM66 566l130 174h190l130 -174h-184l-46 52l-48 -52h-172z" />
    <glyph glyph-name="Ydieresis" unicode="&#x178;" horiz-adv-x="710" 
d="M241 0v240l-251 460h261l110 -241l108 241h251l-253 -460v-240h-226zM240 948q45 0 74.5 -29.5t29.5 -74.5t-30 -75t-75 -30t-74.5 29.5t-29.5 74.5t30 75t75 30zM483 948q45 0 74.5 -29.5t29.5 -74.5t-30 -75t-75 -30t-74.5 29.5t-29.5 74.5t30 75t75 30z" />
    <glyph glyph-name="Zacute" unicode="&#x179;" horiz-adv-x="700" 
d="M660 0h-620v169l315 340h-295v191h600v-167l-315 -340h315v-193zM275 746l55 174h225q-18 -29 -56.5 -87t-57.5 -87h-166z" />
    <glyph glyph-name="zacute" unicode="&#x17a;" horiz-adv-x="555" 
d="M30 156l203 191h-188v175h480v-154l-201 -188h201v-180h-495v156zM202 566l55 174h225q-18 -29 -56.5 -87t-57.5 -87h-166z" />
    <glyph glyph-name="Zdotaccent" unicode="&#x17b;" horiz-adv-x="700" 
d="M660 0h-620v169l315 340h-295v191h600v-167l-315 -340h315v-193zM265 837q0 43 30 72t74 29t74.5 -29t30.5 -72t-30 -71.5t-75 -28.5q-44 0 -74 28.5t-30 71.5z" />
    <glyph glyph-name="zdotaccent" unicode="&#x17c;" horiz-adv-x="555" 
d="M30 156l203 191h-188v175h480v-154l-201 -188h201v-180h-495v156zM187 659q0 43 30 72t74 29t74.5 -29t30.5 -72t-30 -71.5t-75 -28.5q-44 0 -74 28.5t-30 71.5z" />
    <glyph glyph-name="Zcaron" unicode="&#x17d;" horiz-adv-x="700" 
d="M660 0h-620v169l315 340h-295v191h600v-167l-315 -340h315v-193zM585 920l-130 -174h-190l-130 174h184l46 -52l48 52h172z" />
    <glyph glyph-name="zcaron" unicode="&#x17e;" horiz-adv-x="555" 
d="M30 156l203 191h-188v175h480v-154l-201 -188h201v-180h-495v156zM505 740l-130 -174h-190l-130 174h184l46 -52l48 52h172z" />
    <glyph glyph-name="florin" unicode="&#x192;" 
d="M315 -160h-215l33 423h-108v126h117l7 83q10 115 76 176.5t175 61.5q43 0 80 -12.5t60 -30.5t39.5 -36t23.5 -31l7 -12l-151 -105q-14 30 -48 30q-44 0 -48 -48l-7 -76h154v-126h-162z" />
    <glyph glyph-name="Aringacute" unicode="&#x1fa;" horiz-adv-x="740" 
d="M482 700l268 -700h-252l-29 96h-212l-29 -96h-238l266 700h8q-6 16 -6 38q0 53 39 83l29 99h225l-83 -128q15 -24 15 -54q0 -22 -6 -38h5zM364 439l-53 -172h105zM370 701q17 0 27 10t10 25t-10 25.5t-27 10.5t-26.5 -10.5t-9.5 -25.5t9.5 -25t26.5 -10z" />
    <glyph glyph-name="aringacute" unicode="&#x1fb;" horiz-adv-x="580" 
d="M220 311q59 0 100 -17v2q0 24 -24 40.5t-60 16.5q-27 0 -54 -7t-40 -14l-14 -7l-83 137q61 47 164 64q-14 25 -14 56q0 59 48 89l20 69h225l-76 -117q8 -21 8 -41q0 -40 -25 -70q66 -26 103 -82.5t37 -137.5v-292h-169l-13 32q-59 -42 -142 -42q-91 0 -143.5 42.5
t-52.5 114.5t57 118t148 46zM230 156q0 -17 13 -28t34 -11t34.5 11t13.5 28t-13.5 28t-34.5 11t-34 -11t-13 -28zM307 545q17 0 27 10t10 25t-10 25.5t-27 10.5t-26.5 -10.5t-9.5 -25.5t9.5 -25t26.5 -10z" />
    <glyph glyph-name="AEacute" unicode="&#x1fc;" horiz-adv-x="1075" 
d="M364 267h121v247zM1030 503h-316v-67h266v-166h-266v-73h326v-197h-555v96h-205l-48 -96h-252l385 700h665v-197zM628 746l55 174h225q-19 -29 -57.5 -87t-56.5 -87h-166z" />
    <glyph glyph-name="aeacute" unicode="&#x1fd;" horiz-adv-x="903" 
d="M220 311q59 0 100 -17v1q0 25 -23.5 41.5t-60.5 16.5q-27 0 -54 -7t-40 -14l-14 -7l-83 137q10 8 29 19.5t82.5 31t131.5 19.5q90 0 154 -51q70 51 169 51q112 0 189.5 -70t77.5 -167q0 -22 -3.5 -41t-6.5 -28l-4 -8h-329q9 -20 33.5 -34.5t57.5 -14.5q27 0 51 9t35 18
l10 9l121 -127q-3 -4 -8.5 -9.5t-26.5 -21t-46 -27t-66.5 -21t-88.5 -9.5q-117 0 -180 60q-76 -60 -185 -60q-106 0 -166.5 43.5t-60.5 115.5t57 117t148 45zM230 156q0 -17 13 -28t34 -11t34.5 11t13.5 28t-13.5 28t-34.5 11t-34 -11t-13 -28zM606 384q-28 0 -46.5 -17.5
t-21.5 -42.5h135q-2 25 -20.5 42.5t-46.5 17.5zM360 566l55 174h225q-19 -29 -57.5 -87t-56.5 -87h-166z" />
    <glyph glyph-name="Oslashacute" unicode="&#x1fe;" horiz-adv-x="815" 
d="M411 710q102 0 187 -47l56 67h137l-108 -131q97 -100 97 -246q0 -152 -108.5 -257.5t-267.5 -105.5q-103 0 -187 45l-54 -65h-142l109 131q-95 100 -95 245q0 153 108 258.5t268 105.5zM256 350q0 -42 18 -77l185 223q-27 10 -52 10q-64 0 -107.5 -45t-43.5 -111z
M558 350q0 38 -18 76l-185 -223q24 -9 52 -9q64 0 107.5 45t43.5 111zM321 746l55 174h225q-18 -29 -56.5 -87t-57.5 -87h-166z" />
    <glyph glyph-name="oslashacute" unicode="&#x1ff;" horiz-adv-x="631" 
d="M319 532q65 0 123 -24l36 47h123l-75 -100q80 -75 80 -190t-84.5 -195t-209.5 -80q-61 0 -122 23l-32 -43h-128l74 97q-79 76 -79 191t84.5 194.5t209.5 79.5zM210 261q0 -25 9 -44l112 147q-5 1 -16 1q-45 0 -75 -29.5t-30 -74.5zM420 261q0 23 -9 43l-110 -146h14
q45 0 75 29t30 74zM230 566l55 174h225q-18 -29 -56.5 -87t-57.5 -87h-166z" />
    <glyph glyph-name="Scommaaccent" unicode="&#x218;" horiz-adv-x="605" 
d="M382 441q188 -86 188 -223q0 -95 -77.5 -161.5t-195.5 -66.5q-52 0 -101 12t-81.5 28.5t-57 33.5t-35.5 29l-12 12l132 143q9 -9 23.5 -21.5t57 -33.5t79.5 -21q15 0 24.5 7t9.5 17q0 16 -23 33.5t-95 47.5q-164 71 -164 214q0 97 72.5 158t190.5 61q45 0 88 -10.5
t72 -25t52 -29t34 -25.5l11 -10l-132 -141q-6 7 -17.5 16.5t-43.5 26t-62 16.5q-33 0 -33 -22q0 -14 16.5 -25t79.5 -40zM138 -224l55 174h225q-19 -29 -57.5 -87t-56.5 -87h-166z" />
    <glyph glyph-name="scommaaccent" unicode="&#x219;" horiz-adv-x="493" 
d="M314 331q72 -26 113 -69.5t41 -96.5q0 -81 -60 -128t-167 -47q-65 0 -124 21.5t-85 42.5l-27 21l85 124q9 -7 23.5 -17t53 -26.5t69.5 -16.5q19 0 19 12q0 15 -81 45q-141 52 -141 169q0 70 58.5 118.5t159.5 48.5q56 0 111 -19t82 -37l26 -19l-82 -127q-70 53 -128 53
q-19 0 -19 -11q0 -15 73 -41zM70 -224l55 174h225q-18 -29 -56.5 -87t-57.5 -87h-166z" />
    <glyph glyph-name="circumflex" unicode="&#x2c6;" horiz-adv-x="530" 
d="M40 566l130 174h190l130 -174h-184l-46 52l-48 -52h-172z" />
    <glyph glyph-name="caron" unicode="&#x2c7;" horiz-adv-x="530" 
d="M490 740l-130 -174h-190l-130 174h184l46 -52l48 52h172z" />
    <glyph glyph-name="breve" unicode="&#x2d8;" horiz-adv-x="452" 
d="M45 740h139v-15q0 -17 10.5 -28.5t30.5 -11.5q40 0 40 40v15h142v-5q0 -76 -50.5 -122.5t-130.5 -46.5t-130.5 46.5t-50.5 122.5v5z" />
    <glyph glyph-name="dotaccent" unicode="&#x2d9;" horiz-adv-x="279" 
d="M35 659q0 43 30 72t74 29t74.5 -29t30.5 -72t-30 -71.5t-75 -28.5q-44 0 -74 28.5t-30 71.5z" />
    <glyph glyph-name="ring" unicode="&#x2da;" horiz-adv-x="320" 
d="M160 767q50 0 81.5 -30t31.5 -76q0 -47 -31.5 -77.5t-81.5 -30.5t-81 30.5t-31 77.5q0 46 31 76t81 30zM160 624q17 0 27 10t10 25t-10 25.5t-27 10.5t-26.5 -10.5t-9.5 -25.5t9.5 -25t26.5 -10z" />
    <glyph glyph-name="ogonek" unicode="&#x2db;" horiz-adv-x="345" 
d="M155 79l50 -79q-14 -7 -14 -24q0 -12 9.5 -20t26.5 -8q10 0 20 2t15 4l4 2l39 -112q-39 -31 -102 -31q-62 0 -105 37.5t-43 103.5q0 27 10.5 50t25 36.5t29 22.5t24.5 13z" />
    <glyph glyph-name="tilde" unicode="&#x2dc;" horiz-adv-x="467" 
d="M142 575l-96 12q0 6 1 17t8 38t18.5 48t36 38t56.5 17t56.5 -13.5t41.5 -27t32 -13.5q10 0 17 11t9 22l1 11l96 -12q0 -6 -1 -17t-8 -38t-18.5 -48t-36 -38t-56.5 -17t-56.5 13.5t-41.5 27t-32 13.5q-10 0 -17 -11t-8 -22z" />
    <glyph glyph-name="hungarumlaut" unicode="&#x2dd;" horiz-adv-x="570" 
d="M274 566l45 174h220l-105 -174h-160zM34 566l46 174h220l-106 -174h-160z" />
    <glyph glyph-name="Delta" unicode="&#x394;" horiz-adv-x="750" 
d="M369 442l-66 -238h136zM-10 0l273 700h229l268 -700h-770z" />
    <glyph glyph-name="Delta" unicode="&#x2206;" horiz-adv-x="750" 
d="M369 442l-66 -238h136zM-10 0l273 700h229l268 -700h-770z" />
    <glyph glyph-name="pi" unicode="&#x3c0;" horiz-adv-x="730" 
d="M20 350v172h680v-172h-95v-140q0 -29 31 -29l34 5l30 -171q-45 -25 -136 -25q-80 0 -127 42.5t-47 120.5v197h-60v-350h-215v350h-95z" />
    <glyph glyph-name="Wgrave" unicode="&#x1e80;" horiz-adv-x="1025" 
d="M222 0l-232 700h250l101 -354l95 354h163l97 -354l99 354h240l-234 -700h-195l-94 324l-90 -324h-200zM537 920l55 -174h-166l-114 174h225z" />
    <glyph glyph-name="wgrave" unicode="&#x1e81;" horiz-adv-x="815" 
d="M151 0l-166 522h231l57 -245l60 245h161l56 -239l58 239h222l-166 -522h-203l-53 204l-54 -204h-203zM437 740l55 -174h-166l-114 174h225z" />
    <glyph glyph-name="Wacute" unicode="&#x1e82;" horiz-adv-x="1025" 
d="M222 0l-232 700h250l101 -354l95 354h163l97 -354l99 354h240l-234 -700h-195l-94 324l-90 -324h-200zM442 746l55 174h225q-19 -29 -57.5 -87t-56.5 -87h-166z" />
    <glyph glyph-name="wacute" unicode="&#x1e83;" horiz-adv-x="815" 
d="M151 0l-166 522h231l57 -245l60 245h161l56 -239l58 239h222l-166 -522h-203l-53 204l-54 -204h-203zM337 566l55 174h225q-18 -29 -56.5 -87t-57.5 -87h-166z" />
    <glyph glyph-name="Wdieresis" unicode="&#x1e84;" horiz-adv-x="1025" 
d="M222 0l-232 700h250l101 -354l95 354h163l97 -354l99 354h240l-234 -700h-195l-94 324l-90 -324h-200zM395 948q45 0 74.5 -29.5t29.5 -74.5t-30 -75t-75 -30t-74.5 29.5t-29.5 74.5t30 75t75 30zM638 948q45 0 74.5 -29.5t29.5 -74.5t-30 -75t-75 -30t-74.5 29.5
t-29.5 74.5t30 75t75 30z" />
    <glyph glyph-name="wdieresis" unicode="&#x1e85;" horiz-adv-x="815" 
d="M151 0l-166 522h231l57 -245l60 245h161l56 -239l58 239h222l-166 -522h-203l-53 204l-54 -204h-203zM285 768q45 0 74.5 -29.5t29.5 -74.5t-30 -75t-75 -30t-74.5 29.5t-29.5 74.5t30 75t75 30zM528 768q45 0 74.5 -29.5t29.5 -74.5t-30 -75t-75 -30t-74.5 29.5
t-29.5 74.5t30 75t75 30z" />
    <glyph glyph-name="uni1E9E" unicode="&#x1e9e;" horiz-adv-x="715" 
d="M660 605l-114 -168q139 -62 139 -205q0 -105 -74.5 -173.5t-200.5 -68.5q-22 0 -47.5 2t-40.5 4l-14 2l27 195q31 -7 52 -7q72 0 72 53q0 20 -18.5 33t-54.5 13h-52v139l56 91q-9 3 -20 3q-42 0 -66.5 -29t-24.5 -85v-404h-229v390q0 147 89.5 233.5t235.5 86.5
q51 0 99.5 -11t80.5 -26t57 -30.5t36 -26.5z" />
    <glyph glyph-name="Ygrave" unicode="&#x1ef2;" horiz-adv-x="710" 
d="M241 0v240l-251 460h261l110 -241l108 241h251l-253 -460v-240h-226zM385 920l55 -174h-166l-114 174h225z" />
    <glyph glyph-name="ygrave" unicode="&#x1ef3;" horiz-adv-x="566" 
d="M171 22l-186 500h239l67 -270l65 270h225l-193 -527q-31 -86 -85.5 -125.5t-141.5 -39.5q-46 0 -90 11.5t-65 22.5l-21 12l63 167q46 -25 98 -25zM318 740l55 -174h-166l-114 174h225z" />
    <glyph glyph-name="endash" unicode="&#x2013;" horiz-adv-x="570" 
d="M520 257h-470v190h470v-190z" />
    <glyph glyph-name="emdash" unicode="&#x2014;" horiz-adv-x="900" 
d="M850 257h-800v190h800v-190z" />
    <glyph glyph-name="quoteleft" unicode="&#x2018;" horiz-adv-x="336" 
d="M131 700h165l-30 -360h-226z" />
    <glyph glyph-name="quoteright" unicode="&#x2019;" horiz-adv-x="336" 
d="M205 340h-165l30 360h226z" />
    <glyph glyph-name="quotesinglbase" unicode="&#x201a;" horiz-adv-x="336" 
d="M205 -130h-165l30 360h226z" />
    <glyph glyph-name="quotedblleft" unicode="&#x201c;" horiz-adv-x="619" 
d="M414 700h165l-30 -360h-226zM131 700h165l-30 -360h-226z" />
    <glyph glyph-name="quotedblright" unicode="&#x201d;" horiz-adv-x="619" 
d="M488 340h-165l30 360h226zM205 340h-165l30 360h226z" />
    <glyph glyph-name="quotedblbase" unicode="&#x201e;" horiz-adv-x="619" 
d="M488 -130h-165l30 360h226zM205 -130h-165l30 360h226z" />
    <glyph glyph-name="dagger" unicode="&#x2020;" horiz-adv-x="425" 
d="M385 473h-104v-213h-140v213h-101v124h101v103h140v-103h104v-124z" />
    <glyph glyph-name="daggerdbl" unicode="&#x2021;" horiz-adv-x="425" 
d="M385 473h-104v-96h104v-123h-104v-104h-140v104h-101v123h101v96h-101v124h101v103h140v-103h104v-124z" />
    <glyph glyph-name="bullet" unicode="&#x2022;" horiz-adv-x="464" 
d="M234 541q82 0 136 -54t54 -136t-55 -138t-137 -56q-83 0 -137.5 54.5t-54.5 137.5q0 82 56 137t138 55z" />
    <glyph glyph-name="perthousand" unicode="&#x2030;" horiz-adv-x="1120" 
d="M112 0l410 600h136l-410 -600h-136zM159 450q0 -16 10.5 -27t27.5 -11t27.5 11t10.5 27t-10.5 27t-27.5 11t-27.5 -11t-10.5 -27zM30 448q0 68 49.5 115t119.5 47t117.5 -45t47.5 -113t-49.5 -115t-119.5 -47t-117.5 45t-47.5 113zM535 150q0 -16 10.5 -27t27.5 -11
t27.5 11t10.5 27t-10.5 27t-27.5 11t-27.5 -11t-10.5 -27zM406 148q0 68 49.5 115t119.5 47t117.5 -45t47.5 -113t-49.5 -115t-119.5 -47t-117.5 45t-47.5 113zM885 150q0 -16 10.5 -27t27.5 -11t27.5 11t10.5 27t-10.5 27t-27.5 11t-27.5 -11t-10.5 -27zM756 148
q0 68 49.5 115t119.5 47t117.5 -45t47.5 -113t-49.5 -115t-119.5 -47t-117.5 45t-47.5 113z" />
    <glyph glyph-name="guilsinglleft" unicode="&#x2039;" horiz-adv-x="479" 
d="M394 500l-123 -148l123 -145l-111 -118l-233 226v70l233 229z" />
    <glyph glyph-name="guilsinglright" unicode="&#x203a;" horiz-adv-x="479" 
d="M85 200l123 148l-123 145l111 118l233 -226v-70l-233 -229z" />
    <glyph glyph-name="fraction" unicode="&#x2044;" horiz-adv-x="230" 
d="M-190 0l478 700h132l-473 -700h-137z" />
    <glyph glyph-name="zerosuperior" unicode="&#x2070;" horiz-adv-x="393" 
d="M169 553v-121q0 -31 27 -31q28 0 28 31v121q0 31 -28 31q-27 0 -27 -31zM30 438v101q0 79 48 123t120 44q75 0 120 -41t45 -120v-104q0 -76 -48.5 -121.5t-119.5 -45.5q-74 0 -119.5 42.5t-45.5 121.5z" />
    <glyph glyph-name="foursuperior" unicode="&#x2074;" horiz-adv-x="383" 
d="M121 459h68v97zM10 467l167 233h138v-241h58v-104h-58v-75h-126v75h-179v112z" />
    <glyph glyph-name="fivesuperior" unicode="&#x2075;" horiz-adv-x="365" 
d="M39 438v262h285v-116h-164v-35q26 13 54 13q58 0 94.5 -38t36.5 -92q0 -72 -45.5 -115t-122.5 -43q-32 0 -59.5 9.5t-44.5 23t-30 27t-18 22.5l-5 10l100 66q2 -4 6 -10.5t18.5 -17t31.5 -10.5t26.5 9.5t9.5 24.5q0 11 -8 20t-22 9q-10 0 -17.5 -4.5t-10.5 -9.5l-3 -5
h-112z" />
    <glyph glyph-name="sixsuperior" unicode="&#x2076;" horiz-adv-x="373" 
d="M224 563q53 0 91 -36t38 -91q0 -74 -48 -118t-120 -44q-68 0 -116.5 43.5t-48.5 109.5q0 64 42 129l93 144h148l-95 -139q8 2 16 2zM152 431q0 -15 9.5 -24.5t24.5 -9.5t24.5 9.5t9.5 24.5t-9.5 24.5t-24.5 9.5t-24.5 -9.5t-9.5 -24.5z" />
    <glyph glyph-name="sevensuperior" unicode="&#x2077;" horiz-adv-x="340" 
d="M24 280l141 300h-144v120h298v-97l-144 -323h-151z" />
    <glyph glyph-name="eightsuperior" unicode="&#x2078;" horiz-adv-x="376" 
d="M191 706q67 0 109 -32t42 -87q0 -44 -38 -82q52 -38 52 -93q0 -60 -48 -99t-123 -39q-73 0 -119 37.5t-46 97.5q0 49 50 94q-34 33 -34 81q0 56 42.5 89t112.5 33zM150 421q0 -16 10.5 -26.5t27.5 -10.5t27.5 10.5t10.5 26.5t-10.5 26.5t-27.5 10.5t-27.5 -10.5
t-10.5 -26.5zM159 574q0 -12 8.5 -20t20.5 -8t20.5 8t8.5 20t-8.5 20t-20.5 8t-20.5 -8t-8.5 -20z" />
    <glyph glyph-name="ninesuperior" unicode="&#x2079;" horiz-adv-x="373" 
d="M149 417q-53 0 -91 36t-38 91q0 74 48 118t120 44q68 0 116.5 -43.5t48.5 -109.5q0 -64 -42 -129l-93 -144h-148l95 139q-8 -2 -16 -2zM221 549q0 15 -9.5 24.5t-24.5 9.5t-24.5 -9.5t-9.5 -24.5t9.5 -24.5t24.5 -9.5t24.5 9.5t9.5 24.5z" />
    <glyph glyph-name="zeroinferior" unicode="&#x2080;" horiz-adv-x="393" 
d="M169 273v-121q0 -31 27 -31q28 0 28 31v121q0 31 -28 31q-27 0 -27 -31zM30 158v101q0 79 48 123t120 44q75 0 120 -41t45 -120v-104q0 -76 -48.5 -121.5t-119.5 -45.5q-74 0 -119.5 42.5t-45.5 121.5z" />
    <glyph glyph-name="oneinferior" unicode="&#x2081;" horiz-adv-x="323" 
d="M10 309l157 111h116v-420h-138v261l-69 -41z" />
    <glyph glyph-name="twoinferior" unicode="&#x2082;" horiz-adv-x="356" 
d="M33 107l126 116q39 36 39 58q0 10 -7.5 17t-20.5 7q-14 0 -27 -10t-19 -20l-6 -10l-98 65q2 4 5 10.5t16.5 23t30.5 29t47 23t66 10.5q69 0 110 -38t41 -94q0 -43 -20.5 -76t-66.5 -68l-43 -32h127v-118h-300v107z" />
    <glyph glyph-name="threeinferior" unicode="&#x2083;" horiz-adv-x="364" 
d="M123 257h42q16 0 24.5 8t8.5 19q0 12 -8.5 19.5t-20.5 7.5t-21.5 -6.5t-13.5 -13.5l-3 -7l-96 50l5 10t15.5 22t28 28t43 22t58.5 10q64 0 105.5 -31.5t41.5 -85.5q0 -56 -52 -90q64 -34 64 -98q0 -60 -44.5 -93.5t-120.5 -33.5q-33 0 -62 10t-46 24.5t-29 29.5t-17 25
l-5 10l99 54q2 -4 6 -10.5t18.5 -17t32.5 -10.5q16 0 25 8.5t9 19.5q0 30 -41 30h-46v90z" />
    <glyph glyph-name="fourinferior" unicode="&#x2084;" horiz-adv-x="383" 
d="M121 179h68v97zM10 187l167 233h138v-241h58v-104h-58v-75h-126v75h-179v112z" />
    <glyph glyph-name="fiveinferior" unicode="&#x2085;" horiz-adv-x="365" 
d="M39 158v262h285v-116h-164v-35q26 13 54 13q58 0 94.5 -38t36.5 -92q0 -72 -45.5 -115t-122.5 -43q-32 0 -59.5 9.5t-44.5 23t-30 27t-18 22.5l-5 10l100 66q2 -4 6 -10.5t18.5 -17t31.5 -10.5t26.5 9.5t9.5 24.5q0 11 -8 20t-22 9q-10 0 -17.5 -4.5t-10.5 -9.5l-3 -5
h-112z" />
    <glyph glyph-name="sixinferior" unicode="&#x2086;" horiz-adv-x="373" 
d="M224 283q53 0 91 -36t38 -91q0 -74 -48 -118t-120 -44q-68 0 -116.5 43.5t-48.5 109.5q0 64 42 129l93 144h148l-95 -139q8 2 16 2zM152 151q0 -15 9.5 -24.5t24.5 -9.5t24.5 9.5t9.5 24.5t-9.5 24.5t-24.5 9.5t-24.5 -9.5t-9.5 -24.5z" />
    <glyph glyph-name="seveninferior" unicode="&#x2087;" horiz-adv-x="340" 
d="M24 0l141 300h-144v120h298v-97l-144 -323h-151z" />
    <glyph glyph-name="eightinferior" unicode="&#x2088;" horiz-adv-x="376" 
d="M191 426q67 0 109 -32t42 -87q0 -44 -38 -82q52 -38 52 -93q0 -60 -48 -99t-123 -39q-73 0 -119 37.5t-46 97.5q0 49 50 94q-34 33 -34 81q0 56 42.5 89t112.5 33zM150 141q0 -16 10.5 -26.5t27.5 -10.5t27.5 10.5t10.5 26.5t-10.5 26.5t-27.5 10.5t-27.5 -10.5
t-10.5 -26.5zM159 294q0 -12 8.5 -20t20.5 -8t20.5 8t8.5 20t-8.5 20t-20.5 8t-20.5 -8t-8.5 -20z" />
    <glyph glyph-name="nineinferior" unicode="&#x2089;" horiz-adv-x="373" 
d="M149 137q-53 0 -91 36t-38 91q0 74 48 118t120 44q68 0 116.5 -43.5t48.5 -109.5q0 -64 -42 -129l-93 -144h-148l95 139q-8 -2 -16 -2zM221 269q0 15 -9.5 24.5t-24.5 9.5t-24.5 -9.5t-9.5 -24.5t9.5 -24.5t24.5 -9.5t24.5 9.5t9.5 24.5z" />
    <glyph glyph-name="Euro" unicode="&#x20ac;" 
d="M510 231h-200q2 -23 19.5 -39t43.5 -16q23 0 40.5 10t22.5 20l6 9l168 -90q-3 -5 -8 -14.5t-25 -32.5t-44.5 -41t-67 -32.5t-91.5 -14.5q-118 0 -194.5 63.5t-79.5 177.5h-75v104h75v32h-75v102h75q7 111 86.5 176t194.5 65q49 0 90.5 -14t66 -34t42 -39.5t24.5 -33.5
l6 -14l-169 -89q0 2 -1.5 4.5t-6.5 9.5t-12 12t-19.5 9.5t-28.5 4.5q-26 0 -43.5 -16t-19.5 -41h220v-102h-220v-32h200v-104z" />
    <glyph glyph-name="trademark" unicode="&#x2122;" horiz-adv-x="784" 
d="M525 428l-58 103v-146h-109v315h116l78 -142l79 142h113v-315h-110v145l-57 -102h-52zM320 597h-83v-212h-114v212h-83v103h280v-103z" />
    <glyph glyph-name="minus" unicode="&#x2212;" 
d="M575 259h-525v188h525v-188z" />
    <glyph glyph-name="fi" unicode="&#xfb01;" horiz-adv-x="762" 
d="M320 502v-10h115v-167h-115v-325h-215v325h-85v167h85v29q0 88 50.5 138.5t139.5 50.5q44 0 81.5 -6t53.5 -12l15 -5l-23 -154q-22 8 -55 8q-23 0 -35 -11t-12 -28zM500 0v522h217v-522h-217zM479 660q0 50 37 83t92 33t92.5 -33t37.5 -83q0 -49 -37 -82t-93 -33
t-92.5 33t-36.5 82z" />
    <glyph glyph-name="fl" unicode="&#xfb02;" horiz-adv-x="762" 
d="M320 502v-10h115v-167h-115v-325h-215v325h-85v167h85v29q0 88 50.5 138.5t139.5 50.5q44 0 81.5 -6t53.5 -12l15 -5l-23 -154q-22 8 -55 8q-23 0 -35 -11t-12 -28zM500 0v700h217v-700h-217z" />
    <glyph glyph-name="one.onum" horiz-adv-x="510" 
d="M5 464l263 176h172v-640h-207v395l-126 -77z" />
    <glyph glyph-name="two.onum" horiz-adv-x="541" 
d="M39 164l221 190q45 38 45 67q0 18 -12.5 30.5t-36.5 12.5q-21 0 -41.5 -15t-30.5 -29l-10 -15l-154 85q2 7 7 17.5t25.5 38t47 48.5t75 38.5t105.5 17.5q102 0 168 -57.5t66 -142.5q0 -120 -129 -216l-74 -55h198v-179h-470v164z" />
    <glyph glyph-name="three.onum" horiz-adv-x="543" 
d="M184 390h46q28 0 43.5 13.5t15.5 36.5q0 19 -13 30.5t-33 11.5q-19 0 -32.5 -13t-18.5 -25l-4 -13l-159 62q2 6 6 17t21.5 38t41 47.5t66.5 37.5t96 17q95 0 164 -50.5t69 -130.5q0 -84 -73 -141q93 -47 93 -146q0 -88 -72.5 -140t-186.5 -52q-57 0 -104 17.5t-73 42.5
t-43.5 50t-23.5 42l-6 18l169 66l2.5 -7.5t8 -16.5t15 -21t23 -16.5t31.5 -7.5q24 0 38 14.5t14 33.5q0 51 -73 51h-48v134z" />
    <glyph glyph-name="four.onum" horiz-adv-x="585" 
d="M174 263h106v149zM6 269l269 371h201v-377h100v-149h-100v-114h-196v114h-274v155z" />
    <glyph glyph-name="five.onum" horiz-adv-x="568" 
d="M63 244v396h440v-177h-257v-57q33 20 80 20q95 0 153.5 -56t58.5 -139q0 -109 -73 -175t-188 -66q-50 0 -94 15.5t-71 38t-46.5 45t-27.5 37.5l-8 16l152 91q3 -7 10 -18t30.5 -29t50.5 -18q26 0 41 14.5t15 38.5q0 19 -13.5 33.5t-35.5 14.5q-15 0 -27 -6.5t-17 -12.5
l-4 -6h-169z" />
    <glyph glyph-name="six.onum" horiz-adv-x="585" 
d="M109 444l136 196h232l-156 -204q14 3 30 3q84 0 144 -56.5t60 -144.5q0 -111 -78 -179.5t-188 -68.5q-104 0 -181.5 68t-77.5 173q0 57 19 105t60 108zM235 238q0 -25 16 -40.5t41 -15.5q26 0 42 15.5t16 40.5t-16 40.5t-42 15.5q-25 0 -41 -15.5t-16 -40.5z" />
    <glyph glyph-name="seven.onum" horiz-adv-x="505" 
d="M50 0l207 455h-238v185h470v-142l-212 -498h-227z" />
    <glyph glyph-name="eight.onum" horiz-adv-x="585" 
d="M296 650q105 0 171 -51t66 -135q0 -68 -55 -117q77 -66 77 -147q0 -90 -75.5 -150t-189.5 -60t-187 57t-73 147q0 80 80 147q-56 42 -56 119q0 84 68.5 137t173.5 53zM249 445q0 -18 12.5 -29.5t30.5 -11.5q19 0 31.5 11.5t12.5 29.5t-13 30t-31 12t-30.5 -12t-12.5 -30z
M231 216q0 -27 17 -44t44 -17t44.5 17t17.5 44t-17.5 44.5t-44.5 17.5t-44 -17.5t-17 -44.5z" />
    <glyph glyph-name="nine.onum" horiz-adv-x="585" 
d="M476 196l-136 -196h-232l156 204q-14 -3 -30 -3q-84 0 -144 56.5t-60 144.5q0 111 78 179.5t188 68.5q104 0 181.5 -68t77.5 -173q0 -57 -19 -105t-60 -108zM350 402q0 25 -16 40.5t-41 15.5q-26 0 -42 -15.5t-16 -40.5t16 -40.5t42 -15.5q25 0 41 15.5t16 40.5z" />
    <glyph glyph-name="zero.onum" horiz-adv-x="585" 
d="M239 406v-172q0 -24 15 -38.5t37 -14.5t37 14.5t15 38.5v172q0 24 -15 38.5t-37 14.5t-37 -14.5t-15 -38.5zM31 244v145q0 122 76 191.5t189 69.5t184 -66t71 -188v-145q0 -121 -75 -191t-187 -70q-113 0 -185.5 67t-72.5 187z" />
    <glyph glyph-name="numbersign.onum" horiz-adv-x="615" 
d="M282 321l-17 -80h70l17 80h-70zM284 0l24 116h-70l-24 -116h-135l24 116h-68v125h95l17 80h-72v125h99l25 114h135l-25 -114h70l25 114h135l-25 -114h66v-125h-93l-17 -80h70v-125h-97l-24 -116h-135z" />
    <glyph glyph-name="cent.onum" horiz-adv-x="524" 
d="M239 38v101q-94 18 -154 86t-60 160q0 88 60.5 157.5t153.5 91.5v106h116v-100q46 -8 84.5 -27.5t53.5 -34.5l15 -16l-137 -131q-21 32 -64 32q-30 0 -51.5 -22t-21.5 -52q0 -29 21 -50.5t52 -21.5q21 0 37.5 8.5t22.5 17.5l6 9l136 -128q-6 -8 -17 -19.5t-51 -35
t-86 -31.5v-100h-116z" />
    <glyph glyph-name="dollar.onum" horiz-adv-x="542" 
d="M211 248q-69 32 -114 83t-45 118q0 74 46 124t125 65v102h116v-101q56 -9 100.5 -36t60.5 -49l17 -23l-141 -101q-5 6 -13 15.5t-32.5 25t-48.5 15.5q-11 0 -18.5 -6.5t-7.5 -15.5q0 -13 15 -25t60 -33q36 -17 63.5 -33t57 -41t45.5 -58t16 -71q0 -76 -48 -129.5
t-126 -69.5v-104h-116v99q-41 6 -78 21t-59.5 32.5t-39.5 34t-24 27.5l-7 11l140 102q7 -8 18 -20t43.5 -32.5t60.5 -20.5q29 0 29 22q0 14 -18.5 29.5t-76.5 42.5z" />
    <glyph glyph-name="sterling.onum" horiz-adv-x="574" 
d="M545 0h-455v251h-75v115h75v33q0 117 73 184t182 67q42 0 79.5 -11.5t61 -28t41 -32.5t25.5 -28l7 -11l-164 -109q-1 3 -4 8.5t-16 14t-31 8.5q-20 0 -32.5 -13t-12.5 -35v-47h161v-115h-161v-72h246v-179z" />
    <glyph glyph-name="Euro.onum" horiz-adv-x="595" 
d="M479 214h-186q6 -55 62 -55q22 0 38 11t21 22l4 11l162 -70q-3 -6 -8 -15.5t-25.5 -34t-45 -43.5t-66 -34.5t-88.5 -15.5q-108 0 -181 60.5t-76 163.5h-75v92h75v28h-75v92h75q6 101 81.5 162.5t181.5 61.5q34 0 65 -8t53.5 -20.5t41.5 -28t31 -30.5t20.5 -27.5
t11.5 -20.5l4 -8l-163 -67q0 2 -1.5 4.5t-6 9.5t-11 12.5t-18 10t-25.5 4.5q-55 0 -62 -55h207v-92h-207v-28h186v-92z" />
    <glyph glyph-name="yen.onum" horiz-adv-x="639" 
d="M212 0v106h-187v104h187v15l-15 31h-172v104h118l-138 280h258l62 -211l63 211h246l-138 -280h118v-104h-173l-14 -31v-15h187v-104h-187v-106h-215z" />
    <glyph glyph-name="florin.onum" horiz-adv-x="595" 
d="M305 -160h-207l24 356h-107v121h116l8 101q9 111 73 171.5t168 60.5q42 0 78 -12t57.5 -29t37 -34t21.5 -29l6 -12l-149 -99q-1 3 -3 7.5t-12.5 12.5t-24.5 8q-38 0 -42 -48l-9 -98h158v-121h-166z" />
    <glyph glyph-name="percent.onum" horiz-adv-x="770" 
d="M112 0l414 560h132l-414 -560h-132zM159 412q0 -16 10 -26t26 -10t26 10t10 26t-10 26t-26 10t-26 -10t-10 -26zM30 410q0 68 48.5 114t118.5 46t116.5 -44t46.5 -112t-48.5 -114t-118.5 -46t-116.5 44t-46.5 112zM539 148q0 -16 10 -26t26 -10t26 10t10 26t-10 26
t-26 10t-26 -10t-10 -26zM410 146q0 68 48.5 114t118.5 46t116.5 -44t46.5 -112t-48.5 -114t-118.5 -46t-116.5 44t-46.5 112z" />
    <glyph glyph-name="perthousand.onum" horiz-adv-x="1120" 
d="M112 0l414 560h132l-414 -560h-132zM159 412q0 -16 10 -26t26 -10t26 10t10 26t-10 26t-26 10t-26 -10t-10 -26zM30 410q0 68 48.5 114t118.5 46t116.5 -44t46.5 -112t-48.5 -114t-118.5 -46t-116.5 44t-46.5 112zM539 148q0 -16 10 -26t26 -10t26 10t10 26t-10 26
t-26 10t-26 -10t-10 -26zM410 146q0 68 48.5 114t118.5 46t116.5 -44t46.5 -112t-48.5 -114t-118.5 -46t-116.5 44t-46.5 112zM889 148q0 -16 10 -26t26 -10t26 10t10 26t-10 26t-26 10t-26 -10t-10 -26zM760 146q0 68 48.5 114t118.5 46t116.5 -44t46.5 -112t-48.5 -114
t-118.5 -46t-116.5 44t-46.5 112z" />
    <glyph glyph-name="one.lnum" 
d="M600 0h-536v171h178v281l-108 -65l-99 143l242 170h180v-529h143v-171z" />
    <glyph glyph-name="two.lnum" 
d="M73 167l234 209q56 50 56 92q0 21 -17 36.5t-45 15.5q-27 0 -51.5 -18t-35.5 -36l-11 -17l-149 101q3 7 8.5 17.5t28.5 38t51.5 48.5t79 38.5t109.5 17.5q107 0 177 -63t70 -155q0 -74 -33.5 -129.5t-106.5 -113.5l-81 -64h216v-185h-500v167z" />
    <glyph glyph-name="three.lnum" 
d="M211 427h77q69 0 69 50q0 21 -17.5 34t-42.5 13q-23 0 -43 -12t-28 -24l-8 -11l-151 90q3 6 8.5 15.5t26.5 34t47.5 43.5t72 34.5t98.5 15.5q103 0 177.5 -53t74.5 -142q0 -94 -82 -152q102 -55 102 -165q0 -97 -77 -152.5t-199 -55.5q-56 0 -104.5 16t-77.5 39t-50 46
t-30 39l-8 16l155 93q4 -7 12.5 -18t36.5 -29.5t59 -18.5q30 0 49 14t19 35q0 57 -85 57h-81v148z" />
    <glyph glyph-name="four.lnum" 
d="M190 293h112v163zM16 296l280 404h210v-407h100v-168h-100v-125h-204v125h-286v171z" />
    <glyph glyph-name="five.lnum" 
d="M70 268v432h470v-185h-278v-62q37 20 89 20q103 0 163.5 -65.5t60.5 -158.5q0 -116 -75.5 -187.5t-200.5 -71.5q-52 0 -97.5 15.5t-73.5 38t-49 45t-30 37.5l-9 16l155 109q1 -3 4 -7t12 -15t20 -19.5t28 -15.5t35 -7q31 0 49.5 16.5t18.5 42.5q0 23 -16.5 38t-43.5 15
q-18 0 -32.5 -7.5t-19.5 -15.5l-6 -8h-174z" />
    <glyph glyph-name="six.lnum" 
d="M108 462l157 238h238l-159 -233q11 2 21 2q90 0 155 -61.5t65 -152.5q0 -118 -80.5 -191.5t-195.5 -73.5q-110 0 -189.5 72.5t-79.5 185.5q0 112 68 214zM250 250q0 -28 17 -45.5t45 -17.5t45.5 17.5t17.5 45.5t-17.5 46t-45.5 18t-45 -18t-17 -46z" />
    <glyph glyph-name="seven.lnum" 
d="M71 0l264 507h-295v193h540v-150l-274 -550h-235z" />
    <glyph glyph-name="eight.lnum" 
d="M312 440q20 0 33 12.5t13 33.5t-13 33.5t-33 12.5t-33 -12.5t-13 -33.5t13 -33.5t33 -12.5zM316 710q110 0 177 -55t67 -147q0 -68 -58 -131q83 -72 83 -159q0 -99 -78.5 -163.5t-197.5 -64.5q-121 0 -195 61t-74 160q0 86 79 160q-55 58 -55 130q0 91 71 150t181 59z
M312 170q27 0 45.5 18.5t18.5 45.5q0 29 -18.5 47t-45.5 18t-45.5 -18t-18.5 -47q0 -27 18.5 -45.5t45.5 -18.5z" />
    <glyph glyph-name="nine.lnum" 
d="M507 238l-157 -238h-238l159 233q-11 -2 -21 -2q-90 0 -155 61.5t-65 152.5q0 118 80.5 191.5t195.5 73.5q110 0 189.5 -72.5t79.5 -185.5q0 -112 -68 -214zM365 450q0 28 -17 45.5t-45 17.5t-45.5 -17.5t-17.5 -45.5t17.5 -46t45.5 -18t45 18t17 46z" />
    <glyph glyph-name="zero.lnum" 
d="M257 454v-208q0 -28 14.5 -43.5t40.5 -15.5t40.5 15.5t14.5 43.5v208q0 28 -14.5 43.5t-40.5 15.5t-40.5 -15.5t-14.5 -43.5zM42 254v185q0 126 77 198.5t195 72.5q119 0 193.5 -69t74.5 -195v-185q0 -126 -78 -198.5t-197 -72.5q-118 0 -191.5 69t-73.5 195z" />
    <glyph glyph-name="numbersign.lnum" 
d="M286 399l-18 -100h70l16 100h-68zM286 0l29 174h-70l-31 -174h-135l31 174h-70v125h91l20 100h-71v125h90l31 176h135l-29 -176h70l29 176h135l-29 -176h73v-125h-94l-18 -100h72v-125h-95l-29 -174h-135z" />
    <glyph glyph-name="cent.lnum" 
d="M291 55v101q-110 17 -174.5 88.5t-64.5 178.5q0 106 65.5 181.5t173.5 94.5v101h116v-100q48 -8 90 -28t60 -36l18 -16l-147 -139q-24 32 -70 32q-42 0 -66.5 -23.5t-24.5 -61.5t24.5 -62t66.5 -24q22 0 40.5 9.5t25.5 18.5l8 10l144 -136q-7 -8 -20.5 -20t-57.5 -36.5
t-91 -32.5v-100h-116z" />
    <glyph glyph-name="dollar.lnum" 
d="M250 279q-79 41 -116.5 92.5t-37.5 125.5q0 77 50 131t132 70v102h116v-101q38 -6 71.5 -20.5t54.5 -31t36 -32.5t22 -27l6 -10l-152 -107q-4 7 -12 16.5t-31 26t-46 16.5q-11 0 -18.5 -6.5t-7.5 -16.5q0 -16 18 -32t67 -41q178 -91 178 -222q0 -81 -51.5 -136.5
t-134.5 -71.5v-104h-116v99q-45 5 -84 21t-63 35.5t-41.5 38t-25.5 30.5l-7 13l153 107q7 -9 18 -21.5t42.5 -34t57.5 -21.5q29 0 29 24q0 33 -107 88z" />
    <glyph glyph-name="sterling.lnum" 
d="M575 0h-475v281h-75v115h75v53q0 122 76 191.5t189 69.5q44 0 83 -12.5t63.5 -30t43 -34.5t26.5 -29l8 -13l-167 -113q-1 4 -4.5 10t-17.5 15.5t-33 9.5q-24 0 -38 -15t-14 -39v-63h175v-115h-175v-96h260v-185z" />
    <glyph glyph-name="Euro.lnum" 
d="M510 231h-200q2 -23 19.5 -39t43.5 -16q23 0 40.5 10t22.5 20l6 9l168 -90q-3 -5 -8 -14.5t-25 -32.5t-44.5 -41t-67 -32.5t-91.5 -14.5q-118 0 -194.5 63.5t-79.5 177.5h-75v104h75v32h-75v102h75q7 111 86.5 176t194.5 65q49 0 90.5 -14t66 -34t42 -39.5t24.5 -33.5
l6 -14l-169 -89q0 2 -1.5 4.5t-6.5 9.5t-12 12t-19.5 9.5t-28.5 4.5q-26 0 -43.5 -16t-19.5 -41h220v-102h-220v-32h200v-104z" />
    <glyph glyph-name="yen.lnum" 
d="M194 0v170h-175v104h175v17l-15 29h-160v104h108l-128 276h255l61 -190l60 190h246l-131 -276h111v-104h-163l-15 -29v-17h178v-104h-178v-170h-229z" />
    <glyph glyph-name="florin.lnum" 
d="M315 -160h-215l33 423h-108v126h117l7 83q10 115 76 176.5t175 61.5q43 0 80 -12.5t60 -30.5t39.5 -36t23.5 -31l7 -12l-151 -105q-14 30 -48 30q-44 0 -48 -48l-7 -76h154v-126h-162z" />
    <glyph glyph-name="percent.lnum" horiz-adv-x="850" 
d="M112 0l485 700h141l-485 -700h-141zM30 529q0 77 54 129t132 52t132 -52t54 -129t-54 -129t-132 -52t-132 52t-54 129zM165 531q0 -23 14 -37.5t36 -14.5t36 14.5t14 37.5t-14 37.5t-36 14.5t-36 -14.5t-14 -37.5zM448 171q0 77 54 129t132 52t132 -52t54 -129t-54 -129
t-132 -52t-132 52t-54 129zM583 173q0 -23 14 -37.5t36 -14.5t36 14.5t14 37.5t-14 37.5t-36 14.5t-36 -14.5t-14 -37.5z" />
    <glyph glyph-name="perthousand.lnum" horiz-adv-x="1251" 
d="M112 0l485 700h141l-485 -700h-141zM30 529q0 77 54 129t132 52t132 -52t54 -129t-54 -129t-132 -52t-132 52t-54 129zM165 531q0 -23 14 -37.5t36 -14.5t36 14.5t14 37.5t-14 37.5t-36 14.5t-36 -14.5t-14 -37.5zM448 171q0 77 54 129t132 52t132 -52t54 -129t-54 -129
t-132 -52t-132 52t-54 129zM583 173q0 -23 14 -37.5t36 -14.5t36 14.5t14 37.5t-14 37.5t-36 14.5t-36 -14.5t-14 -37.5zM849 171q0 77 54 129t132 52t132 -52t54 -129t-54 -129t-132 -52t-132 52t-54 129zM984 173q0 -23 14 -37.5t36 -14.5t36 14.5t14 37.5t-14 37.5
t-36 14.5t-36 -14.5t-14 -37.5z" />
    <glyph glyph-name="numbersignsuperior" horiz-adv-x="357" 
d="M165 521l-10 -57h39l10 57h-39zM163 280l18 106h-39l-18 -106h-82l18 106h-45v78h58l9 57h-43v78h58l17 101h82l-17 -101h38l18 101h82l-17 -101h42v-78h-56l-10 -57h42v-78h-55l-18 -106h-82z" />
    <glyph glyph-name="centsuperior" horiz-adv-x="325" 
d="M155 329v58q-62 13 -98.5 54.5t-36.5 100.5t37 100.5t98 56.5v61h76v-60q28 -3 51.5 -14t33.5 -21l9 -10l-86 -88q-12 17 -37 17q-19 0 -30.5 -11.5t-11.5 -27.5t11.5 -28t30.5 -12q12 0 22 5t14 10l3 5l84 -84q-33 -39 -94 -55v-57h-76z" />
    <glyph glyph-name="dollarsuperior" horiz-adv-x="364" 
d="M135 445q-95 49 -95 133q0 46 30 79t79 43v60h76v-61q36 -5 64.5 -23t38.5 -34l11 -15l-95 -67q-25 38 -53 38q-16 0 -16 -14q0 -15 51 -42q110 -55 110 -135q0 -48 -31 -82t-80 -44v-61h-76v59q-27 3 -50.5 12.5t-38 21.5t-25 23t-15.5 18l-4 8l95 67q39 -49 71 -49
q17 0 17 15q0 18 -64 50z" />
    <glyph glyph-name="sterlingsuperior" horiz-adv-x="365" 
d="M349 280h-289v167h-40v76h40v28q0 72 47.5 113.5t114.5 41.5q42 0 75 -17t45 -33l13 -17l-103 -70q-6 15 -26 15q-26 0 -26 -26v-35h98v-76h-98v-59h149v-108z" />
    <glyph glyph-name="Eurosuperior" horiz-adv-x="379" 
d="M311 419h-120q1 -14 11.5 -22.5t26.5 -8.5q12 0 21.5 6t13.5 12l3 5l104 -56q-2 -3 -5 -8.5t-15 -19.5t-26.5 -24.5t-40.5 -19.5t-55 -9q-71 0 -117 38.5t-47 106.5h-45v62h45v19h-45v61h45q4 67 51.5 106t117.5 39q29 0 54 -8.5t39.5 -20t25 -23.5t14.5 -20l4 -9
l-104 -55q-8 24 -38 24q-16 0 -26.5 -9t-11.5 -24h132v-61h-132v-19h120v-62z" />
    <glyph glyph-name="yensuperior" horiz-adv-x="407" 
d="M130 280v101h-118v65h118v11l-9 16h-109v65h73l-85 162h161l48 -123l45 123h153l-86 -162h74v-65h-110l-8 -16v-11h118v-65h-118v-101h-147z" />
    <glyph glyph-name="florinsuperior" horiz-adv-x="365" 
d="M190 184h-140l21 253h-61v78h65l6 49q18 142 153 142q26 0 48.5 -7.5t36 -18.5t23.5 -22t14 -18l4 -8l-97 -61q-5 15 -22 15q-21 0 -23 -27l-3 -44h85v-78h-92z" />
    <glyph glyph-name="percentsuperior" horiz-adv-x="534" 
d="M79 280l291 420h85l-291 -420h-85zM30 597q0 46 32.5 77.5t79.5 31.5t79 -31.5t32 -77.5t-32 -77t-79 -31t-79.5 31t-32.5 77zM111 599q0 -14 8.5 -23t21.5 -9t21.5 9t8.5 23t-8.5 22.5t-21.5 8.5t-21.5 -8.5t-8.5 -22.5zM281 383q0 46 32.5 77t79.5 31q46 0 78.5 -31.5
t32.5 -76.5q0 -46 -32.5 -77.5t-78.5 -31.5q-47 0 -79.5 31.5t-32.5 77.5zM362 384q0 -14 8.5 -22.5t21.5 -8.5t21.5 8.5t8.5 22.5t-8.5 22.5t-21.5 8.5t-21.5 -8.5t-8.5 -22.5z" />
    <glyph glyph-name="perthousandsuperior" horiz-adv-x="775" 
d="M79 280l291 420h85l-291 -420h-85zM30 597q0 46 32.5 77.5t79.5 31.5t79 -31.5t32 -77.5t-32 -77t-79 -31t-79.5 31t-32.5 77zM111 599q0 -14 8.5 -23t21.5 -9t21.5 9t8.5 23t-8.5 22.5t-21.5 8.5t-21.5 -8.5t-8.5 -22.5zM281 383q0 46 32.5 77t79.5 31q46 0 78.5 -31.5
t32.5 -76.5q0 -46 -32.5 -77.5t-78.5 -31.5q-47 0 -79.5 31.5t-32.5 77.5zM362 384q0 -14 8.5 -22.5t21.5 -8.5t21.5 8.5t8.5 22.5t-8.5 22.5t-21.5 8.5t-21.5 -8.5t-8.5 -22.5zM522 383q0 46 32 77t79 31t79.5 -31t32.5 -77t-32.5 -77.5t-79.5 -31.5t-79 31.5t-32 77.5z
M603 384q0 -14 8.5 -22.5t21.5 -8.5t21.5 8.5t8.5 22.5t-8.5 22.5t-21.5 8.5t-21.5 -8.5t-8.5 -22.5z" />
    <glyph glyph-name="G.ss01" horiz-adv-x="775" 
d="M404 -10q-159 0 -264 103t-105 255t108.5 257t267.5 105q56 0 105.5 -11.5t80 -28.5t53 -34t32.5 -28l9 -12l-154 -156q-5 6 -15 16t-44 26t-72 16q-63 0 -104 -43.5t-41 -110.5t41 -110.5t105 -43.5q33 0 58 7t34 14l9 7v39h-115v150h322v-299q-4 -5 -12.5 -13t-38 -28
t-63 -35.5t-87 -28.5t-110.5 -13z" />
    <glyph glyph-name="Gbreve.ss01" horiz-adv-x="775" 
d="M218 920h139v-15q0 -17 10.5 -28.5t30.5 -11.5q40 0 40 40v15h142v-5q0 -76 -50.5 -122.5t-130.5 -46.5t-130.5 46.5t-50.5 122.5v5zM404 -10q-159 0 -264 103t-105 255t108.5 257t267.5 105q56 0 105.5 -11.5t80 -28.5t53 -34t32.5 -28l9 -12l-154 -156q-5 6 -15 16
t-44 26t-72 16q-63 0 -104 -43.5t-41 -110.5t41 -110.5t105 -43.5q33 0 58 7t34 14l9 7v39h-115v150h322v-299q-4 -5 -12.5 -13t-38 -28t-63 -35.5t-87 -28.5t-110.5 -13z" />
    <glyph glyph-name="Gcommaaccent.ss01" horiz-adv-x="775" 
d="M230 -224l55 174h225q-18 -29 -56.5 -87t-57.5 -87h-166zM404 -10q-159 0 -264 103t-105 255t108.5 257t267.5 105q56 0 105.5 -11.5t80 -28.5t53 -34t32.5 -28l9 -12l-154 -156q-5 6 -15 16t-44 26t-72 16q-63 0 -104 -43.5t-41 -110.5t41 -110.5t105 -43.5q33 0 58 7
t34 14l9 7v39h-115v150h322v-299q-4 -5 -12.5 -13t-38 -28t-63 -35.5t-87 -28.5t-110.5 -13z" />
    <glyph glyph-name="Gdotaccent.ss01" horiz-adv-x="775" 
d="M404 -10q-159 0 -264 103t-105 255t108.5 257t267.5 105q56 0 105.5 -11.5t80 -28.5t53 -34t32.5 -28l9 -12l-154 -156q-5 6 -15 16t-44 26t-72 16q-63 0 -104 -43.5t-41 -110.5t41 -110.5t105 -43.5q33 0 58 7t34 14l9 7v39h-115v150h322v-299q-4 -5 -12.5 -13t-38 -28
t-63 -35.5t-87 -28.5t-110.5 -13zM294 837q0 43 30 72t74 29t74.5 -29t30.5 -72t-30 -71.5t-75 -28.5q-44 0 -74 28.5t-30 71.5z" />
    <glyph glyph-name="Gcircumflex.ss01" horiz-adv-x="775" 
d="M404 -10q-159 0 -264 103t-105 255t108.5 257t267.5 105q56 0 105.5 -11.5t80 -28.5t53 -34t32.5 -28l9 -12l-154 -156q-5 6 -15 16t-44 26t-72 16q-63 0 -104 -43.5t-41 -110.5t41 -110.5t105 -43.5q33 0 58 7t34 14l9 7v39h-115v150h322v-299q-4 -5 -12.5 -13t-38 -28
t-63 -35.5t-87 -28.5t-110.5 -13zM174 746l130 174h190l130 -174h-184l-46 52l-48 -52h-172z" />
    <glyph glyph-name="a.ss01" horiz-adv-x="643" 
d="M603 522v-522h-181l-14 49q-59 -59 -135 -59q-103 0 -175.5 76t-72.5 192t74 195t181 79q72 0 126 -52l16 42h181zM393 261q0 33 -21.5 55t-54.5 22t-55 -22t-22 -55t22 -54.5t55 -21.5t54.5 21.5t21.5 54.5z" />
    <glyph glyph-name="agrave.ss01" horiz-adv-x="643" 
d="M318 740l55 -174h-166l-114 174h225zM603 522v-522h-181l-14 49q-59 -59 -135 -59q-103 0 -175.5 76t-72.5 192t74 195t181 79q72 0 126 -52l16 42h181zM393 261q0 33 -21.5 55t-54.5 22t-55 -22t-22 -55t22 -54.5t55 -21.5t54.5 21.5t21.5 54.5z" />
    <glyph glyph-name="aacute.ss01" horiz-adv-x="643" 
d="M216 566l55 174h225q-18 -29 -56.5 -87t-57.5 -87h-166zM603 522v-522h-181l-14 49q-59 -59 -135 -59q-103 0 -175.5 76t-72.5 192t74 195t181 79q72 0 126 -52l16 42h181zM393 261q0 33 -21.5 55t-54.5 22t-55 -22t-22 -55t22 -54.5t55 -21.5t54.5 21.5t21.5 54.5z" />
    <glyph glyph-name="acircumflex.ss01" horiz-adv-x="643" 
d="M603 522v-522h-181l-14 49q-59 -59 -135 -59q-103 0 -175.5 76t-72.5 192t74 195t181 79q72 0 126 -52l16 42h181zM393 261q0 33 -21.5 55t-54.5 22t-55 -22t-22 -55t22 -54.5t55 -21.5t54.5 21.5t21.5 54.5zM101 566l130 174h190l130 -174h-184l-46 52l-48 -52h-172z
" />
    <glyph glyph-name="atilde.ss01" horiz-adv-x="643" 
d="M244 575l-96 12q0 6 1 17t8 38t18.5 48t36 38t56.5 17t56.5 -13.5t41.5 -27t32 -13.5q10 0 17 11t9 22l1 11l96 -12q0 -6 -1 -17t-8 -38t-18.5 -48t-36 -38t-56.5 -17t-56.5 13.5t-41.5 27t-32 13.5q-10 0 -17 -11t-8 -22zM603 522v-522h-181l-14 49q-59 -59 -135 -59
q-103 0 -175.5 76t-72.5 192t74 195t181 79q72 0 126 -52l16 42h181zM393 261q0 33 -21.5 55t-54.5 22t-55 -22t-22 -55t22 -54.5t55 -21.5t54.5 21.5t21.5 54.5z" />
    <glyph glyph-name="adieresis.ss01" horiz-adv-x="643" 
d="M603 522v-522h-181l-14 49q-59 -59 -135 -59q-103 0 -175.5 76t-72.5 192t74 195t181 79q72 0 126 -52l16 42h181zM393 261q0 33 -21.5 55t-54.5 22t-55 -22t-22 -55t22 -54.5t55 -21.5t54.5 21.5t21.5 54.5zM208 768q45 0 74.5 -29.5t29.5 -74.5t-30 -75t-75 -30
t-74.5 29.5t-29.5 74.5t30 75t75 30zM451 768q45 0 74.5 -29.5t29.5 -74.5t-30 -75t-75 -30t-74.5 29.5t-29.5 74.5t30 75t75 30z" />
    <glyph glyph-name="aring.ss01" horiz-adv-x="643" 
d="M341 767q50 0 81.5 -30t31.5 -76q0 -47 -31.5 -77.5t-81.5 -30.5t-81 30.5t-31 77.5q0 46 31 76t81 30zM341 624q17 0 27 10t10 25t-10 25.5t-27 10.5t-26.5 -10.5t-9.5 -25.5t9.5 -25t26.5 -10zM603 522v-522h-181l-14 49q-59 -59 -135 -59q-103 0 -175.5 76t-72.5 192
t74 195t181 79q72 0 126 -52l16 42h181zM393 261q0 33 -21.5 55t-54.5 22t-55 -22t-22 -55t22 -54.5t55 -21.5t54.5 21.5t21.5 54.5z" />
    <glyph glyph-name="abreve.ss01" horiz-adv-x="643" 
d="M147 740h139v-15q0 -17 10.5 -28.5t30.5 -11.5q40 0 40 40v15h142v-5q0 -76 -50.5 -122.5t-130.5 -46.5t-130.5 46.5t-50.5 122.5v5zM603 522v-522h-181l-14 49q-59 -59 -135 -59q-103 0 -175.5 76t-72.5 192t74 195t181 79q72 0 126 -52l16 42h181zM393 261
q0 33 -21.5 55t-54.5 22t-55 -22t-22 -55t22 -54.5t55 -21.5t54.5 21.5t21.5 54.5z" />
    <glyph glyph-name="amacron.ss01" horiz-adv-x="643" 
d="M603 522v-522h-181l-14 49q-59 -59 -135 -59q-103 0 -175.5 76t-72.5 192t74 195t181 79q72 0 126 -52l16 42h181zM393 261q0 33 -21.5 55t-54.5 22t-55 -22t-22 -55t22 -54.5t55 -21.5t54.5 21.5t21.5 54.5zM140 600v120h360v-120h-360z" />
    <glyph glyph-name="aogonek.ss01" horiz-adv-x="643" 
d="M603 522v-522h-70q-14 -7 -14 -24q0 -12 9.5 -20t26.5 -8q10 0 20 2t15 4l4 2l39 -112q-39 -31 -102 -31q-62 0 -105 37.5t-43 103.5q0 46 29 80l-4 15q-59 -59 -135 -59q-103 0 -175.5 76t-72.5 192t74 195t181 79q72 0 126 -52l16 42h181zM393 261q0 33 -21.5 55
t-54.5 22t-55 -22t-22 -55t22 -54.5t55 -21.5t54.5 21.5t21.5 54.5z" />
    <glyph glyph-name="aringacute.ss01" horiz-adv-x="643" 
d="M603 522v-522h-181l-14 49q-59 -59 -135 -59q-103 0 -175.5 76t-72.5 192q0 88 45 157t117 99q-22 28 -22 68q0 56 43 86l25 84h225l-79 -122q11 -24 11 -48q0 -41 -25 -71q19 -11 41 -31l16 42h181zM393 261q0 33 -21.5 55t-54.5 22t-55 -22t-22 -55t22 -54.5t55 -21.5
t54.5 21.5t21.5 54.5zM277 545q17 0 27 10t10 25t-10 25.5t-27 10.5t-26.5 -10.5t-9.5 -25.5t9.5 -25t26.5 -10z" />
    <glyph glyph-name="K.ss01" horiz-adv-x="750" 
d="M473 0l-151 234l-33 -49v-185h-229v700h229v-256l171 256h275l-243 -314l263 -386h-282z" />
    <glyph glyph-name="Kcommaaccent.ss01" horiz-adv-x="750" 
d="M210 -224l55 174h225q-19 -29 -57.5 -87t-56.5 -87h-166zM473 0l-151 234l-33 -49v-185h-229v700h229v-256l171 256h275l-243 -314l263 -386h-282z" />
    <glyph glyph-name="k.ss01" horiz-adv-x="655" 
d="M399 0l-96 156l-28 -32v-124h-215v700h215v-345l114 167h261l-190 -229l200 -293h-261z" />
    <glyph glyph-name="kcommaaccent.ss01" horiz-adv-x="655" 
d="M170 -224l55 174h225q-19 -29 -57.5 -87t-56.5 -87h-166zM399 0l-96 156l-28 -32v-124h-215v700h215v-345l114 167h261l-190 -229l200 -293h-261z" />
    <glyph glyph-name="Sarcasm" horiz-adv-x="751" 
d="M214 232l-194 391l248 87l104 -422zM376 246q53 0 90.5 -37.5t37.5 -91.5t-37.5 -90.5t-90.5 -36.5q-55 0 -92 36t-37 91q0 54 37 91.5t92 37.5zM731 623l-194 -391l-158 56l104 422z" />
    </font>
</defs>
</svg>
